<svg width="40" height="52" viewBox="0 0 40 52" fill="none" xmlns="http://www.w3.org/2000/svg">
  <path fill-rule="evenodd" clip-rule="evenodd" d="M0.799805 6.79999C0.799805 5.10261 1.47409 3.47474 2.67432 2.27451C3.87455 1.07428 5.50242 0.399994 7.1998 0.399994H21.875C23.5723 0.400356 25.1999 1.07488 26.3998 2.27519L37.3246 13.2C38.5249 14.3999 39.1994 16.0275 39.1998 17.7248V45.2C39.1998 46.8974 38.5255 48.5252 37.3253 49.7255C36.1251 50.9257 34.4972 51.6 32.7998 51.6H7.1998C5.50242 51.6 3.87455 50.9257 2.67432 49.7255C1.47409 48.5252 0.799805 46.8974 0.799805 45.2V6.79999ZM7.1998 26C7.1998 25.1513 7.53695 24.3374 8.13706 23.7373C8.73718 23.1371 9.55111 22.8 10.3998 22.8H29.5998C30.4485 22.8 31.2624 23.1371 31.8625 23.7373C32.4627 24.3374 32.7998 25.1513 32.7998 26C32.7998 26.8487 32.4627 27.6626 31.8625 28.2627C31.2624 28.8629 30.4485 29.2 29.5998 29.2H10.3998C9.55111 29.2 8.73718 28.8629 8.13706 28.2627C7.53695 27.6626 7.1998 26.8487 7.1998 26ZM10.3998 35.6C9.55111 35.6 8.73718 35.9371 8.13706 36.5373C7.53695 37.1374 7.1998 37.9513 7.1998 38.8C7.1998 39.6487 7.53695 40.4626 8.13706 41.0627C8.73718 41.6628 9.55111 42 10.3998 42H29.5998C30.4485 42 31.2624 41.6628 31.8625 41.0627C32.4627 40.4626 32.7998 39.6487 32.7998 38.8C32.7998 37.9513 32.4627 37.1374 31.8625 36.5373C31.2624 35.9371 30.4485 35.6 29.5998 35.6H10.3998Z" fill="#6B7280"/>
</svg>
