<svg width="52" height="46" viewBox="0 0 52 46" fill="none" xmlns="http://www.w3.org/2000/svg">
  <path fill-rule="evenodd" clip-rule="evenodd" d="M6.80039 0.600006C5.103 0.600006 3.47514 1.27429 2.27491 2.47452C1.07467 3.67476 0.400391 5.30262 0.400391 7.00001V39C0.400391 40.6974 1.07467 42.3253 2.27491 43.5255C3.47514 44.7257 5.103 45.4 6.80039 45.4H45.2004C46.8978 45.4 48.5256 44.7257 49.7259 43.5255C50.9261 42.3253 51.6004 40.6974 51.6004 39V7.00001C51.6004 5.30262 50.9261 3.67476 49.7259 2.47452C48.5256 1.27429 46.8978 0.600006 45.2004 0.600006H6.80039ZM45.2004 39H6.80039L19.6004 13.4L29.2004 32.6L35.6004 19.8L45.2004 39Z" fill="#6B7280"/>
</svg>
