<svg width="40" height="41" viewBox="0 0 40 41" fill="none" xmlns="http://www.w3.org/2000/svg">
<rect width="40" height="40" transform="translate(0 0.469482)" fill="#897AE3"/>
<path fill-rule="evenodd" clip-rule="evenodd" d="M19.4048 9.82793C19.5861 9.72439 19.7913 9.66992 20 9.66992C20.2088 9.66992 20.414 9.72439 20.5952 9.82793L22.6952 11.0279C22.836 11.104 22.9601 11.2074 23.0603 11.3322C23.1604 11.4569 23.2347 11.6004 23.2786 11.7542C23.3225 11.908 23.3352 12.0691 23.316 12.2279C23.2967 12.3867 23.2459 12.5401 23.1666 12.679C23.0872 12.8179 22.9809 12.9395 22.8538 13.0367C22.7267 13.1339 22.5815 13.2047 22.4267 13.245C22.2719 13.2853 22.1106 13.2942 21.9522 13.2712C21.7939 13.2482 21.6418 13.1938 21.5048 13.1111L20 12.2519L18.4952 13.1111C18.3582 13.1938 18.2061 13.2482 18.0478 13.2712C17.8895 13.2942 17.7282 13.2853 17.5734 13.245C17.4185 13.2047 17.2733 13.1339 17.1463 13.0367C17.0192 12.9395 16.9129 12.8179 16.8335 12.679C16.7541 12.5401 16.7033 12.3867 16.6841 12.2279C16.6648 12.0691 16.6776 11.908 16.7215 11.7542C16.7654 11.6004 16.8396 11.4569 16.9398 11.3322C17.04 11.2074 17.1641 11.104 17.3048 11.0279L19.4048 9.82793ZM14.7416 13.8743C14.8994 14.1506 14.941 14.4782 14.8573 14.7852C14.7736 15.0921 14.5714 15.3532 14.2952 15.5111L14.0192 15.6695L14.2952 15.8279C14.436 15.904 14.5601 16.0074 14.6603 16.1322C14.7604 16.2569 14.8347 16.4004 14.8786 16.5542C14.9225 16.708 14.9352 16.8691 14.916 17.0279C14.8967 17.1867 14.8459 17.3401 14.7666 17.479C14.6872 17.6179 14.5809 17.7395 14.4538 17.8367C14.3267 17.9339 14.1815 18.0047 14.0267 18.045C13.8719 18.0853 13.7106 18.0942 13.5522 18.0712C13.3939 18.0482 13.2418 17.9938 13.1048 17.9111L12.8 17.7371V18.0695C12.8 18.3878 12.6736 18.693 12.4486 18.9181C12.2235 19.1431 11.9183 19.2695 11.6 19.2695C11.2818 19.2695 10.9765 19.1431 10.7515 18.9181C10.5265 18.693 10.4 18.3878 10.4 18.0695V15.6695C10.3994 15.454 10.457 15.2422 10.5669 15.0568C10.6767 14.8713 10.8347 14.719 11.024 14.6159L13.1048 13.4279C13.3811 13.2702 13.7087 13.2286 14.0156 13.3123C14.3226 13.396 14.5837 13.5982 14.7416 13.8743ZM25.2584 13.8743C25.4163 13.5982 25.6775 13.396 25.9844 13.3123C26.2913 13.2286 26.619 13.2702 26.8952 13.4279L28.9748 14.6159C29.1639 14.7194 29.3217 14.8718 29.4317 15.0571C29.5417 15.2425 29.5998 15.454 29.6 15.6695V18.0695C29.6 18.3878 29.4736 18.693 29.2486 18.9181C29.0235 19.1431 28.7183 19.2695 28.4 19.2695C28.0818 19.2695 27.7765 19.1431 27.5515 18.9181C27.3265 18.693 27.2 18.3878 27.2 18.0695V17.7371L26.8952 17.9111C26.7582 17.9938 26.6061 18.0482 26.4478 18.0712C26.2895 18.0942 26.1282 18.0853 25.9734 18.045C25.8185 18.0047 25.6733 17.9339 25.5463 17.8367C25.4192 17.7395 25.3129 17.6179 25.2335 17.479C25.1541 17.3401 25.1033 17.1867 25.0841 17.0279C25.0648 16.8691 25.0776 16.708 25.1215 16.5542C25.1654 16.4004 25.2396 16.2569 25.3398 16.1322C25.44 16.0074 25.5641 15.904 25.7048 15.8279L25.9808 15.6695L25.7048 15.5111C25.4286 15.3532 25.2265 15.0921 25.1428 14.7852C25.0591 14.4782 25.1007 14.1506 25.2584 13.8743ZM16.8584 18.6743C17.0164 18.3982 17.2775 18.196 17.5844 18.1123C17.8913 18.0286 18.219 18.0702 18.4952 18.2279L20 19.0871L21.5048 18.2279C21.6418 18.1453 21.7939 18.0909 21.9522 18.0679C22.1106 18.0449 22.2719 18.0538 22.4267 18.0941C22.5815 18.1343 22.7267 18.2052 22.8538 18.3024C22.9809 18.3996 23.0872 18.5212 23.1666 18.6601C23.2459 18.799 23.2967 18.9523 23.316 19.1112C23.3352 19.27 23.3225 19.431 23.2786 19.5849C23.2347 19.7387 23.1604 19.8822 23.0603 20.0069C22.9601 20.1316 22.836 20.2351 22.6952 20.3111L21.2 21.1655V22.8695C21.2 23.1878 21.0736 23.493 20.8486 23.7181C20.6235 23.9431 20.3183 24.0695 20 24.0695C19.6818 24.0695 19.3765 23.9431 19.1515 23.7181C18.9265 23.493 18.8 23.1878 18.8 22.8695V21.1655L17.3048 20.3111C17.0286 20.1532 16.8265 19.8921 16.7428 19.5851C16.6591 19.2782 16.7007 18.9506 16.8584 18.6743ZM11.6 21.6695C11.9183 21.6695 12.2235 21.796 12.4486 22.021C12.6736 22.246 12.8 22.5513 12.8 22.8695V24.5735L14.2952 25.4279C14.436 25.504 14.5601 25.6074 14.6603 25.7322C14.7604 25.8569 14.8347 26.0004 14.8786 26.1542C14.9225 26.308 14.9352 26.4691 14.916 26.6279C14.8967 26.7867 14.8459 26.9401 14.7666 27.079C14.6872 27.2179 14.5809 27.3395 14.4538 27.4367C14.3267 27.5339 14.1815 27.6047 14.0267 27.645C13.8719 27.6853 13.7106 27.6942 13.5522 27.6712C13.3939 27.6482 13.2418 27.5938 13.1048 27.5111L11.0048 26.3111C10.8212 26.2062 10.6685 26.0546 10.5623 25.8717C10.4561 25.6888 10.4001 25.4811 10.4 25.2695V22.8695C10.4 22.5513 10.5265 22.246 10.7515 22.021C10.9765 21.796 11.2818 21.6695 11.6 21.6695ZM28.4 21.6695C28.7183 21.6695 29.0235 21.796 29.2486 22.021C29.4736 22.246 29.6 22.5513 29.6 22.8695V25.2695C29.6 25.4811 29.544 25.6888 29.4378 25.8717C29.3316 26.0546 29.1789 26.2062 28.9952 26.3111L26.8952 27.5111C26.7582 27.5938 26.6061 27.6482 26.4478 27.6712C26.2895 27.6942 26.1282 27.6853 25.9734 27.645C25.8185 27.6047 25.6733 27.5339 25.5463 27.4367C25.4192 27.3395 25.3129 27.2179 25.2335 27.079C25.1541 26.9401 25.1033 26.7867 25.0841 26.6279C25.0648 26.4691 25.0776 26.308 25.1215 26.1542C25.1654 26.0004 25.2396 25.8569 25.3398 25.7322C25.44 25.6074 25.5641 25.504 25.7048 25.4279L27.2 24.5735V22.8695C27.2 22.5513 27.3265 22.246 27.5515 22.021C27.7765 21.796 28.0818 21.6695 28.4 21.6695ZM16.8584 28.2743C17.0164 27.9982 17.2775 27.796 17.5844 27.7123C17.8913 27.6286 18.219 27.6702 18.4952 27.8279L18.8 28.0019V27.6695C18.8 27.3513 18.9265 27.046 19.1515 26.821C19.3765 26.596 19.6818 26.4695 20 26.4695C20.3183 26.4695 20.6235 26.596 20.8486 26.821C21.0736 27.046 21.2 27.3513 21.2 27.6695V28.0019L21.5048 27.8279C21.6418 27.7453 21.7939 27.6909 21.9522 27.6679C22.1106 27.6449 22.2719 27.6538 22.4267 27.6941C22.5815 27.7343 22.7267 27.8052 22.8538 27.9024C22.9809 27.9996 23.0872 28.1212 23.1666 28.2601C23.2459 28.399 23.2967 28.5523 23.316 28.7112C23.3352 28.87 23.3225 29.031 23.2786 29.1849C23.2347 29.3387 23.1604 29.4822 23.0603 29.6069C22.9601 29.7316 22.836 29.8351 22.6952 29.9111L20.6132 31.1015C20.4279 31.2124 20.216 31.271 20 31.271C19.7841 31.271 19.5721 31.2124 19.3868 31.1015L17.3048 29.9111C17.0286 29.7532 16.8265 29.4921 16.7428 29.1852C16.6591 28.8782 16.7007 28.5506 16.8584 28.2743Z" fill="white"/>
</svg>
