<svg width="40" height="41" viewBox="0 0 40 41" fill="none" xmlns="http://www.w3.org/2000/svg">
<rect width="40" height="40" transform="translate(0 0.469482)" fill="#52BD95"/>
<path d="M11.6 13.2695C11.6 12.9512 11.7264 12.646 11.9514 12.4209C12.1765 12.1959 12.4817 12.0695 12.8 12.0695H27.2C27.5182 12.0695 27.8235 12.1959 28.0485 12.4209C28.2735 12.646 28.4 12.9512 28.4 13.2695V15.6695C28.4 15.9877 28.2735 16.2929 28.0485 16.518C27.8235 16.743 27.5182 16.8695 27.2 16.8695H12.8C12.4817 16.8695 12.1765 16.743 11.9514 16.518C11.7264 16.2929 11.6 15.9877 11.6 15.6695V13.2695ZM11.6 20.4695C11.6 20.1512 11.7264 19.846 11.9514 19.6209C12.1765 19.3959 12.4817 19.2695 12.8 19.2695H20C20.3182 19.2695 20.6235 19.3959 20.8485 19.6209C21.0735 19.846 21.2 20.1512 21.2 20.4695V27.6695C21.2 27.9877 21.0735 28.2929 20.8485 28.518C20.6235 28.743 20.3182 28.8695 20 28.8695H12.8C12.4817 28.8695 12.1765 28.743 11.9514 28.518C11.7264 28.2929 11.6 27.9877 11.6 27.6695V20.4695ZM24.8 19.2695C24.4817 19.2695 24.1765 19.3959 23.9514 19.6209C23.7264 19.846 23.6 20.1512 23.6 20.4695V27.6695C23.6 27.9877 23.7264 28.2929 23.9514 28.518C24.1765 28.743 24.4817 28.8695 24.8 28.8695H27.2C27.5182 28.8695 27.8235 28.743 28.0485 28.518C28.2735 28.2929 28.4 27.9877 28.4 27.6695V20.4695C28.4 20.1512 28.2735 19.846 28.0485 19.6209C27.8235 19.3959 27.5182 19.2695 27.2 19.2695H24.8Z" fill="white"/>
</svg>
