<svg width="40" height="41" viewBox="0 0 40 41" fill="none" xmlns="http://www.w3.org/2000/svg">
<rect width="40" height="40" transform="translate(0 0.469482)" fill="#E81E61"/>
<path d="M20.4728 10.9655C20.3234 10.9014 20.1626 10.8684 20 10.8684C19.8375 10.8684 19.6766 10.9014 19.5272 10.9655L11.1272 14.5655C10.9108 14.6577 10.7262 14.8115 10.5964 15.0078C10.4667 15.2041 10.3975 15.4342 10.3975 15.6695C10.3975 15.9048 10.4667 16.1349 10.5964 16.3312C10.7262 16.5274 10.9108 16.6813 11.1272 16.7735L14.3 18.1307C14.4178 17.9975 14.5637 17.8921 14.7272 17.8223L19.5272 15.7655C19.6725 15.7007 19.8291 15.6655 19.9881 15.6619C20.1471 15.6582 20.3052 15.6862 20.4533 15.7442C20.6014 15.8022 20.7365 15.889 20.8507 15.9996C20.9649 16.1103 21.056 16.2425 21.1186 16.3887C21.1813 16.5348 21.2143 16.692 21.2157 16.851C21.2171 17.01 21.1869 17.1678 21.1268 17.315C21.0667 17.4622 20.9779 17.596 20.8657 17.7087C20.7534 17.8213 20.6199 17.9105 20.4728 17.9711L17.2004 19.3751L19.5284 20.3723C19.6777 20.4362 19.8383 20.4691 20.0006 20.4691C20.1629 20.4691 20.3236 20.4362 20.4728 20.3723L28.8728 16.7723C29.0886 16.6797 29.2724 16.5259 29.4016 16.3299C29.5308 16.1339 29.5997 15.9042 29.5997 15.6695C29.5997 15.4347 29.5308 15.2051 29.4016 15.0091C29.2724 14.8131 29.0886 14.6592 28.8728 14.5667L20.4728 10.9667V10.9655ZM11.972 19.7459L14 20.6135V25.5359C13.5845 25.4414 13.1638 25.3717 12.74 25.3271C12.4666 25.2983 12.2113 25.1766 12.0169 24.9822C11.8225 24.7878 11.7008 24.5325 11.672 24.2591C11.5142 22.7482 11.6157 21.2214 11.972 19.7447V19.7459ZM19.16 28.3571C18.3488 27.5611 17.4174 26.8978 16.4 26.3915V21.6431L18.5816 22.5791C19.0298 22.7712 19.5124 22.8703 20 22.8703C20.4877 22.8703 20.9702 22.7712 21.4184 22.5791L28.028 19.7459C28.3865 21.2223 28.4879 22.7494 28.328 24.2603C28.2993 24.5337 28.1775 24.789 27.9831 24.9834C27.7887 25.1778 27.5334 25.2995 27.26 25.3283C24.8391 25.5827 22.5759 26.6504 20.84 28.3571C20.6157 28.5769 20.3141 28.7001 20 28.7001C19.6859 28.7001 19.3843 28.5769 19.16 28.3571ZM15.2 30.0695C15.5183 30.0695 15.8235 29.943 16.0485 29.718C16.2736 29.493 16.4 29.1877 16.4 28.8695V26.3915C15.6368 26.0123 14.8311 25.7255 14 25.5371V28.8695C14 29.1877 14.1264 29.493 14.3515 29.718C14.5765 29.943 14.8818 30.0695 15.2 30.0695Z" fill="white"/>
</svg>
