<svg width="40" height="41" viewBox="0 0 40 41" fill="none" xmlns="http://www.w3.org/2000/svg">
<rect width="40" height="40" transform="translate(0 0.469482)" fill="#3C5CF8"/>
<path fill-rule="evenodd" clip-rule="evenodd" d="M20 30.0695C22.5461 30.0695 24.9879 29.0581 26.7882 27.2577C28.5886 25.4574 29.6 23.0156 29.6 20.4695C29.6 17.9234 28.5886 15.4816 26.7882 13.6813C24.9879 11.8809 22.5461 10.8695 20 10.8695C17.4539 10.8695 15.0121 11.8809 13.2118 13.6813C11.4115 15.4816 10.4 17.9234 10.4 20.4695C10.4 23.0156 11.4115 25.4574 13.2118 27.2577C15.0121 29.0581 17.4539 30.0695 20 30.0695ZM13.1984 18.1019C13.644 16.826 14.439 15.7008 15.4928 14.8547C15.8144 15.3455 16.3688 15.6695 17 15.6695C17.4774 15.6695 17.9353 15.8591 18.2728 16.1967C18.6104 16.5343 18.8 16.9921 18.8 17.4695V18.0695C18.8 18.706 19.0529 19.3165 19.503 19.7666C19.9531 20.2166 20.5635 20.4695 21.2 20.4695C21.8365 20.4695 22.447 20.2166 22.8971 19.7666C23.3472 19.3165 23.6 18.706 23.6 18.0695C23.5998 17.5324 23.7798 17.0108 24.1111 16.5881C24.4425 16.1654 24.906 15.866 25.4276 15.7379C26.5728 17.0479 27.2027 18.7295 27.2 20.4695C27.2 20.8775 27.1664 21.2795 27.1004 21.6695H26C25.3635 21.6695 24.7531 21.9224 24.303 22.3724C23.8529 22.8225 23.6 23.433 23.6 24.0695V26.7059C22.506 27.3389 21.264 27.6713 20 27.6695V25.2695C20 24.633 19.7472 24.0225 19.2971 23.5725C18.847 23.1224 18.2365 22.8695 17.6 22.8695C16.9635 22.8695 16.3531 22.6166 15.903 22.1666C15.4529 21.7165 15.2 21.106 15.2 20.4695C15.2002 19.9019 14.9993 19.3526 14.6328 18.9191C14.2664 18.4857 13.7582 18.1961 13.1984 18.1019Z" fill="white"/>
</svg>
