<svg width="320" height="228" viewBox="0 0 320 228" fill="none" xmlns="http://www.w3.org/2000/svg">
  <path opacity="0.16" d="M41.8953 122.272L63.6546 107.332V142.083L41.8953 157.022V122.272Z" fill="white" fill-opacity="0.12"/>
  <path opacity="0.16" d="M41.8952 122.306L0 107.193V141.944L41.8952 157.024V122.306Z" fill="white" fill-opacity="0.26"/>
  <path opacity="0.16" d="M298.241 144.969L320 130.029V164.779L298.241 179.719V144.969Z" fill="white" fill-opacity="0.12"/>
  <path opacity="0.16" d="M298.241 145.003L256.346 129.89V164.64L298.241 179.721V145.003Z" fill="white" fill-opacity="0.26"/>
  <path opacity="0.16" d="M67.0774 15.0788L88.8374 0.139389V34.8899L67.0774 49.8293V15.0788Z" fill="white" fill-opacity="0.12"/>
  <path opacity="0.16" d="M67.0768 15.1128L25.1809 0V34.7505L67.0768 49.8308V15.1128Z" fill="white" fill-opacity="0.26"/>
  <path opacity="0.16" d="M234.841 192.719L256.601 177.779V212.53L234.841 227.47V192.719Z" fill="white" fill-opacity="0.12"/>
  <path opacity="0.16" d="M234.842 192.686L150.726 162.428V197.179L234.842 227.437V192.686Z" fill="white" fill-opacity="0.26"/>
  <path opacity="0.16" d="M256.346 95.1391L278.106 80.199V114.95L256.346 129.889V95.1391Z" fill="white" fill-opacity="0.12"/>
  <path opacity="0.16" d="M256.346 95.1069L172.23 64.8484V99.5991L256.346 129.857V95.1069Z" fill="white" fill-opacity="0.26"/>
  <path opacity="0.16" d="M150.468 79.7687L172.228 64.8294V99.5802L150.468 114.52V79.7687Z" fill="white" fill-opacity="0.12"/>
  <path opacity="0.16" d="M150.468 79.7364L66.3522 49.4784V84.2293L150.468 114.487V79.7364Z" fill="white" fill-opacity="0.26"/>
</svg>
