<svg width="196" height="207" viewBox="0 0 196 207" fill="none" xmlns="http://www.w3.org/2000/svg">
<path fill-rule="evenodd" clip-rule="evenodd" d="M15.3947 66.6735H18.1114V69.0432H15.3947V66.6735ZM15.3947 80.892H18.1114V83.2618H15.3947V80.892ZM15.3947 94.3207H18.1114V96.6905H15.3947V94.3207ZM15.3947 107.749H18.1114V110.119H15.3947V107.749ZM15.3947 121.968H18.1114V124.338H15.3947V121.968ZM15.3947 135.397H18.1114V137.766H15.3947V135.397ZM15.3947 148.825H18.1114V151.195H15.3947V148.825ZM15.3947 163.044H18.1114V165.414H15.3947V163.044ZM15.3947 176.472H18.1114V178.842H15.3947V176.472ZM15.3947 189.901H18.1114V192.271H15.3947V189.901ZM15.3947 204.12H18.1114V206.489H15.3947V204.12ZM0 66.6735H2.71671V69.0432H0V66.6735ZM0 80.892H2.71671V83.2618H0V80.892ZM0 94.3207H2.71671V96.6905H0V94.3207ZM0 107.749H2.71671V110.119H0V107.749ZM0 121.968H2.71671V124.338H0V121.968ZM0 135.397H2.71671V137.766H0V135.397ZM0 148.825H2.71671V151.195H0V148.825ZM0 163.044H2.71671V165.414H0V163.044ZM0 176.472H2.71671V178.842H0V176.472ZM0 189.901H2.71671V192.271H0V189.901ZM0 204.12H2.71671V206.489H0V204.12ZM31.6949 66.6735H34.4116V69.0432H31.6949V66.6735ZM31.6949 80.892H34.4116V83.2618H31.6949V80.892ZM31.6949 94.3207H34.4116V96.6905H31.6949V94.3207ZM31.6949 107.749H34.4116V110.119H31.6949V107.749ZM31.6949 121.968H34.4116V124.338H31.6949V121.968ZM31.6949 135.397H34.4116V137.766H31.6949V135.397ZM31.6949 148.825H34.4116V151.195H31.6949V148.825ZM31.6949 163.044H34.4116V165.414H31.6949V163.044ZM31.6949 176.472H34.4116V178.842H31.6949V176.472ZM31.6949 189.901H34.4116V192.271H31.6949V189.901ZM31.6949 204.12H34.4116V206.489H31.6949V204.12ZM47.0896 53.2448H49.8063V55.6146H47.0896V53.2448ZM47.0896 66.6735H49.8063V69.0432H47.0896V66.6735ZM47.0896 80.892H49.8063V83.2618H47.0896V80.892ZM47.0896 94.3207H49.8063V96.6905H47.0896V94.3207ZM47.0896 107.749H49.8063V110.119H47.0896V107.749ZM47.0896 121.968H49.8063V124.338H47.0896V121.968ZM47.0896 135.397H49.8063V137.766H47.0896V135.397ZM47.0896 148.825H49.8063V151.195H47.0896V148.825ZM47.0896 163.044H49.8063V165.414H47.0896V163.044ZM47.0896 176.472H49.8063V178.842H47.0896V176.472ZM47.0896 189.901H49.8063V192.271H47.0896V189.901ZM47.0896 204.12H49.8063V206.489H47.0896V204.12ZM63.3898 53.2448H66.1065V55.6146H63.3898V53.2448ZM63.3898 66.6735H66.1065V69.0432H63.3898V66.6735ZM63.3898 80.892H66.1065V83.2618H63.3898V80.892ZM63.3898 94.3207H66.1065V96.6905H63.3898V94.3207ZM63.3898 107.749H66.1065V110.119H63.3898V107.749ZM63.3898 121.968H66.1065V124.338H63.3898V121.968ZM63.3898 135.397H66.1065V137.766H63.3898V135.397ZM63.3898 148.825H66.1065V151.195H63.3898V148.825ZM63.3898 163.044H66.1065V165.414H63.3898V163.044ZM63.3898 176.472H66.1065V178.842H63.3898V176.472ZM63.3898 189.901H66.1065V192.271H63.3898V189.901ZM63.3898 204.12H66.1065V206.489H63.3898V204.12ZM78.7845 53.2448H81.5012V55.6146H78.7845V53.2448ZM78.7845 66.6735H81.5012V69.0432H78.7845V66.6735ZM78.7845 80.892H81.5012V83.2618H78.7845V80.892ZM78.7845 94.3207H81.5012V96.6905H78.7845V94.3207ZM78.7845 107.749H81.5012V110.119H78.7845V107.749ZM78.7845 121.968H81.5012V124.338H78.7845V121.968ZM78.7845 135.397H81.5012V137.766H78.7845V135.397ZM78.7845 148.825H81.5012V151.195H78.7845V148.825ZM78.7845 163.044H81.5012V165.414H78.7845V163.044ZM78.7845 176.472H81.5012V178.842H78.7845V176.472ZM78.7845 189.901H81.5012V192.271H78.7845V189.901ZM78.7845 204.12H81.5012V206.489H78.7845V204.12ZM94.1791 53.2448H96.8958V55.6146H94.1791V53.2448ZM94.1791 66.6735H96.8958V69.0432H94.1791V66.6735ZM94.1791 80.892H96.8958V83.2618H94.1791V80.892ZM94.1791 94.3207H96.8958V96.6905H94.1791V94.3207ZM94.1791 107.749H96.8958V110.119H94.1791V107.749ZM94.1791 121.968H96.8958V124.338H94.1791V121.968ZM94.1791 135.397H96.8958V137.766H94.1791V135.397ZM94.1791 148.825H96.8958V151.195H94.1791V148.825ZM94.1791 163.044H96.8958V165.414H94.1791V163.044ZM94.1791 176.472H96.8958V178.842H94.1791V176.472ZM94.1791 189.901H96.8958V192.271H94.1791V189.901ZM94.1791 204.12H96.8958V206.489H94.1791V204.12ZM110.479 53.2448H113.196V55.6146H110.479V53.2448ZM110.479 66.6735H113.196V69.0432H110.479V66.6735ZM110.479 80.892H113.196V83.2618H110.479V80.892ZM110.479 94.3207H113.196V96.6905H110.479V94.3207ZM110.479 107.749H113.196V110.119H110.479V107.749ZM110.479 121.968H113.196V124.338H110.479V121.968ZM110.479 135.397H113.196V137.766H110.479V135.397ZM110.479 148.825H113.196V151.195H110.479V148.825ZM110.479 163.044H113.196V165.414H110.479V163.044ZM110.479 176.472H113.196V178.842H110.479V176.472ZM110.479 189.901H113.196V192.271H110.479V189.901ZM110.479 204.12H113.196V206.489H110.479V204.12Z" fill="#26C6DA"/>
<path d="M138 19.764H139.911V21.437H138V19.764ZM148.828 19.764H150.739V21.437H148.828V19.764ZM160.293 19.764H162.203V21.437H160.293V19.764ZM171.12 19.764H173.031V21.437H171.12V19.764ZM181.948 19.764H183.859V21.437H181.948V19.764ZM193.413 19.764H195.324V21.437H193.413V19.764ZM138 0.244812H139.911V1.91788H138V0.244812ZM148.828 0.244812H150.739V1.91788H148.828V0.244812ZM160.293 0.244812H162.203V1.91788H160.293V0.244812ZM171.12 0.244812H173.031V1.91788H171.12V0.244812ZM181.948 0.244812H183.859V1.91788H181.948V0.244812ZM193.413 0.244812H195.324V1.91788H193.413V0.244812ZM138 9.72555H139.911V11.3986H138V9.72555ZM148.828 9.72555H150.739V11.3986H148.828V9.72555ZM160.293 9.72555H162.203V11.3986H160.293V9.72555ZM171.12 9.72555H173.031V11.3986H171.12V9.72555ZM181.948 9.72555H183.859V11.3986H181.948V9.72555ZM193.413 9.72555H195.324V11.3986H193.413V9.72555ZM138 29.2447H139.911V30.9178H138V29.2447ZM148.828 29.2447H150.739V30.9178H148.828V29.2447ZM160.293 29.2447H162.203V30.9178H160.293V29.2447ZM171.12 29.2447H173.031V30.9178H171.12V29.2447ZM181.948 29.2447H183.859V30.9178H181.948V29.2447ZM193.413 29.2447H195.324V30.9178H193.413V29.2447ZM138 38.7254H139.911V40.3985H138V38.7254ZM148.828 38.7254H150.739V40.3985H148.828V38.7254ZM160.293 38.7254H162.203V40.3985H160.293V38.7254ZM171.12 38.7254H173.031V40.3985H171.12V38.7254ZM181.948 38.7254H183.859V40.3985H181.948V38.7254ZM193.413 38.7254H195.324V40.3985H193.413V38.7254ZM138 48.7639H139.911V50.4369H138V48.7639ZM148.828 48.7639H150.739V50.4369H148.828V48.7639ZM160.293 48.7639H162.203V50.4369H160.293V48.7639ZM171.12 48.7639H173.031V50.4369H171.12V48.7639ZM181.948 48.7639H183.859V50.4369H181.948V48.7639ZM193.413 48.7639H195.324V50.4369H193.413V48.7639ZM138 58.2446H139.911V59.9177H138V58.2446ZM148.828 58.2446H150.739V59.9177H148.828V58.2446ZM160.293 58.2446H162.203V59.9177H160.293V58.2446ZM171.12 58.2446H173.031V59.9177H171.12V58.2446ZM181.948 58.2446H183.859V59.9177H181.948V58.2446ZM193.413 58.2446H195.324V59.9177H193.413V58.2446ZM138 67.7253H139.911V69.3984H138V67.7253ZM148.828 67.7253H150.739V69.3984H148.828V67.7253ZM160.293 67.7253H162.203V69.3984H160.293V67.7253ZM171.12 67.7253H173.031V69.3984H171.12V67.7253ZM181.948 67.7253H183.859V69.3984H181.948V67.7253ZM193.413 67.7253H195.324V69.3984H193.413V67.7253ZM138 77.7638H139.911V79.4368H138V77.7638ZM148.828 77.7638H150.739V79.4368H148.828V77.7638ZM160.293 77.7638H162.203V79.4368H160.293V77.7638ZM171.12 77.7638H173.031V79.4368H171.12V77.7638ZM181.948 77.7638H183.859V79.4368H181.948V77.7638ZM193.413 77.7638H195.324V79.4368H193.413V77.7638Z" fill="#546E7A" fill-opacity="0.54"/>
</svg>
