<svg width="36" height="36" viewBox="0 0 36 36" fill="none" xmlns="http://www.w3.org/2000/svg">
  <rect width="36" height="36" fill="none" />
  <path d="M0 9H9L9.37125 9.37125H26.6287L27 9H36V27H27L26.6287 26.6287H9.37125L9 27H0V9Z" fill="#D52B1E" />
  <path d="M9 9H27V27H9V9ZM18.3375 25.6125L18.1687 22.3762C18.1663 22.323 18.1758 22.2699 18.1966 22.2209C18.2174 22.1718 18.2489 22.128 18.2888 22.0928C18.3288 22.0575 18.3761 22.0317 18.4274 22.0171C18.4786 22.0026 18.5325 21.9997 18.585 22.0087L21.8062 22.575L21.3712 21.375C21.3536 21.3273 21.3513 21.2752 21.3648 21.2261C21.3782 21.177 21.4067 21.1333 21.4462 21.1012L24.975 18.2437L24.18 17.8725C24.1263 17.8471 24.0837 17.803 24.0602 17.7485C24.0368 17.6939 24.034 17.6327 24.0525 17.5762L24.75 15.4312L22.7175 15.8625C22.6624 15.874 22.6051 15.8661 22.5552 15.8401C22.5053 15.8141 22.4659 15.7717 22.4437 15.72L22.05 14.7937L20.4637 16.4962C20.4275 16.5345 20.3798 16.56 20.3278 16.5688C20.2758 16.5777 20.2224 16.5695 20.1755 16.5454C20.1286 16.5213 20.0908 16.4827 20.0677 16.4353C20.0446 16.3879 20.0375 16.3343 20.0475 16.2825L20.8125 12.3375L19.5862 13.0462C19.5575 13.0631 19.5255 13.0739 19.4924 13.0779C19.4593 13.082 19.4257 13.0791 19.3937 13.0696C19.3617 13.0601 19.332 13.0442 19.3064 13.0227C19.2808 13.0013 19.2599 12.9748 19.245 12.945L18 10.5L16.755 12.945C16.7401 12.9748 16.7192 13.0013 16.6936 13.0227C16.668 13.0442 16.6383 13.0601 16.6063 13.0696C16.5743 13.0791 16.5407 13.082 16.5076 13.0779C16.4745 13.0739 16.4425 13.0631 16.4137 13.0462L15.1875 12.3375L15.9525 16.2825C15.9625 16.3343 15.9554 16.3879 15.9323 16.4353C15.9092 16.4827 15.8714 16.5213 15.8245 16.5454C15.7776 16.5695 15.7242 16.5777 15.6722 16.5688C15.6202 16.56 15.5725 16.5345 15.5362 16.4962L13.95 14.7937L13.5562 15.72C13.5341 15.7717 13.4947 15.8141 13.4448 15.8401C13.3949 15.8661 13.3376 15.874 13.2825 15.8625L11.25 15.4312L11.9475 17.5762C11.966 17.6327 11.9632 17.6939 11.9398 17.7485C11.9163 17.803 11.8737 17.8471 11.82 17.8725L11.025 18.2437L14.5537 21.1012C14.5933 21.1333 14.6218 21.177 14.6352 21.2261C14.6487 21.2752 14.6464 21.3273 14.6287 21.375L14.1937 22.575L17.415 22.0087C17.4675 21.9997 17.5214 22.0026 17.5726 22.0171C17.6239 22.0317 17.6712 22.0575 17.7112 22.0928C17.7511 22.128 17.7826 22.1718 17.8034 22.2209C17.8242 22.2699 17.8337 22.323 17.8312 22.3762L17.6625 25.6125H18.3375Z" fill="white" />
</svg>
