<svg width="179" height="101" viewBox="0 0 179 101" fill="none" xmlns="http://www.w3.org/2000/svg">
<path d="M41.768 59.3934L23.828 47.0184C22.01 45.7644 22.628 43.1534 24.895 42.5394L43.962 37.3644C44.3659 37.2186 44.7987 37.1713 45.2246 37.2264C45.6504 37.2814 46.057 37.4373 46.4106 37.6809C46.7641 37.9246 47.0545 38.249 47.2575 38.6274C47.4606 39.0057 47.5704 39.4271 47.578 39.8564L46.448 57.4054C46.314 59.4884 43.586 60.6474 41.768 59.3934Z" fill="#E9327C"/>
<path d="M36.078 62.4487L25.509 41.7797C25.2674 41.3068 25.1611 40.7765 25.2018 40.247C25.2425 39.7176 25.4286 39.2097 25.7396 38.7793C26.0506 38.3489 26.4744 38.0128 26.9644 37.808C27.4543 37.6032 27.9912 37.5377 28.516 37.6187L48.103 40.6417C48.5539 40.7113 48.9819 40.8869 49.3518 41.1542C49.7216 41.4214 50.0227 41.7727 50.2304 42.179C50.438 42.5853 50.5463 43.0351 50.5462 43.4914C50.5461 43.9477 50.4378 44.3974 50.23 44.8037L41.207 62.4497C40.9647 62.9212 40.5971 63.3167 40.1446 63.5929C39.6921 63.869 39.1723 64.0151 38.6422 64.015C38.1121 64.0149 37.5923 63.8686 37.1399 63.5923C36.6875 63.316 36.3201 62.9203 36.078 62.4487Z" fill="#1DACE3"/>
<path d="M47.53 40.5529L37.766 39.0459L25.778 42.3009L30.563 51.6619L41.768 59.3939C42.0152 59.5626 42.2871 59.6918 42.574 59.7769L46.83 51.4539L47.53 40.5529Z" fill="#001A49"/>
<path d="M96.987 42.9688C96.987 42.6059 97.0946 42.2511 97.2962 41.9493C97.4979 41.6476 97.7845 41.4124 98.1198 41.2735C98.4551 41.1346 98.824 41.0982 99.18 41.169C99.5359 41.2399 99.8629 41.4146 100.12 41.6713C100.376 41.9279 100.551 42.2548 100.622 42.6108C100.693 42.9668 100.656 43.3357 100.517 43.671C100.378 44.0063 100.143 44.2929 99.8415 44.4945C99.5397 44.6962 99.1849 44.8038 98.822 44.8038C98.3369 44.7988 97.873 44.6039 97.5299 44.2609C97.1869 43.9178 96.9919 43.4539 96.987 42.9688ZM97.293 45.7008H100.352V55.8948H97.293V45.7008Z" fill="#001A49"/>
<path d="M113.562 50.7979C113.598 51.4717 113.5 52.1459 113.274 52.7816C113.048 53.4174 112.698 54.0023 112.245 54.5025C111.793 55.0028 111.245 55.4086 110.635 55.6967C110.025 55.9847 109.364 56.1492 108.69 56.1809C108.123 56.2117 107.556 56.1161 107.031 55.901C106.505 55.6858 106.034 55.3565 105.652 54.9369V59.9729H102.594V45.7009H105.652V46.6589C106.035 46.2394 106.506 45.9103 107.031 45.6953C107.556 45.4803 108.123 45.3849 108.69 45.4159C109.364 45.4474 110.025 45.6118 110.635 45.8997C111.245 46.1876 111.793 46.5934 112.245 47.0936C112.698 47.5937 113.048 48.1785 113.274 48.8143C113.5 49.45 113.598 50.1241 113.562 50.7979ZM110.504 50.7979C110.492 50.3206 110.339 49.8575 110.066 49.4664C109.792 49.0754 109.408 48.7738 108.964 48.5995C108.52 48.4251 108.034 48.3857 107.567 48.4862C107.1 48.5868 106.673 48.8227 106.34 49.1645C106.007 49.5063 105.782 49.9389 105.693 50.408C105.604 50.8771 105.656 51.362 105.841 51.8019C106.027 52.2418 106.338 52.6172 106.736 52.8812C107.134 53.1451 107.601 53.2859 108.078 53.2859C108.406 53.3006 108.733 53.2459 109.038 53.1252C109.343 53.0046 109.62 52.8207 109.849 52.5858C110.078 52.3508 110.255 52.07 110.368 51.7619C110.481 51.4538 110.527 51.1252 110.504 50.7979Z" fill="#001A49"/>
<path d="M123.001 52.8344C123.001 55.1794 120.962 56.1784 118.76 56.1784C117.87 56.2589 116.977 56.0706 116.196 55.6379C115.414 55.2053 114.781 54.5481 114.377 53.7514L117.027 52.2434C117.135 52.6117 117.366 52.9318 117.681 53.1502C117.997 53.3686 118.377 53.4721 118.76 53.4434C119.494 53.4434 119.86 53.2184 119.86 52.8114C119.86 51.6894 114.845 52.2814 114.845 48.7534C114.845 46.5314 116.72 45.4104 118.845 45.4104C119.642 45.3854 120.431 45.5745 121.13 45.9581C121.829 46.3417 122.413 46.9057 122.82 47.5914L120.211 48.9984C120.097 48.7308 119.906 48.5027 119.664 48.3427C119.421 48.1826 119.136 48.0977 118.845 48.0984C118.315 48.0984 117.989 48.2984 117.989 48.6694C117.986 49.8394 123.001 49.0644 123.001 52.8344Z" fill="#001A49"/>
<path d="M134.178 45.7012V55.8952H131.12V54.9352C130.767 55.3581 130.318 55.6913 129.811 55.9075C129.305 56.1237 128.754 56.2168 128.204 56.1792C126.145 56.1792 124.392 54.7112 124.392 51.9582V45.7012H127.45V51.5122C127.424 51.7551 127.452 52.0008 127.531 52.232C127.61 52.4633 127.738 52.6745 127.907 52.8511C128.076 53.0277 128.281 53.1653 128.508 53.2545C128.736 53.3436 128.98 53.382 129.224 53.3672C130.345 53.3672 131.124 52.7152 131.124 51.2672V45.7012H134.178Z" fill="#001A49"/>
<path d="M151.706 49.6345V55.8945H148.648V49.9005C148.648 48.8815 148.158 48.2285 147.18 48.2285C146.16 48.2285 145.59 48.9425 145.59 50.1455V55.8945H142.531V49.9005C142.531 48.8815 142.042 48.2285 141.063 48.2285C140.044 48.2285 139.473 48.9425 139.473 50.1455V55.8945H136.415V45.7005H139.478V46.6345C139.795 46.2186 140.211 45.8888 140.688 45.6752C141.166 45.4615 141.689 45.3709 142.21 45.4115C142.734 45.3859 143.255 45.4964 143.723 45.7321C144.191 45.9678 144.59 46.3207 144.881 46.7565C145.22 46.3006 145.669 45.938 146.186 45.7028C146.703 45.4676 147.272 45.3674 147.838 45.4115C150.178 45.4155 151.706 47.0865 151.706 49.6345Z" fill="#001A49"/>
<path d="M154.297 45.6377C155.551 45.6377 156.567 44.6213 156.567 43.3677C156.567 42.114 155.551 41.0977 154.297 41.0977C153.043 41.0977 152.027 42.114 152.027 43.3677C152.027 44.6213 153.043 45.6377 154.297 45.6377Z" fill="#001A49"/>
<path d="M55.235 41.0117H58.294V55.8947H55.235V41.0117ZM60.026 50.7977C60.0226 49.729 60.3365 48.6833 60.9278 47.793C61.5191 46.9028 62.3613 46.208 63.3477 45.7967C64.3341 45.3853 65.4204 45.276 66.469 45.4824C67.5176 45.6889 68.4814 46.2018 69.2383 46.9563C69.9952 47.7109 70.5112 48.673 70.7209 49.721C70.9307 50.7689 70.8248 51.8556 70.4165 52.8433C70.0083 53.831 69.3162 54.6753 68.4278 55.2695C67.5394 55.8636 66.4947 56.1807 65.426 56.1807C64.7162 56.1883 64.012 56.0544 63.3545 55.7868C62.697 55.5191 62.0995 55.1232 61.5967 54.622C61.094 54.1209 60.6962 53.5246 60.4265 52.868C60.1568 52.2113 60.0206 51.5076 60.026 50.7977ZM67.774 50.7977C67.762 50.3367 67.6143 49.8895 67.3495 49.5119C67.0846 49.1344 66.7143 48.8434 66.2849 48.6752C65.8555 48.507 65.386 48.4692 64.9352 48.5665C64.4845 48.6637 64.0723 48.8917 63.7505 49.222C63.4286 49.5522 63.2112 49.9701 63.1256 50.4232C63.0399 50.8763 63.0898 51.3447 63.2689 51.7696C63.4481 52.1946 63.7485 52.5573 64.1327 52.8124C64.5169 53.0674 64.9678 53.2036 65.429 53.2037C65.7448 53.2127 66.059 53.1562 66.3519 53.0377C66.6447 52.9192 66.9099 52.7414 67.1306 52.5153C67.3512 52.2893 67.5227 52.0199 67.6341 51.7243C67.7456 51.4287 67.7946 51.1132 67.778 50.7977H67.774ZM83.023 45.6977V55.3827C83.023 58.8077 80.352 60.2547 77.641 60.2547C76.6867 60.3268 75.731 60.1347 74.8787 59.6995C74.0264 59.2643 73.3103 58.6029 72.809 57.7877L75.418 56.2787C75.6286 56.7042 75.964 57.0552 76.3795 57.2848C76.795 57.5145 77.2707 57.6118 77.743 57.5637C78.0444 57.6049 78.3512 57.5778 78.6408 57.4846C78.9304 57.3913 79.1954 57.2342 79.4161 57.0249C79.6369 56.8155 79.8078 56.5593 79.9163 56.2751C80.0248 55.9909 80.0681 55.6859 80.043 55.3827V54.4447C79.6848 54.8828 79.2289 55.2308 78.7119 55.4609C78.1949 55.691 77.6312 55.7968 77.066 55.7697C75.7204 55.7279 74.444 55.164 73.5069 54.1974C72.5699 53.2308 72.0459 51.9374 72.0459 50.5912C72.0459 49.245 72.5699 47.9516 73.5069 46.985C74.444 46.0185 75.7204 45.4545 77.066 45.4127C77.6312 45.3857 78.1949 45.4914 78.7119 45.7215C79.2289 45.9516 79.6848 46.2997 80.043 46.7377V45.6977H83.023ZM80.047 50.5907C80.0671 50.0984 79.9395 49.6112 79.6806 49.1919C79.4217 48.7727 79.0433 48.4404 78.5941 48.2379C78.1448 48.0354 77.6453 47.9719 77.1597 48.0556C76.674 48.1393 76.2245 48.3663 75.869 48.7074C75.5134 49.0486 75.268 49.4883 75.1643 49.9701C75.0607 50.4518 75.1035 50.9536 75.2872 51.4108C75.471 51.8681 75.7873 52.2599 76.1955 52.5359C76.6038 52.8119 77.0852 52.9595 77.578 52.9597C77.8993 52.9823 78.2218 52.9374 78.5247 52.8279C78.8276 52.7184 79.1042 52.5466 79.3367 52.3238C79.5693 52.1009 79.7526 51.8319 79.8749 51.5339C79.9973 51.236 80.0559 50.9157 80.047 50.5937V50.5907ZM84.755 50.7907C84.7516 49.722 85.0655 48.6763 85.6568 47.786C86.2481 46.8958 87.0903 46.201 88.0767 45.7897C89.0631 45.3783 90.1494 45.269 91.198 45.4754C92.2466 45.6819 93.2104 46.1948 93.9673 46.9493C94.7242 47.7039 95.2402 48.666 95.45 49.714C95.6597 50.7619 95.5537 51.8486 95.1455 52.8363C94.7373 53.824 94.0452 54.6683 93.1568 55.2625C92.2684 55.8566 91.2237 56.1737 90.155 56.1737C89.4458 56.1813 88.7421 56.0476 88.0851 55.7804C87.4281 55.5132 86.8309 55.1179 86.3282 54.6175C85.8256 54.1171 85.4276 53.5216 85.1575 52.8658C84.8874 52.21 84.7506 51.507 84.755 50.7977V50.7907ZM92.503 50.7907C92.4912 50.3294 92.3436 49.8818 92.0787 49.504C91.8138 49.1262 91.4434 48.8348 91.0137 48.6665C90.5841 48.4981 90.1143 48.4602 89.6633 48.5574C89.2122 48.6547 88.7998 48.8828 88.4777 49.2133C88.1556 49.5437 87.9382 49.9618 87.8525 50.4153C87.7669 50.8687 87.8168 51.3373 87.9962 51.7625C88.1755 52.1877 88.4763 52.5505 88.8608 52.8056C89.2453 53.0607 89.6965 53.1968 90.158 53.1967C90.4728 53.2051 90.786 53.1483 91.0779 53.03C91.3698 52.9117 91.6341 52.7344 91.8542 52.5092C92.0744 52.2839 92.2456 52.0157 92.3573 51.7212C92.4689 51.4267 92.5185 51.1123 92.503 50.7977V50.7907Z" fill="#001A49"/>
</svg>
