<svg width="178" height="101" viewBox="0 0 178 101" fill="none" xmlns="http://www.w3.org/2000/svg">
<path d="M41.419 49.006C41.04 49.3873 40.7498 49.8475 40.569 50.3538C40.3882 50.86 40.3213 51.3999 40.373 51.935L40.355 51.917C40.4082 52.5469 40.3232 53.1807 40.1061 53.7744C39.889 54.368 39.545 54.9071 39.0981 55.3541C38.6511 55.801 38.112 56.1451 37.5183 56.3622C36.9247 56.5793 36.2908 56.6642 35.661 56.611L35.679 56.629C34.9256 56.5589 34.1689 56.7229 33.512 57.0985C32.8552 57.4742 32.3302 58.0434 32.0087 58.7283C31.6872 59.4133 31.5847 60.1808 31.7153 60.9261C31.846 61.6714 32.2033 62.3583 32.7386 62.8931C33.2739 63.4279 33.9611 63.7846 34.7065 63.9146C35.452 64.0445 36.2193 63.9414 36.904 63.6192C37.5887 63.2971 38.1573 62.7716 38.5324 62.1144C38.9075 61.4572 39.0708 60.7004 39 59.947L39.019 59.965C38.9658 59.3352 39.0507 58.7013 39.2678 58.1077C39.4849 57.514 39.829 56.9749 40.2759 56.528C40.7229 56.081 41.262 55.737 41.8556 55.5199C42.4493 55.3028 43.0831 55.2179 43.713 55.271L43.694 55.253C44.3094 55.3084 44.9289 55.2075 45.495 54.9597C46.061 54.7119 46.5554 54.3252 46.9322 53.8354C47.309 53.3457 47.5562 52.7688 47.6506 52.1581C47.7451 51.5474 47.6839 50.9228 47.4727 50.3421C47.2615 49.7613 46.9071 49.2433 46.4424 48.836C45.9777 48.4288 45.4177 48.1454 44.8143 48.0121C44.2109 47.8789 43.5836 47.9001 42.9906 48.0739C42.3976 48.2476 41.8581 48.5682 41.422 49.006H41.419Z" fill="#394149"/>
<path d="M34.042 54.271L34.023 54.253C34.5583 54.3069 35.0989 54.2412 35.6058 54.0606C36.1126 53.8801 36.573 53.5891 36.9536 53.2088C37.3341 52.8285 37.6255 52.3683 37.8064 51.8616C37.9874 51.355 38.0535 50.8144 38 50.279L38.019 50.297C37.9658 49.6672 38.0508 49.0333 38.2678 48.4396C38.4849 47.846 38.829 47.3069 39.2759 46.8599C39.7229 46.413 40.262 46.069 40.8556 45.8519C41.4493 45.6348 42.0831 45.5498 42.713 45.603L42.694 45.585C43.4475 45.6558 44.2044 45.4924 44.8616 45.1171C45.5189 44.7418 46.0443 44.173 46.3663 43.4881C46.6883 42.8032 46.7912 42.0357 46.661 41.2902C46.5308 40.5447 46.1738 39.8575 45.6386 39.3224C45.1035 38.7872 44.4163 38.4302 43.6708 38.3C42.9253 38.1698 42.1578 38.2727 41.4729 38.5947C40.788 38.9167 40.2192 39.4422 39.8439 40.0994C39.4686 40.7566 39.3052 41.5135 39.376 42.267L39.358 42.248C39.4113 42.8779 39.3265 43.5118 39.1095 44.1056C38.8925 44.6993 38.5484 45.2385 38.1015 45.6855C37.6545 46.1325 37.1153 46.4765 36.5216 46.6935C35.9278 46.9105 35.2939 46.9954 34.664 46.942L34.682 46.961C34.1467 46.9071 33.606 46.9728 33.0992 47.1534C32.5924 47.334 32.132 47.6249 31.7514 48.0052C31.3708 48.3855 31.0795 48.8457 30.8985 49.3524C30.7176 49.8591 30.6515 50.3996 30.705 50.935L30.687 50.917C30.74 51.5468 30.6549 52.1806 30.4378 52.7742C30.2206 53.3677 29.8766 53.9068 29.4297 54.3537C28.9828 54.8006 28.4437 55.1446 27.8502 55.3618C27.2566 55.579 26.6228 55.664 25.993 55.611L26.011 55.629C25.2575 55.5582 24.5005 55.7216 23.8433 56.0969C23.1861 56.4722 22.6607 57.041 22.3387 57.7259C22.0167 58.4108 21.9137 59.1783 22.044 59.9238C22.1742 60.6693 22.5312 61.3565 23.0664 61.8916C23.6015 62.4268 24.2887 62.7838 25.0342 62.914C25.7797 63.0443 26.5472 62.9413 27.2321 62.6193C27.917 62.2973 28.4858 61.7719 28.8611 61.1147C29.2364 60.4575 29.3998 59.7005 29.329 58.947L29.348 58.965C29.2948 58.3352 29.3798 57.7013 29.5969 57.1076C29.8139 56.514 30.158 55.9749 30.6049 55.5279C31.0519 55.081 31.591 54.737 32.1846 54.5199C32.7783 54.3028 33.4121 54.2178 34.042 54.271Z" fill="#394149"/>
<path d="M27.34 52.2637C27.719 51.8825 28.0092 51.4223 28.1898 50.916C28.3705 50.4097 28.4371 49.8697 28.385 49.3347L28.404 49.3527C28.3508 48.7227 28.4358 48.0886 28.653 47.4948C28.8702 46.901 29.2144 46.3618 29.6616 45.9148C30.1088 45.4678 30.6481 45.1238 31.242 44.9069C31.8359 44.6899 32.47 44.6052 33.1 44.6587L33.081 44.6407C33.8342 44.7113 34.5909 44.5478 35.2478 44.1725C35.9047 43.7973 36.4298 43.2286 36.7517 42.5439C37.0735 41.8593 37.1763 41.092 37.0461 40.3468C36.9159 39.6016 36.5589 38.9146 36.024 38.3797C35.4891 37.8448 34.8021 37.4878 34.0569 37.3576C33.3117 37.2274 32.5444 37.3302 31.8598 37.652C31.1751 37.9739 30.6064 38.499 30.2312 39.1559C29.8559 39.8128 29.6924 40.5695 29.763 41.3227L29.745 41.3047C29.7982 41.9346 29.7132 42.5684 29.4961 43.1621C29.279 43.7557 28.935 44.2948 28.4881 44.7418C28.0411 45.1887 27.502 45.5328 26.9084 45.7499C26.3147 45.9669 25.6808 46.0519 25.051 45.9987L25.069 46.0167C24.4536 45.9615 23.8342 46.0626 23.2682 46.3105C22.7022 46.5584 22.208 46.9452 21.8312 47.435C21.4545 47.9247 21.2075 48.5017 21.1132 49.1123C21.0188 49.723 21.0801 50.3476 21.2914 50.9282C21.5026 51.5089 21.8571 52.0268 22.3218 52.434C22.7865 52.8413 23.3465 53.1246 23.9499 53.2578C24.5533 53.3909 25.1805 53.3696 25.7735 53.1959C26.3664 53.0221 26.9059 52.7015 27.342 52.2637H27.34Z" fill="#394149"/>
<path d="M58.317 42.29H61.287V56.743H58.317V42.29Z" fill="#394149"/>
<path d="M62.969 51.7934C62.9649 50.7548 63.269 49.7382 63.8431 48.8726C64.4171 48.007 65.2351 47.3312 66.1935 46.9308C67.1519 46.5305 68.2075 46.4236 69.2267 46.6237C70.2459 46.8237 71.1828 47.3218 71.9187 48.0548C72.6546 48.7877 73.1564 49.7226 73.3606 50.741C73.5648 51.7594 73.4621 52.8155 73.0656 53.7755C72.6691 54.7354 71.9966 55.5562 71.1333 56.1336C70.2699 56.7111 69.2547 57.0194 68.216 57.0194C67.5266 57.0273 66.8424 56.8976 66.2037 56.638C65.5649 56.3784 64.9843 55.9941 64.4958 55.5075C64.0072 55.021 63.6206 54.4419 63.3585 53.8042C63.0963 53.1665 62.9639 52.4829 62.969 51.7934ZM70.493 51.7934C70.4806 51.3457 70.3365 50.9116 70.0788 50.5453C69.821 50.1791 69.461 49.8969 69.0438 49.7342C68.6265 49.5714 68.1706 49.5352 67.7329 49.6302C67.2952 49.7252 66.8952 49.947 66.5829 50.2681C66.2707 50.5891 66.0599 50.9951 65.9771 51.4353C65.8943 51.8754 65.9431 52.3302 66.1174 52.7428C66.2917 53.1553 66.5837 53.5074 66.9569 53.7549C67.3302 54.0024 67.7681 54.1344 68.216 54.1344C68.5227 54.1426 68.8278 54.0871 69.112 53.9715C69.3963 53.8559 69.6535 53.6827 69.8674 53.4628C70.0813 53.2428 70.2474 52.9809 70.355 52.6936C70.4627 52.4063 70.5097 52.0998 70.493 51.7934Z" fill="#394149"/>
<path d="M85.3 46.8436V56.2436C85.3 59.5696 82.706 60.9756 80.073 60.9756C79.1459 61.045 78.2177 60.8577 77.39 60.4344C76.5624 60.011 75.8673 59.3679 75.381 58.5756L77.915 57.1106C78.1194 57.5236 78.445 57.8643 78.8484 58.0872C79.2517 58.31 79.7135 58.4044 80.172 58.3576C80.465 58.3982 80.7634 58.3724 81.045 58.2821C81.3267 58.1918 81.5845 58.0393 81.7993 57.836C82.0141 57.6326 82.1804 57.3835 82.2859 57.1072C82.3915 56.8309 82.4335 56.5344 82.409 56.2396V55.3346C82.0612 55.7601 81.6185 56.0982 81.1165 56.3217C80.6144 56.5452 80.0669 56.6479 79.518 56.6216C78.2118 56.5804 76.9729 56.0326 76.0635 55.094C75.1541 54.1555 74.6456 52.8999 74.6456 51.5931C74.6456 50.2862 75.1541 49.0307 76.0635 48.0921C76.9729 47.1536 78.2118 46.6058 79.518 46.5646C80.0669 46.5382 80.6144 46.641 81.1165 46.8645C81.6185 47.088 82.0612 47.4261 82.409 47.8516V46.8416L85.3 46.8436ZM82.41 51.5946C82.4299 51.1159 82.3062 50.6423 82.0547 50.2346C81.8032 49.8268 81.4354 49.5037 80.9987 49.3068C80.562 49.1098 80.0763 49.0481 79.6042 49.1295C79.1321 49.2109 78.6952 49.4317 78.3497 49.7635C78.0042 50.0954 77.7658 50.523 77.6654 50.9914C77.565 51.4598 77.607 51.9476 77.7861 52.3919C77.9652 52.8362 78.2732 53.2168 78.6704 53.4846C79.0677 53.7524 79.5359 53.8952 80.015 53.8946C80.327 53.9164 80.6402 53.8725 80.9343 53.7659C81.2284 53.6593 81.4969 53.4923 81.7225 53.2757C81.9481 53.059 82.1259 52.7975 82.2443 52.5079C82.3627 52.2184 82.4191 51.9073 82.41 51.5946Z" fill="#394149"/>
<path d="M86.982 51.7934C86.9779 50.7548 87.282 49.7382 87.8561 48.8726C88.4301 48.007 89.2481 47.3312 90.2065 46.9308C91.1649 46.5305 92.2205 46.4236 93.2397 46.6237C94.2589 46.8237 95.1958 47.3218 95.9317 48.0548C96.6676 48.7877 97.1694 49.7226 97.3736 50.741C97.5778 51.7594 97.4751 52.8155 97.0786 53.7755C96.6821 54.7354 96.0096 55.5562 95.1463 56.1336C94.2829 56.7111 93.2677 57.0194 92.229 57.0194C91.5396 57.0273 90.8554 56.8976 90.2167 56.638C89.5779 56.3784 88.9973 55.9941 88.5088 55.5075C88.0202 55.021 87.6336 54.4419 87.3715 53.8042C87.1093 53.1665 86.9769 52.4829 86.982 51.7934ZM94.506 51.7934C94.4936 51.3457 94.3495 50.9116 94.0918 50.5453C93.834 50.1791 93.474 49.8969 93.0568 49.7342C92.6395 49.5714 92.1835 49.5352 91.7459 49.6302C91.3082 49.7252 90.9082 49.947 90.5959 50.2681C90.2837 50.5891 90.0729 50.9951 89.9901 51.4353C89.9073 51.8754 89.9561 52.3302 90.1304 52.7428C90.3047 53.1553 90.5967 53.5074 90.9699 53.7549C91.3432 54.0024 91.7811 54.1344 92.229 54.1344C92.5357 54.1426 92.8408 54.0871 93.1251 53.9715C93.4093 53.8559 93.6665 53.6827 93.8804 53.4628C94.0943 53.2428 94.2604 52.9809 94.368 52.6936C94.4757 52.4063 94.5227 52.0998 94.506 51.7934Z" fill="#394149"/>
<path d="M98.861 44.1912C98.861 43.8387 98.9655 43.4942 99.1613 43.2012C99.3572 42.9081 99.6355 42.6797 99.9611 42.5448C100.287 42.41 100.645 42.3747 100.991 42.4434C101.336 42.5122 101.654 42.6819 101.903 42.9311C102.152 43.1803 102.322 43.4979 102.391 43.8435C102.46 44.1892 102.424 44.5475 102.289 44.8731C102.155 45.1987 101.926 45.4771 101.633 45.6729C101.34 45.8687 100.995 45.9732 100.643 45.9732C100.172 45.9685 99.7213 45.7792 99.3881 45.4461C99.055 45.1129 98.8657 44.6623 98.861 44.1912ZM99.161 46.8442H102.132V56.7442H99.157L99.161 46.8442Z" fill="#394149"/>
<path d="M114.956 51.794C114.99 52.4483 114.895 53.1029 114.675 53.7202C114.456 54.3375 114.116 54.9053 113.677 55.391C113.237 55.8767 112.706 56.2706 112.113 56.5502C111.52 56.8298 110.878 56.9894 110.224 57.02C109.674 57.0501 109.123 56.9573 108.613 56.7483C108.103 56.5394 107.646 56.2196 107.275 55.812V60.703H104.305V46.844H107.275V47.774C107.646 47.3668 108.104 47.0473 108.614 46.8385C109.124 46.6298 109.674 46.537 110.224 46.567C110.879 46.5975 111.521 46.7571 112.113 47.0367C112.706 47.3163 113.238 47.7103 113.677 48.1961C114.117 48.6819 114.457 49.2499 114.676 49.8674C114.895 50.4849 114.991 51.1396 114.956 51.794ZM111.986 51.794C111.974 51.3307 111.826 50.8811 111.561 50.5015C111.295 50.1219 110.923 49.8291 110.491 49.6598C110.06 49.4905 109.588 49.4523 109.135 49.5498C108.682 49.6474 108.268 49.8764 107.944 50.2082C107.62 50.54 107.402 50.9599 107.316 51.4153C107.23 51.8707 107.28 52.3414 107.46 52.7684C107.64 53.1955 107.942 53.56 108.328 53.8162C108.714 54.0724 109.168 54.2091 109.631 54.209C109.949 54.2232 110.267 54.1699 110.563 54.0528C110.859 53.9356 111.127 53.7571 111.35 53.5291C111.572 53.3011 111.744 53.0286 111.853 52.7296C111.963 52.4306 112.008 52.1118 111.986 51.794Z" fill="#394149"/>
<path d="M124.121 53.7726C124.121 56.0496 122.142 57.0196 120.004 57.0196C119.14 57.0979 118.273 56.9152 117.514 56.4952C116.755 56.0752 116.139 55.4371 115.747 54.6636L118.32 53.1986C118.424 53.5562 118.648 53.8672 118.953 54.0798C119.259 54.2923 119.629 54.3936 120 54.3666C120.712 54.3666 121.069 54.1486 121.069 53.7536C121.069 52.6636 116.198 53.2386 116.198 49.8136C116.198 47.6546 118.02 46.5666 120.079 46.5666C120.853 46.5421 121.619 46.7257 122.298 47.0982C122.977 47.4708 123.544 48.0186 123.939 48.6846L121.405 50.0506C121.294 49.7913 121.109 49.5704 120.873 49.4155C120.637 49.2607 120.361 49.1786 120.079 49.1796C119.564 49.1796 119.247 49.3796 119.247 49.7336C119.251 50.8626 124.121 50.1096 124.121 53.7726Z" fill="#394149"/>
<path d="M134.97 46.8438V56.7438H132V55.8128C131.657 56.2236 131.222 56.5472 130.73 56.7572C130.238 56.9672 129.704 57.0575 129.17 57.0208C127.17 57.0208 125.47 55.5957 125.47 52.9207V46.8438H128.44V52.4858C128.415 52.7215 128.442 52.9599 128.519 53.1843C128.595 53.4086 128.72 53.6136 128.884 53.7849C129.048 53.9562 129.247 54.0898 129.468 54.1763C129.688 54.2628 129.925 54.3001 130.162 54.2858C131.251 54.2858 132.003 53.6528 132.003 52.2467V46.8468L134.97 46.8438Z" fill="#394149"/>
<path d="M152 50.6645V56.7425H149.03V50.9215C149.03 49.9315 148.555 49.2985 147.605 49.2985C146.615 49.2985 146.06 49.9915 146.06 51.1595V56.7425H143.091V50.9215C143.091 49.9315 142.616 49.2985 141.665 49.2985C140.675 49.2985 140.121 49.9915 140.121 51.1595V56.7425H137.151V46.8425H140.121V47.7525C140.429 47.3488 140.833 47.0286 141.296 46.8213C141.76 46.6139 142.268 46.526 142.774 46.5655C143.282 46.5406 143.788 46.6479 144.243 46.8768C144.697 47.1056 145.084 47.4484 145.367 47.8715C145.696 47.4288 146.132 47.0768 146.634 46.8484C147.136 46.62 147.688 46.5227 148.238 46.5655C150.511 46.5665 152 48.1895 152 50.6645Z" fill="#394149"/>
<path d="M154.512 46.783C155.729 46.783 156.716 45.7962 156.716 44.579C156.716 43.3618 155.729 42.375 154.512 42.375C153.295 42.375 152.308 43.3618 152.308 44.579C152.308 45.7962 153.295 46.783 154.512 46.783Z" fill="#394149"/>
</svg>
