<svg width="178" height="101" viewBox="0 0 178 101" fill="none" xmlns="http://www.w3.org/2000/svg">
<path d="M45.056 32.6348C42.7579 32.6348 40.4822 33.0875 38.359 33.9669C36.2358 34.8464 34.3067 36.1354 32.6816 37.7604C31.0566 39.3855 29.7676 41.3146 28.8881 43.4378C28.0087 45.561 27.556 47.8367 27.556 50.1348C27.556 52.4329 28.0087 54.7086 28.8881 56.8318C29.7676 58.955 31.0566 60.8841 32.6816 62.5092C34.3067 64.1342 36.2358 65.4232 38.359 66.3027C40.4822 67.1821 42.7579 67.6348 45.056 67.6348V58.8848C43.9069 58.8848 42.7691 58.6585 41.7075 58.2187C40.6459 57.779 39.6813 57.1345 38.8688 56.322C38.0563 55.5095 37.4118 54.5449 36.9721 53.4833C36.5323 52.4217 36.306 51.2839 36.306 50.1348C36.306 48.9857 36.5323 47.8479 36.9721 46.7863C37.4118 45.7247 38.0563 44.7601 38.8688 43.9476C39.6813 43.1351 40.6459 42.4906 41.7075 42.0509C42.7691 41.6111 43.9069 41.3848 45.056 41.3848V32.6348Z" fill="#0F52FF"/>
<path d="M45.0561 55.9684C48.2778 55.9684 50.8894 53.3567 50.8894 50.1351C50.8894 46.9134 48.2778 44.3018 45.0561 44.3018C41.8344 44.3018 39.2228 46.9134 39.2228 50.1351C39.2228 53.3567 41.8344 55.9684 45.0561 55.9684Z" fill="#0F52FF"/>
<path d="M27.556 50.1348C27.556 52.4329 28.0087 54.7086 28.8881 56.8318C29.7676 58.955 31.0566 60.8841 32.6816 62.5092C34.3067 64.1342 36.2358 65.4232 38.359 66.3027C40.4822 67.1821 42.7579 67.6348 45.056 67.6348C47.3541 67.6348 49.6298 67.1821 51.753 66.3027C53.8762 65.4232 55.8053 64.1342 57.4304 62.5092C59.0554 60.8841 60.3444 58.955 61.2239 56.8318C62.1033 54.7086 62.556 52.4329 62.556 50.1348H53.806C53.806 51.2839 53.5797 52.4217 53.1399 53.4833C52.7002 54.5449 52.0557 55.5095 51.2432 56.322C50.4307 57.1345 49.4661 57.779 48.4045 58.2187C47.3429 58.6585 46.2051 58.8848 45.056 58.8848C43.9069 58.8848 42.7691 58.6585 41.7075 58.2187C40.6459 57.779 39.6813 57.1345 38.8688 56.322C38.0563 55.5095 37.4118 54.5449 36.9721 53.4833C36.5323 52.4217 36.306 51.2839 36.306 50.1348H27.556Z" fill="#5BD0F4"/>
<path d="M50.8894 50.1352C50.8894 48.5881 50.2748 47.1044 49.1809 46.0104C48.0869 44.9164 46.6032 44.3018 45.0561 44.3018C43.509 44.3018 42.0253 44.9164 40.9313 46.0104C39.8373 47.1044 39.2227 48.5881 39.2227 50.1352H45.0561H50.8894Z" fill="#5BD0F4"/>
<path d="M71.6957 43.5596H69.5222V55.6346H71.6957V43.5596Z" fill="#0F52FF"/>
<path d="M73.1149 51.3564C73.1149 54.1509 75.0469 55.8759 77.5999 55.8759C80.1529 55.8759 82.0849 54.1509 82.0849 51.3564C82.0849 48.5619 80.1529 46.8369 77.5999 46.8369C75.0469 46.8369 73.1149 48.5619 73.1149 51.3564ZM75.2884 51.3564C75.2884 49.7004 76.2544 48.7344 77.5999 48.7344C78.9454 48.7344 79.9114 49.7004 79.9114 51.3564C79.9114 53.0124 78.9454 53.9784 77.5999 53.9784C76.2544 53.9784 75.2884 53.0124 75.2884 51.3564Z" fill="#0F52FF"/>
<path d="M89.852 47.0784V48.2341H89.6795C89.162 47.4924 88.334 46.8369 86.8505 46.8369C84.815 46.8369 82.9865 48.5619 82.9865 51.2184C82.9865 53.8749 84.815 55.5999 86.8505 55.5999C88.334 55.5999 89.162 54.9271 89.645 54.2544H89.8175V55.0824C89.8175 56.7384 88.8515 57.4974 87.437 57.4974C86.0225 57.4974 85.298 56.7384 85.0047 55.7551L83.0555 56.6004C83.504 57.8941 84.815 59.3259 87.4715 59.3259C90.197 59.3259 91.991 57.8941 91.991 55.1341V47.0784H89.852ZM87.506 53.7369C86.1605 53.7369 85.16 52.7709 85.16 51.2184C85.16 49.6659 86.1605 48.6999 87.506 48.6999C88.8515 48.6999 89.852 49.6659 89.852 51.2184C89.852 52.7709 88.8515 53.7369 87.506 53.7369Z" fill="#0F52FF"/>
<path d="M93.3972 51.3564C93.3972 54.1509 95.3292 55.8759 97.8822 55.8759C100.435 55.8759 102.367 54.1509 102.367 51.3564C102.367 48.5619 100.435 46.8369 97.8822 46.8369C95.3292 46.8369 93.3972 48.5619 93.3972 51.3564ZM95.5707 51.3564C95.5707 49.7004 96.5367 48.7344 97.8822 48.7344C99.2277 48.7344 100.194 49.7004 100.194 51.3564C100.194 53.0124 99.2277 53.9784 97.8822 53.9784C96.5367 53.9784 95.5707 53.0124 95.5707 51.3564Z" fill="#0F52FF"/>
<path d="M104.073 44.5948C104.073 45.4746 104.746 46.0783 105.609 46.0783C106.471 46.0783 107.144 45.4746 107.144 44.5948C107.144 43.7151 106.471 43.1113 105.609 43.1113C104.746 43.1113 104.073 43.7151 104.073 44.5948ZM106.695 47.0788H104.522V55.6348H106.695V47.0788Z" fill="#5BD0F4"/>
<path d="M108.632 59.0844H110.806V54.5304H110.978C111.461 55.2204 112.289 55.8759 113.773 55.8759C115.808 55.8759 117.637 54.1509 117.637 51.3564C117.637 48.5619 115.808 46.8369 113.773 46.8369C112.289 46.8369 111.461 47.4924 110.944 48.2342H110.771V47.0784H108.632V59.0844ZM113.117 54.0129C111.772 54.0129 110.771 53.0469 110.771 51.3564C110.771 49.6659 111.772 48.6999 113.117 48.6999C114.463 48.6999 115.463 49.6659 115.463 51.3564C115.463 53.0469 114.463 54.0129 113.117 54.0129Z" fill="#5BD0F4"/>
<path d="M118.905 49.4762C118.905 51.1667 120.319 51.7877 122.113 52.1327L122.562 52.2189C123.631 52.4259 124.114 52.6847 124.114 53.2367C124.114 53.7887 123.631 54.2199 122.631 54.2199C121.63 54.2199 120.82 53.8059 120.595 52.5639L118.594 53.0814C118.888 54.8754 120.388 55.8759 122.631 55.8759C124.804 55.8759 126.219 54.8582 126.219 53.0642C126.219 51.2701 124.77 50.7872 122.838 50.4077L122.389 50.3214C121.492 50.1489 121.009 49.9074 121.009 49.3382C121.009 48.8207 121.458 48.4929 122.286 48.4929C123.114 48.4929 123.7 48.8379 123.907 49.7694L125.874 49.1657C125.46 47.7857 124.201 46.8369 122.286 46.8369C120.25 46.8369 118.905 47.7857 118.905 49.4762Z" fill="#5BD0F4"/>
<path d="M135.982 55.6351V47.0791H133.809V51.4951C133.809 53.0821 133.033 54.0136 131.704 54.0136C130.531 54.0136 129.876 53.3754 129.876 52.0816V47.0791H127.702V52.1851C127.702 54.3069 129.031 55.7731 131.032 55.7731C132.601 55.7731 133.326 55.0831 133.671 54.3586H133.843V55.6351H135.982Z" fill="#5BD0F4"/>
<path d="M137.91 47.0784V55.6344H140.084V50.5284C140.084 49.3554 140.636 48.6999 141.636 48.6999C142.499 48.6999 143.016 49.1829 143.016 50.1144V55.6344H145.19V50.5284C145.19 49.3554 145.742 48.6999 146.742 48.6999C147.605 48.6999 148.122 49.1829 148.122 50.1144V55.6344H150.296V50.0109C150.296 47.9409 149.019 46.9404 147.432 46.9404C146.035 46.9404 145.397 47.5614 144.983 48.2859H144.81C144.413 47.4752 143.706 46.9404 142.464 46.9404C141.222 46.9404 140.549 47.4924 140.222 48.1479H140.049V47.0784H137.91Z" fill="#5BD0F4"/>
</svg>
