<svg width="36" height="36" viewBox="0 0 36 36" fill="none" xmlns="http://www.w3.org/2000/svg">
  <rect width="36" height="36" fill="none" />
  <path d="M36 9H0V27.9474H36V9Z" fill="#B22234" />
  <path d="M0 11.1863H36H0ZM36 14.1013H0H36ZM0 17.0162H36H0ZM36 19.9312H0H36ZM0 22.8462H36H0ZM36 25.7612H0Z" fill="black" />
  <path fill-rule="evenodd" clip-rule="evenodd" d="M0 10.4575H36V11.915H0V10.4575ZM36 14.83H0V13.3725H36V14.83ZM0 16.2874H36V17.7449H0V16.2874ZM36 20.6599H0V19.2024H36V20.6599ZM0 22.1174H36V23.5749H0V22.1174ZM0 25.0324H36V26.4899H0V25.0324Z" fill="white" />
  <path d="M14.4 9H0V19.2024H14.4V9Z" fill="#3C3B6E" />
  <path d="M7.03153 10.0526L9.42568 17.4211L3.15771 12.8671H10.9053L4.63738 17.4211L7.03153 10.0526Z" fill="white" />
</svg>
