<svg width="420" height="420" viewBox="0 0 420 420" fill="none" xmlns="http://www.w3.org/2000/svg">
<g clip-path="url(#clip0)">
<path opacity="0.1" d="M336.69 49.2495C375.912 80.624 403.174 127.79 400.497 171.602C397.82 215.321 365.102 255.685 340.325 302.279C315.547 348.872 298.522 401.865 265.896 415.449C233.183 429.036 184.774 403.204 138.282 382.062C91.7887 360.828 47.2118 344.182 22.6267 311.273C-1.9625 278.459 -6.74397 229.281 9.42435 191.882C25.5927 154.484 62.6146 128.744 96.955 96.5037C131.396 64.2675 163.147 25.6183 204.674 14.0432C246.201 2.46805 297.371 17.8708 336.69 49.2495Z" fill="white"/>
<path opacity="0.15" d="M59.2433 0.266488C55.3922 3.28039 51.9985 7.20106 49.1088 11.9224C48.747 12.5135 48.9329 13.2861 49.524 13.6479C50.1152 14.0098 50.8878 13.8238 51.2496 13.2327C53.9887 8.75755 57.1858 5.06399 60.7902 2.24309C61.3361 1.81593 61.4323 1.02716 61.0051 0.481336C60.5779 -0.0644883 59.7892 -0.160679 59.2433 0.266488ZM42.7829 25.8861C41.2715 30.4942 40.1002 35.47 39.2845 40.726C39.1782 41.4109 39.6472 42.0523 40.3322 42.1586C41.0171 42.2649 41.6585 41.7959 41.7648 41.111C42.5601 35.9864 43.7001 31.1433 45.1678 26.6684C45.3838 26.0098 45.025 25.3008 44.3665 25.0848C43.7079 24.8688 42.9989 25.2275 42.7829 25.8861ZM37.9486 55.883C37.8203 60.8572 37.9762 65.9429 38.4156 71.071C38.4748 71.7616 39.0826 72.2734 39.7732 72.2142C40.4638 72.155 40.9756 71.5473 40.9164 70.8567C40.4849 65.8207 40.3318 60.8281 40.4577 55.9477C40.4756 55.2549 39.9284 54.6787 39.2355 54.6608C38.5426 54.6429 37.9665 55.1901 37.9486 55.883ZM40.5057 86.1114C41.4655 91.0957 42.6848 96.0285 44.1551 100.856C44.357 101.52 45.0582 101.893 45.7212 101.691C46.3843 101.49 46.7581 100.788 46.5562 100.125C45.1117 95.3821 43.9136 90.535 42.9703 85.6368C42.8393 84.9562 42.1813 84.5107 41.5007 84.6418C40.8201 84.7728 40.3746 85.4308 40.5057 86.1114ZM49.3706 115.115C51.4093 119.841 53.6988 124.38 56.2274 128.69C56.5781 129.288 57.347 129.488 57.9448 129.137C58.5427 128.787 58.743 128.018 58.3923 127.42C55.9166 123.2 53.6736 118.754 51.6753 114.121C51.4008 113.484 50.6623 113.191 50.0259 113.465C49.3894 113.74 49.0961 114.478 49.3706 115.115ZM64.8205 141.279C68.0348 145.333 71.4967 149.067 75.1942 152.452C75.7054 152.92 76.4992 152.885 76.9672 152.374C77.4353 151.863 77.4002 151.069 76.889 150.601C73.2913 147.307 69.92 143.671 66.7873 139.719C66.3566 139.176 65.5673 139.085 65.0242 139.516C64.4811 139.946 64.3899 140.736 64.8205 141.279ZM87.3271 161.748C91.6442 164.477 96.1878 166.79 100.948 168.668C101.592 168.923 102.321 168.606 102.576 167.961C102.83 167.317 102.514 166.588 101.869 166.333C97.2563 164.514 92.8531 162.272 88.6682 159.627C88.0823 159.256 87.3071 159.431 86.9368 160.017C86.5665 160.603 86.7413 161.378 87.3271 161.748ZM115.594 172.922C120.806 173.934 125.823 174.612 130.661 174.966C131.353 175.016 131.954 174.497 132.004 173.806C132.055 173.114 131.536 172.513 130.844 172.462C126.107 172.116 121.188 171.452 116.072 170.458C115.392 170.326 114.733 170.771 114.601 171.451C114.469 172.131 114.913 172.79 115.594 172.922ZM145.901 174.979C151.128 174.579 156.137 173.751 160.965 172.51C161.637 172.338 162.041 171.654 161.869 170.982C161.696 170.311 161.012 169.907 160.341 170.079C155.654 171.284 150.791 172.087 145.709 172.476C145.018 172.529 144.501 173.132 144.554 173.823C144.607 174.514 145.21 175.031 145.901 174.979ZM175.344 167.383C179.865 165.299 184.256 162.813 188.623 159.904C189.199 159.52 189.356 158.741 188.971 158.164C188.587 157.587 187.808 157.431 187.231 157.815C182.969 160.654 178.692 163.076 174.293 165.104C173.663 165.394 173.388 166.139 173.678 166.769C173.969 167.398 174.714 167.673 175.344 167.383ZM200.759 150.744L201.338 150.257L201.918 149.766L202.5 149.27L203.377 148.514L203.967 148.002L204.562 147.481L205.162 146.952L205.769 146.414L206.384 145.865L207.007 145.305L207.961 144.442L208.609 143.851L209.605 142.939L210.631 141.992L211.333 141.341L212.051 140.673C212.558 140.201 212.585 139.407 212.113 138.9C211.64 138.393 210.846 138.365 210.339 138.838L209.276 139.826L207.911 141.086L206.923 141.992L205.962 142.866L205.334 143.434L204.411 144.262L203.805 144.801L202.911 145.591L202.322 146.106L201.738 146.614L201.159 147.114L200.582 147.608L200.008 148.096L199.148 148.819C198.617 149.264 198.546 150.055 198.991 150.587C199.436 151.118 200.227 151.189 200.759 150.744ZM223.025 130.391L224.141 129.366L225.226 128.378L225.933 127.739L226.627 127.116L227.311 126.507L227.984 125.912L228.647 125.33C228.757 125.234 228.867 125.139 228.976 125.044L229.627 124.48L230.27 123.928L230.907 123.387L231.538 122.856L232.164 122.335L232.786 121.822C232.889 121.737 232.993 121.653 233.096 121.569L233.713 121.068L234.329 120.575C234.871 120.143 234.96 119.353 234.528 118.811C234.095 118.269 233.306 118.18 232.764 118.612L232.452 118.862L231.826 119.366L231.198 119.878L230.567 120.398L229.933 120.927L229.293 121.465L228.648 122.013L227.997 122.572L227.338 123.142L226.671 123.725L225.995 124.32L225.309 124.928L224.26 125.868L223.546 126.513L222.819 127.174L222.078 127.852L221.323 128.546C220.814 129.016 220.782 129.81 221.252 130.319C221.722 130.829 222.516 130.861 223.025 130.391ZM246.554 112.113C250.985 109.55 255.438 107.551 260.038 106.107C260.7 105.899 261.067 105.194 260.86 104.533C260.652 103.872 259.947 103.504 259.286 103.712C254.503 105.214 249.882 107.288 245.297 109.94C244.697 110.287 244.492 111.054 244.839 111.654C245.186 112.254 245.954 112.46 246.554 112.113ZM274.515 103.444C278.591 103.194 282.822 103.328 287.238 103.861C287.923 103.944 288.602 104.034 289.277 104.131C289.963 104.231 290.599 103.755 290.699 103.069C290.798 102.383 290.322 101.746 289.636 101.647C288.942 101.547 288.243 101.454 287.539 101.369C282.973 100.818 278.591 100.679 274.361 100.939C273.67 100.982 273.143 101.577 273.186 102.269C273.228 102.961 273.823 103.487 274.515 103.444ZM303.693 107.555C308.484 109.183 312.968 111.251 317.114 113.726C317.709 114.082 318.48 113.887 318.835 113.292C319.19 112.697 318.996 111.927 318.401 111.572C314.103 109.005 309.458 106.864 304.501 105.178C303.845 104.955 303.132 105.306 302.909 105.963C302.686 106.619 303.037 107.332 303.693 107.555ZM328.834 122.667C332.4 126.105 335.525 129.929 338.172 134.073C338.545 134.657 339.321 134.828 339.905 134.455C340.489 134.082 340.66 133.306 340.287 132.722C337.535 128.412 334.284 124.435 330.576 120.86C330.077 120.379 329.282 120.393 328.801 120.892C328.32 121.391 328.335 122.186 328.834 122.667ZM344.618 147.37C346.234 152.002 347.327 156.828 347.877 161.759C347.953 162.447 348.574 162.943 349.263 162.867C349.952 162.79 350.448 162.169 350.371 161.48C349.8 156.364 348.666 151.353 346.988 146.543C346.76 145.889 346.044 145.544 345.39 145.772C344.735 146 344.39 146.716 344.618 147.37ZM347.909 176.488C347.393 181.361 346.358 186.203 344.812 190.935C344.597 191.594 344.956 192.303 345.615 192.518C346.274 192.733 346.982 192.374 347.198 191.715C348.799 186.815 349.871 181.801 350.405 176.752C350.478 176.063 349.979 175.445 349.289 175.372C348.6 175.299 347.982 175.799 347.909 176.488ZM338.795 204.478C336.378 208.71 333.522 212.753 330.243 216.561C329.791 217.086 329.85 217.878 330.376 218.331C330.901 218.783 331.693 218.724 332.145 218.198C335.529 214.269 338.478 210.095 340.974 205.723C341.318 205.121 341.109 204.355 340.507 204.011C339.905 203.667 339.139 203.877 338.795 204.478Z" fill="white"/>
<path d="M145.698 213.38C141.097 211.619 118.122 193.083 116.332 190.159C114.541 187.234 102.653 168.648 102.653 168.648L122.665 153.388C122.665 153.388 140.695 169.594 144.205 172.857C147.715 176.12 161.277 181.328 162.749 181.324C164.222 181.319 145.698 213.38 145.698 213.38Z" fill="white"/>
<path d="M100.688 165.598C101.266 165.354 101.932 165.625 102.176 166.203L102.212 166.285L102.291 166.462L102.381 166.655L102.536 166.972L102.652 167.2L102.843 167.569L103.055 167.966L103.287 168.389L103.623 168.992L104.085 169.8L104.483 170.485L104.904 171.199L105.346 171.938L105.922 172.889L106.519 173.864L107.008 174.654L107.505 175.449L108.179 176.515L108.787 177.467L109.392 178.402L109.75 178.952L110.453 180.017L110.908 180.697L111.13 181.026L111.563 181.661L111.977 182.26L112.371 182.82L112.652 183.211L112.831 183.458L113.087 183.805L113.249 184.02L113.478 184.318L113.621 184.498L113.756 184.664L113.882 184.815L113.999 184.95C114.018 184.972 114.036 184.992 114.054 185.012L114.158 185.122C114.174 185.139 114.19 185.156 114.206 185.171L114.288 185.252L114.487 185.442L114.729 185.666L115.17 186.064L115.513 186.369L116.097 186.88L116.994 187.657L117.747 188.303L119.139 189.486L120.675 190.781L122.327 192.164L124.064 193.61L125.857 195.096L126.584 195.695L128.044 196.896L130.219 198.677L131.639 199.832L133.016 200.947L134.656 202.267L135.585 203.01L136.465 203.709L137.29 204.36L138.054 204.957L138.75 205.495L139.173 205.819L139.561 206.112L139.912 206.374L140.225 206.603C140.274 206.638 140.321 206.672 140.367 206.705L140.618 206.881C140.772 206.986 140.897 207.067 140.99 207.121C141.534 207.434 141.721 208.128 141.407 208.672C141.094 209.215 140.4 209.402 139.856 209.089C139.755 209.03 139.622 208.945 139.461 208.835L139.197 208.652C139.15 208.618 139.101 208.583 139.05 208.547L138.725 208.311C138.668 208.269 138.609 208.226 138.549 208.181L138.167 207.896L137.75 207.58L137.062 207.052L136.304 206.464L135.483 205.82L134.301 204.884L133.032 203.871L131.691 202.793L129.938 201.374L128.856 200.494L127.39 199.297L125.174 197.477L123.343 195.965L121.558 194.482L120.182 193.333L118.553 191.964L117.05 190.693L115.959 189.762L114.983 188.921L114.336 188.356L113.947 188.015L113.436 187.558L113.144 187.293L112.894 187.061C112.78 186.954 112.682 186.859 112.601 186.779C112.49 186.668 112.363 186.528 112.221 186.362L112.044 186.15L111.853 185.913L111.649 185.653L111.321 185.222L111.089 184.908L110.845 184.575L110.592 184.223L110.196 183.663L109.781 183.067L109.496 182.652L109.056 182.004L108.756 181.558L108.296 180.868L107.985 180.397L107.354 179.432L106.716 178.444L106.236 177.692L105.756 176.935L105.281 176.178L104.656 175.171L104.197 174.425L103.749 173.688L103.314 172.966L102.895 172.262L102.625 171.804L102.236 171.137L101.868 170.498L101.636 170.089L101.415 169.694L101.107 169.132L100.917 168.779L100.74 168.445L100.578 168.13L100.43 167.835C100.384 167.741 100.34 167.65 100.298 167.562L100.183 167.312L100.084 167.086C99.8396 166.508 100.11 165.842 100.688 165.598Z" fill="#1B3C87"/>
<path d="M291.573 336.883C286.863 338.974 202.398 358.347 187.744 358.523C191.12 377.423 203.662 414.399 204.54 418.151C212.041 416.331 303.399 381.966 306.784 379.711C303.977 374.302 293.125 347.876 291.573 336.883Z" fill="#2A2F36"/>
<path d="M33.7015 127.192L193 41.0596C209.404 32.1902 229.892 38.2979 238.761 54.7016C247.631 71.1053 241.523 91.5933 225.119 100.463L65.8207 186.595C49.417 195.465 28.929 189.357 20.0596 172.953C11.1901 156.55 17.2978 136.062 33.7015 127.192Z" fill="#2C353F"/>
<path d="M105.789 108.735C105.976 108.152 106.6 107.832 107.183 108.019C107.744 108.199 108.062 108.783 107.919 109.346L107.9 109.413L102.721 125.542L118.846 130.717C119.407 130.897 119.725 131.481 119.582 132.044L119.563 132.111C119.383 132.672 118.799 132.99 118.236 132.847L118.168 132.828L100.988 127.315C100.427 127.135 100.109 126.551 100.252 125.988L100.271 125.92L105.789 108.735Z" fill="white"/>
<path d="M146.061 88.0365C146.241 87.476 146.825 87.1579 147.388 87.3006L147.456 87.32L164.636 92.8377C165.197 93.0177 165.515 93.6017 165.372 94.1645L165.353 94.2319L159.839 111.413C159.652 111.996 159.028 112.316 158.445 112.129C157.884 111.95 157.566 111.365 157.709 110.803L157.728 110.735L162.903 94.6098L146.778 89.4309C146.217 89.2509 145.899 88.6668 146.042 88.1039L146.061 88.0365Z" fill="white"/>
<path d="M122.606 85.7252C123.178 85.5868 123.754 85.9196 123.925 86.4745L123.944 86.5421L136.301 137.645C136.445 138.24 136.079 138.839 135.484 138.983C134.912 139.121 134.336 138.788 134.165 138.234L134.146 138.166L121.789 87.0632C121.645 86.4681 122.011 85.8691 122.606 85.7252Z" fill="white"/>
<path d="M107.509 88.6182C104.301 81.6363 84.263 89.003 75.7166 96.1104C78.0927 103.921 80.5064 110.794 81.8827 112.354C83.5686 112.53 108.564 99.8795 107.509 88.6182Z" fill="white"/>
<path d="M198.437 194.714C186.506 185.093 170.07 178.65 165.318 176.688C161.863 178.182 157.42 186.072 153.504 195.024C146.502 208.172 144.301 224.152 144.301 224.152C155.144 230.891 177.638 235.196 181.603 235.196C185.569 235.196 198.437 194.714 198.437 194.714Z" fill="#46DBC9"/>
<path d="M220.487 184.616C262.437 174.555 281.609 294.707 290.72 336.468C281.797 343.111 202.645 363.04 186.891 358.087C157.851 281.609 147.773 202.052 220.487 184.616Z" fill="#46DBC9"/>
<path d="M216.882 179.355C182.277 187.652 164.302 210.267 161.081 244.925C158.362 274.177 166.176 311.287 182.508 354.298C182.629 354.615 182.888 354.86 183.212 354.962C188.037 356.479 198.668 355.843 212.787 353.561L214.1 353.346C216.305 352.98 218.591 352.575 220.949 352.133L222.372 351.863L223.813 351.585C224.054 351.538 224.296 351.491 224.539 351.443L226.004 351.152C226.25 351.103 226.496 351.053 226.743 351.003L228.232 350.699C228.481 350.648 228.731 350.596 228.982 350.544L230.494 350.228L232.021 349.903C233.043 349.684 234.075 349.46 235.116 349.23L236.685 348.881L238.266 348.524L239.679 348.201C239.914 348.147 240.149 348.093 240.383 348.039L241.788 347.712C242.022 347.657 242.255 347.602 242.488 347.548L243.882 347.217C244.114 347.162 244.346 347.106 244.577 347.051L245.96 346.717L247.334 346.382L248.698 346.044L250.053 345.706L251.397 345.366L252.729 345.026L254.048 344.684L255.355 344.342C255.572 344.285 255.788 344.228 256.003 344.171L257.289 343.829L258.56 343.486C258.771 343.429 258.98 343.372 259.19 343.315L260.437 342.973L261.667 342.632L262.881 342.291L264.076 341.952L265.252 341.613C265.446 341.557 265.64 341.501 265.832 341.444L266.979 341.108L268.105 340.774L269.209 340.441L270.291 340.11C270.47 340.056 270.648 340.001 270.824 339.946L271.872 339.619C272.045 339.565 272.216 339.511 272.387 339.457L273.398 339.134C273.565 339.08 273.73 339.027 273.895 338.974L274.869 338.656L275.816 338.341C276.128 338.236 276.435 338.132 276.737 338.029L277.63 337.722C278.07 337.569 278.499 337.418 278.917 337.268L279.738 336.971L280.529 336.678C284.149 335.323 286.762 334.122 288.035 333.174C288.384 332.914 288.549 332.474 288.456 332.049L288.099 330.375L287.148 325.819L284.901 314.894L282.318 302.298L282.173 301.6L281.519 298.489L281.034 296.201L280.552 293.951L280.073 291.735L279.596 289.553L279.122 287.402L278.806 285.985L278.491 284.58L278.019 282.497L277.548 280.439L277.076 278.405L276.761 277.061L276.288 275.063L275.972 273.742L275.496 271.776L275.018 269.825L274.698 268.533L274.376 267.248L274.053 265.967L273.728 264.692L273.402 263.421L273.037 262.015L272.634 260.48L272.23 258.959L271.825 257.451L271.419 255.955L271.011 254.473C270.943 254.228 270.875 253.982 270.807 253.737L270.397 252.275L269.985 250.826C269.848 250.345 269.711 249.867 269.573 249.39L269.159 247.968C269.089 247.732 269.02 247.496 268.951 247.261L268.534 245.859C268.256 244.928 267.977 244.006 267.697 243.093L267.276 241.73C267.135 241.278 266.994 240.828 266.853 240.381L266.429 239.045L266.003 237.722C265.932 237.503 265.861 237.284 265.789 237.066L265.361 235.763L264.931 234.474C264.715 233.833 264.499 233.197 264.282 232.566L263.848 231.311C263.703 230.895 263.557 230.481 263.411 230.069L262.973 228.841C262.9 228.637 262.827 228.434 262.754 228.232L262.313 227.024C262.239 226.824 262.165 226.624 262.091 226.425L261.648 225.238C258.313 216.384 254.816 208.682 251.112 202.174C241.052 184.499 229.717 176.276 216.882 179.355ZM249.185 203.271C253.08 210.113 256.752 218.325 260.253 227.849L260.69 229.046C261.053 230.049 261.414 231.067 261.774 232.099L262.205 233.344C262.419 233.969 262.634 234.6 262.847 235.236L263.274 236.515C263.416 236.943 263.557 237.374 263.699 237.807L264.122 239.113L264.544 240.432L264.964 241.764C265.033 241.988 265.103 242.211 265.173 242.436L265.591 243.788C265.73 244.241 265.869 244.697 266.007 245.154L266.422 246.533L266.835 247.926L267.247 249.332C267.315 249.567 267.384 249.803 267.452 250.039L267.862 251.465L268.27 252.904L268.677 254.356C268.745 254.599 268.813 254.843 268.88 255.087L269.285 256.558L269.689 258.043C269.756 258.292 269.823 258.541 269.89 258.791L270.292 260.295C270.359 260.547 270.425 260.799 270.492 261.052L270.892 262.576L271.255 263.975L271.743 265.877L272.066 267.151L272.387 268.43L272.707 269.715L273.184 271.654L273.501 272.956L273.817 274.265L274.132 275.582L274.447 276.908L274.761 278.243L275.075 279.588L275.545 281.624L275.859 282.995L276.172 284.378L276.644 286.474L277.116 288.6L277.59 290.756L278.066 292.944L278.385 294.421L278.866 296.667L279.35 298.949L280.409 304.018L284.993 326.346L285.876 330.58L286.131 331.783L286.127 331.786C285.434 332.209 284.481 332.682 283.298 333.198L282.736 333.438C281.772 333.844 280.674 334.274 279.458 334.724L278.713 334.995C278.587 335.041 278.459 335.087 278.331 335.133L277.545 335.412C277.411 335.459 277.277 335.506 277.141 335.553L276.315 335.838C276.175 335.885 276.034 335.933 275.892 335.982L275.027 336.272L274.137 336.566C273.987 336.616 273.835 336.665 273.683 336.715L272.757 337.014L271.807 337.316L270.835 337.622L269.84 337.929L268.825 338.24L267.788 338.552L266.732 338.867L265.656 339.184L264.562 339.502C264.378 339.555 264.193 339.608 264.008 339.662L262.886 339.982L261.748 340.303L260.594 340.626L259.423 340.949L258.238 341.273C258.039 341.327 257.84 341.381 257.64 341.435L256.434 341.759L255.214 342.083L253.981 342.407L252.737 342.731L251.481 343.054L250.214 343.377L248.937 343.698L247.651 344.018C247.436 344.071 247.221 344.125 247.005 344.178L245.706 344.496L244.4 344.812L242.427 345.283L241.104 345.595L239.776 345.904L238.443 346.21L236.997 346.538L235.511 346.871L234.037 347.197C233.793 347.25 233.549 347.304 233.305 347.357L231.849 347.672L230.406 347.979C230.166 348.03 229.927 348.08 229.689 348.13L228.265 348.427L226.854 348.716L225.458 348.997L224.076 349.271C223.618 349.361 223.162 349.45 222.708 349.537L221.356 349.796L220.019 350.046L218.698 350.289C218.26 350.369 217.825 350.447 217.393 350.524L216.105 350.751L214.833 350.969C213.361 351.219 211.923 351.453 210.524 351.669L209.334 351.85C197.729 353.588 188.904 354.086 184.534 353.028L184.384 352.99L184.581 353.511C168.358 310.788 160.607 273.977 163.289 245.13C166.425 211.382 183.756 189.578 217.399 181.511C229.034 178.72 239.557 186.354 249.185 203.271Z" fill="#1B3C87"/>
<path d="M243.072 259.638C240.872 262.822 220.788 285.474 217.605 287.064C214.421 288.653 201.792 288.449 199.361 287.064C185.159 278.982 139.365 207.841 136.056 201.106C132.747 194.371 127.978 184.825 123.69 181.273C123 176.048 126.744 169.209 120.097 160.934C121.318 155.103 117.926 129.334 137.248 139.708C142.335 142.49 149.33 153.396 148.363 162.377C147.397 171.359 146.23 181.562 148.162 185.753C150.095 189.945 202.587 245.821 203.942 246.499C205.615 244.311 212.279 235.572 212.279 235.572L243.072 259.638Z" fill="white"/>
<path d="M262.763 199.826C283.06 215.915 258.375 253.213 249.234 263.45C245.051 263.634 208.715 242.24 206.854 233.464C212.12 225.604 240.144 181.893 262.763 199.826Z" fill="#46DBC9"/>
<path d="M143.071 210.595C143.673 210.771 144.019 211.401 143.844 212.003L143.66 212.641L143.49 213.248L143.285 214.008L143.146 214.543L143.021 215.047L142.945 215.366L142.841 215.819L142.779 216.104L142.696 216.508L142.647 216.76L142.585 217.114L142.551 217.334L142.521 217.541L142.497 217.735L142.478 217.917C142.476 217.946 142.473 217.974 142.471 218.002L142.46 218.165L142.454 218.314L142.453 218.44L142.489 218.461C145.05 219.964 147.715 221.281 150.465 222.402L151.016 222.623C151.599 222.855 151.884 223.515 151.653 224.098C151.422 224.681 150.761 224.966 150.178 224.735C146.935 223.449 143.802 221.9 140.81 220.106C140.55 219.95 140.364 219.698 140.291 219.404C140.24 219.199 140.209 218.965 140.196 218.702L140.19 218.521V218.331C140.19 218.299 140.191 218.266 140.192 218.233L140.2 218.029C140.202 217.994 140.204 217.959 140.207 217.923L140.224 217.704C140.231 217.629 140.238 217.553 140.247 217.475L140.275 217.235C140.281 217.195 140.286 217.153 140.292 217.112L140.329 216.856L140.372 216.59L140.421 216.312L140.476 216.023L140.537 215.723L140.603 215.41L140.676 215.086L140.754 214.75L140.838 214.401L140.929 214.04L141.075 213.473L141.181 213.079L141.35 212.463L141.471 212.036L141.663 211.368C141.838 210.766 142.469 210.42 143.071 210.595Z" fill="#1B3C87"/>
<path d="M161.95 170.651C162.225 170.532 162.536 170.53 162.813 170.644L166.505 172.142C168.39 172.915 170.135 173.656 171.935 174.459C176.794 176.627 181.372 178.944 185.688 181.516C189.257 183.643 192.526 185.877 195.447 188.228C195.924 188.612 195.999 189.31 195.615 189.787C195.231 190.264 194.533 190.339 194.056 189.955C191.221 187.673 188.038 185.497 184.553 183.421C180.319 180.897 175.817 178.619 171.032 176.484C169.477 175.79 167.961 175.143 166.357 174.479L164.993 173.92L162.435 172.884L162.399 172.905C161.855 173.221 161.279 173.702 160.672 174.339L160.48 174.545C160.383 174.651 160.286 174.761 160.188 174.874L159.99 175.106C159.957 175.146 159.924 175.186 159.891 175.226L159.691 175.474L159.489 175.732C159.455 175.775 159.421 175.82 159.388 175.864L159.183 176.137L158.977 176.42L158.769 176.713L158.559 177.015C158.524 177.067 158.489 177.118 158.453 177.17L158.241 177.488L158.027 177.815C157.991 177.87 157.955 177.926 157.92 177.982L157.703 178.324L157.485 178.676L157.266 179.037L157.045 179.407L156.822 179.787L156.598 180.177L156.373 180.575C156.335 180.643 156.298 180.71 156.26 180.778L156.032 181.191L155.803 181.613L155.573 182.044L155.341 182.485L155.109 182.934L154.757 183.625L154.521 184.097L154.284 184.577L154.045 185.067L153.686 185.817L153.444 186.329L153.08 187.112L152.837 187.645L152.469 188.46L152.222 189.014L151.972 189.582C151.727 190.143 151.074 190.399 150.513 190.154C149.952 189.908 149.696 189.255 149.941 188.694L150.209 188.086L150.475 187.487L150.74 186.898L151.004 186.318L151.267 185.748L151.528 185.188L151.789 184.637C151.832 184.546 151.875 184.455 151.919 184.365L152.177 183.829L152.435 183.303L152.692 182.786L152.947 182.279L153.201 181.782C153.243 181.7 153.286 181.619 153.328 181.537L153.58 181.055L153.832 180.583C153.874 180.505 153.915 180.428 153.957 180.351L154.207 179.894L154.455 179.447L154.703 179.01L154.949 178.583L155.195 178.167L155.439 177.761L155.682 177.365L155.924 176.979L156.165 176.603L156.404 176.238L156.643 175.884C156.683 175.826 156.723 175.768 156.762 175.711L156.999 175.372C157.039 175.316 157.078 175.261 157.117 175.206L157.353 174.883C157.549 174.618 157.743 174.365 157.937 174.122L158.169 173.836C158.323 173.649 158.476 173.47 158.629 173.297L158.858 173.043L159.085 172.801C160.069 171.773 161.024 171.051 161.95 170.651Z" fill="#1B3C87"/>
<path d="M147.161 146.332C147.5 145.804 148.203 145.651 148.73 145.99C149.258 146.329 149.411 147.032 149.072 147.559C149.008 147.659 148.945 147.767 148.882 147.884L148.788 148.066L148.694 148.262C148.632 148.396 148.571 148.539 148.51 148.69L148.419 148.923L148.328 149.169L148.239 149.426L148.15 149.694L148.062 149.975C148.048 150.022 148.033 150.07 148.019 150.119L147.933 150.416L147.847 150.724L147.763 151.042L147.68 151.371L147.597 151.711C147.584 151.768 147.57 151.826 147.557 151.884L147.476 152.239L147.397 152.603L147.318 152.976L147.242 153.359L147.166 153.751L147.091 154.152L147.018 154.561L146.911 155.191L146.841 155.621L146.773 156.059L146.706 156.505L146.609 157.187L146.515 157.885L146.424 158.598L146.366 159.082L146.254 160.068L146.175 160.823L146.125 161.333L146.052 162.108L146.006 162.63L145.941 163.423L145.9 163.957L145.86 164.496L145.812 165.21L145.754 166.156L145.716 166.858L145.671 167.783L145.634 168.693L145.612 169.365L145.593 170.027L145.579 170.677L145.569 171.315L145.563 171.94L145.561 172.551L145.564 173.146L145.57 173.726L145.585 174.473L145.595 174.834L145.606 175.188L145.62 175.532L145.635 175.868L145.67 176.511L145.713 177.116L145.736 177.403L145.775 177.814L145.803 178.074L145.848 178.444L145.88 178.675L145.913 178.895L145.949 179.103L145.985 179.298L146.024 179.481L146.064 179.65C146.071 179.678 146.078 179.704 146.085 179.73L146.127 179.88C146.163 179.999 146.201 180.103 146.24 180.193L146.285 180.294C146.753 181.408 147.655 182.885 148.961 184.698L149.345 185.226C149.674 185.672 150.026 186.138 150.4 186.623L150.859 187.213L151.34 187.821C151.422 187.924 151.505 188.027 151.588 188.131L152.101 188.766C152.188 188.873 152.276 188.981 152.365 189.089L152.908 189.749L153.472 190.427L154.057 191.121L154.662 191.832L155.287 192.56L155.932 193.305C156.041 193.43 156.151 193.556 156.262 193.683L156.937 194.452L157.631 195.238L158.345 196.039L159.077 196.857L159.829 197.69L160.6 198.539L161.39 199.404L162.199 200.284L163.025 201.179L163.87 202.09L164.734 203.015L165.615 203.955L166.97 205.394L167.896 206.371L169.317 207.863L170.285 208.876L171.77 210.421L173.293 211.998L174.853 213.605L176.45 215.243L178.083 216.91L179.192 218.038C179.632 218.485 179.626 219.204 179.179 219.644C178.732 220.084 178.013 220.079 177.573 219.632L175.886 217.915L174.238 216.229L173.16 215.123L171.575 213.49L170.54 212.42L169.523 211.364L168.523 210.323L167.541 209.296L166.101 207.783L165.164 206.794L164.244 205.819L163.343 204.859L162.027 203.448L161.172 202.527L160.336 201.621L159.519 200.73L158.721 199.855L157.942 198.996L157.182 198.152L156.442 197.325L155.721 196.513L155.02 195.718L154.339 194.939C154.227 194.81 154.116 194.682 154.006 194.555L153.355 193.8L152.723 193.062C152.62 192.94 152.517 192.819 152.415 192.699L151.815 191.985C151.027 191.045 150.294 190.149 149.617 189.299L149.12 188.67C146.686 185.567 145.044 183.108 144.266 181.347L144.197 181.187L144.181 181.153C144.096 180.961 144.017 180.733 143.944 180.47L143.891 180.266L143.839 180.049L143.79 179.82L143.744 179.578C143.736 179.537 143.729 179.495 143.721 179.453L143.678 179.194C143.671 179.149 143.664 179.105 143.657 179.06L143.617 178.783C143.611 178.736 143.605 178.688 143.598 178.64L143.562 178.347L143.528 178.042L143.481 177.566L143.452 177.235L143.414 176.721L143.38 176.185L143.352 175.628L143.336 175.246L143.316 174.657L143.301 174.049L143.291 173.423L143.286 172.781L143.285 172.344L143.289 171.675L143.297 170.993L143.31 170.296L143.329 169.587L143.344 169.107L143.361 168.623L143.391 167.887L143.425 167.141L143.465 166.386L143.509 165.623L143.542 165.11L143.595 164.335L143.658 163.479L143.703 162.915L143.749 162.356L143.823 161.527L143.875 160.981L143.957 160.174L144.013 159.643L144.072 159.118L144.133 158.6L144.227 157.836L144.292 157.335L144.359 156.841L144.428 156.354L144.499 155.876L144.572 155.404L144.646 154.941L144.723 154.486L144.801 154.039L144.88 153.601L144.962 153.172L145.045 152.751L145.13 152.34L145.217 151.938L145.305 151.545L145.395 151.162L145.486 150.789L145.579 150.427L145.674 150.074C145.706 149.958 145.738 149.844 145.771 149.732L145.869 149.401L145.968 149.081C145.985 149.028 146.002 148.976 146.018 148.924L146.12 148.621C146.154 148.521 146.189 148.424 146.224 148.329L146.328 148.048L146.435 147.779C146.667 147.209 146.909 146.724 147.161 146.332Z" fill="#1B3C87"/>
<path d="M206.063 233.213C206.495 232.758 207.214 232.74 207.669 233.171C208.124 233.603 208.143 234.322 207.711 234.777C207.18 235.336 206.648 235.952 206.074 236.665L205.757 237.064C205.703 237.132 205.649 237.201 205.595 237.271L205.262 237.702L204.822 238.286L202.604 241.282L202.067 241.996L201.925 242.179C201.485 242.741 200.641 242.763 200.173 242.223L200.025 242.048L199.923 241.937L199.669 241.678L192.768 234.831C192.323 234.39 192.319 233.671 192.761 233.225C193.202 232.779 193.921 232.776 194.367 233.218L200.806 239.601L200.931 239.727L203.103 236.791L203.295 236.537L203.669 236.047C204.528 234.936 205.291 234.027 206.063 233.213Z" fill="#1B3C87"/>
<path d="M119.887 175.529C120.287 175.046 121.003 174.979 121.486 175.379C121.856 175.685 122.223 176.019 122.59 176.385L122.81 176.607C122.847 176.645 122.883 176.683 122.92 176.722L123.14 176.956C123.177 176.995 123.214 177.035 123.25 177.075L123.471 177.321L123.692 177.575L123.913 177.836L124.135 178.106L124.358 178.384L124.581 178.67C124.618 178.718 124.656 178.767 124.693 178.816L124.918 179.115L125.144 179.423L125.372 179.739L125.6 180.065C125.638 180.12 125.677 180.175 125.715 180.231L125.946 180.57L126.179 180.918L126.413 181.275C126.452 181.336 126.491 181.397 126.531 181.458L126.887 182.019L127.127 182.405L127.37 182.802L127.615 183.208L127.862 183.624L128.112 184.05L128.364 184.487L128.748 185.162L129.138 185.861L129.403 186.34L129.805 187.08L130.215 187.845L130.493 188.369L130.917 189.176L131.495 190.294L131.94 191.163L132.547 192.364L133.015 193.298L133.655 194.586L134.147 195.586C134.181 195.654 134.217 195.727 134.257 195.804L134.386 196.05C134.409 196.094 134.433 196.138 134.457 196.183L134.698 196.622L134.978 197.119L135.297 197.672L135.653 198.279L135.91 198.712L136.471 199.646L137.092 200.666L137.947 202.055L138.692 203.251L139.486 204.517L140.328 205.851L141.442 207.603L142.38 209.069L143.857 211.362L144.884 212.948L146.211 214.986L147.028 216.235L148.139 217.927L149.559 220.079L151.007 222.263L152.479 224.47L154.268 227.138L155.47 228.92L156.197 229.992L157.56 231.998C158.924 233.999 160.286 235.98 161.628 237.912L162.605 239.316L163.573 240.701L164.533 242.068L165.484 243.417L166.427 244.747L167.36 246.057C167.67 246.491 167.978 246.922 168.284 247.349L169.199 248.621C169.351 248.832 169.502 249.041 169.653 249.25L170.554 250.492L171.444 251.714C171.592 251.916 171.739 252.118 171.886 252.318L172.762 253.509C173.052 253.903 173.341 254.293 173.628 254.68L174.483 255.83C174.625 256.02 174.766 256.209 174.907 256.397L175.747 257.514L176.576 258.61L177.394 259.685L178.201 260.736L178.996 261.766C179.128 261.935 179.259 262.104 179.39 262.272L180.168 263.267C180.426 263.595 180.682 263.919 180.935 264.24L181.69 265.188C181.94 265.501 182.188 265.809 182.433 266.114L183.164 267.015L183.883 267.893C184.358 268.469 184.824 269.03 185.282 269.574L185.963 270.378C190.681 275.915 194.445 279.606 196.995 281.057C197.493 281.341 198.502 281.564 199.798 281.725L200.176 281.769L200.568 281.81L200.974 281.847L201.391 281.881L201.82 281.911L202.258 281.938L202.705 281.961L203.16 281.981L203.62 281.997L204.086 282.01C204.164 282.012 204.242 282.013 204.321 282.015L204.792 282.022L205.266 282.026L205.74 282.026C205.819 282.025 205.898 282.025 205.977 282.024L206.451 282.019L206.923 282.009L207.392 281.997L207.857 281.98L208.316 281.96L208.769 281.936L209.214 281.908L209.65 281.876L210.076 281.841L210.491 281.802C210.968 281.754 211.419 281.698 211.837 281.634L212.187 281.578C213.04 281.431 213.728 281.249 214.168 281.028C214.193 281.016 214.22 281.001 214.249 280.985L214.341 280.928L214.444 280.859C214.462 280.847 214.481 280.834 214.5 280.82L214.62 280.733L214.75 280.634C214.773 280.616 214.796 280.598 214.819 280.58L214.966 280.462L215.122 280.334L215.289 280.193L215.557 279.962L215.748 279.794L216.051 279.521L216.375 279.224L216.718 278.904L217.205 278.441L217.591 278.068C217.634 278.026 217.679 277.983 217.723 277.939C218.172 277.501 218.891 277.51 219.329 277.958C219.767 278.407 219.759 279.126 219.31 279.564L218.854 280.007L218.421 280.42L218.011 280.806L217.624 281.163L217.258 281.491L217.027 281.695L216.806 281.885L216.595 282.063L216.393 282.228L216.201 282.381L216.018 282.52L215.845 282.647L215.682 282.761C215.629 282.797 215.578 282.831 215.528 282.863L215.384 282.951C215.314 282.992 215.248 283.028 215.185 283.06C214.301 283.502 212.763 283.823 210.92 284.028L210.472 284.074C210.321 284.089 210.168 284.103 210.014 284.117L209.546 284.154L209.069 284.188C208.989 284.193 208.909 284.198 208.828 284.203L208.341 284.23C208.26 284.234 208.178 284.237 208.095 284.241L207.6 284.261C207.517 284.264 207.434 284.267 207.351 284.27L206.849 284.283L206.345 284.292L205.84 284.298C205.672 284.298 205.503 284.298 205.334 284.298L204.829 284.293L204.326 284.285L203.826 284.272C203.742 284.27 203.66 284.267 203.577 284.264L203.083 284.245C203.001 284.242 202.919 284.238 202.837 284.234L202.352 284.209L201.873 284.179C201.715 284.168 201.558 284.157 201.403 284.145L200.942 284.106C200.79 284.093 200.64 284.079 200.492 284.064L200.052 284.017C198.175 283.805 196.651 283.475 195.871 283.031C192.549 281.14 187.546 276.004 181.237 268.25L180.488 267.326L179.728 266.378L178.956 265.406C178.826 265.242 178.696 265.077 178.566 264.911L177.776 263.904L176.975 262.874L176.163 261.821C175.754 261.289 175.341 260.748 174.924 260.199L174.084 259.09L173.233 257.958C172.805 257.387 172.373 256.808 171.937 256.22L171.06 255.034C170.766 254.636 170.47 254.233 170.172 253.827L169.274 252.599L168.366 251.35C168.214 251.14 168.062 250.93 167.909 250.718L166.986 249.438L166.053 248.138L165.111 246.818L164.159 245.478L163.198 244.118L162.228 242.739L161.248 241.341L160.26 239.924C160.095 239.686 159.929 239.447 159.763 239.208C157.483 235.926 155.148 232.506 152.844 229.09L152.118 228.012L150.693 225.886L149.004 223.353L147.345 220.85L145.993 218.799L144.414 216.388L143.139 214.431L142.149 212.904L140.722 210.69L139.59 208.922L138.307 206.903L137.502 205.627L136.74 204.411L135.851 202.98L135.195 201.913L134.735 201.159L134.306 200.449L133.907 199.782L133.424 198.965L133.101 198.407L132.904 198.063L132.639 197.59L132.481 197.303L132.34 197.04C132.318 196.998 132.297 196.957 132.276 196.917L132.16 196.691L131.32 194.991L130.861 194.07L130.264 192.882L129.683 191.741L129.258 190.916L128.705 189.854L128.166 188.837L127.771 188.103L127.384 187.392L127.004 186.706L126.754 186.262L126.508 185.828L126.143 185.196L125.904 184.787L125.549 184.193L125.316 183.809L125.086 183.435L124.857 183.07L124.631 182.715L124.407 182.37L124.185 182.034L123.965 181.707L123.747 181.389L123.531 181.081L123.316 180.781C123.281 180.732 123.245 180.683 123.21 180.635L122.998 180.348L122.787 180.071C122.752 180.025 122.717 179.98 122.682 179.935L122.473 179.67L122.266 179.414L122.059 179.166C122.025 179.126 121.991 179.086 121.956 179.046L121.751 178.81C121.717 178.772 121.683 178.734 121.649 178.696L121.446 178.472C121.344 178.363 121.243 178.256 121.142 178.153L120.94 177.949C120.839 177.849 120.739 177.752 120.638 177.658L120.438 177.474C120.371 177.414 120.304 177.355 120.238 177.297L120.038 177.128C119.554 176.728 119.487 176.012 119.887 175.529Z" fill="#1B3C87"/>
<path d="M237.93 255.607C238.288 255.092 238.995 254.963 239.511 255.321C240.026 255.678 240.155 256.386 239.798 256.901L239.63 257.135L239.42 257.414L239.236 257.652L238.879 258.1L238.463 258.612L237.786 259.427L237.124 260.212L236.517 260.921L235.591 261.994L234.432 263.322L233.658 264.201C233.243 264.671 232.525 264.716 232.055 264.301C231.585 263.886 231.54 263.168 231.955 262.698L232.86 261.669L233.712 260.693L234.632 259.629L235.575 258.526L236.198 257.785L236.827 257.025L237.135 256.645L237.524 256.154L237.684 255.946L237.777 255.821L237.896 255.656C237.908 255.639 237.92 255.623 237.93 255.607Z" fill="#1B3C87"/>
<path d="M131.402 132.252C131.851 131.814 132.571 131.824 133.008 132.273C134.109 133.402 135.349 135.882 136.525 138.974L136.731 139.526C136.8 139.712 136.869 139.9 136.937 140.09L137.14 140.664L137.341 141.249C137.408 141.446 137.474 141.644 137.54 141.843L137.737 142.445C137.769 142.546 137.802 142.647 137.834 142.749L138.026 143.361L138.215 143.98C138.246 144.084 138.277 144.187 138.308 144.291L138.492 144.917L138.671 145.547L138.847 146.179C138.876 146.285 138.905 146.391 138.933 146.496L139.103 147.131C139.158 147.343 139.213 147.555 139.267 147.767L139.426 148.402C139.453 148.508 139.479 148.614 139.504 148.719L139.656 149.352L139.802 149.983L139.942 150.61C139.965 150.714 139.988 150.818 140.01 150.922L140.141 151.542C140.226 151.953 140.307 152.361 140.384 152.764L140.495 153.364C140.548 153.662 140.599 153.957 140.648 154.248L140.74 154.825C140.947 156.16 141.09 157.408 141.156 158.517C141.192 159.143 140.715 159.68 140.088 159.717C139.462 159.754 138.925 159.276 138.888 158.65C138.84 157.833 138.745 156.931 138.611 155.967L138.533 155.436L138.449 154.893C138.404 154.619 138.357 154.341 138.308 154.06L138.205 153.493L138.096 152.918C138.077 152.822 138.058 152.725 138.039 152.628L137.92 152.043C137.879 151.847 137.837 151.65 137.795 151.452L137.664 150.856C137.642 150.757 137.619 150.657 137.596 150.557L137.458 149.956L137.314 149.352L137.165 148.746L137.011 148.139L136.853 147.533C136.827 147.432 136.8 147.331 136.773 147.23L136.609 146.626C136.581 146.525 136.553 146.424 136.525 146.324L136.356 145.723L136.183 145.126L136.008 144.534L135.829 143.947L135.648 143.366C135.618 143.27 135.587 143.174 135.557 143.079L135.372 142.51L135.186 141.949L134.998 141.398C134.967 141.307 134.935 141.216 134.904 141.126L134.714 140.591L134.523 140.068L134.331 139.558C134.268 139.39 134.204 139.224 134.14 139.061L133.947 138.579C133.05 136.364 132.156 134.652 131.381 133.858C130.944 133.409 130.953 132.69 131.402 132.252Z" fill="#1B3C87"/>
<path d="M121.9 131.274C122.428 130.934 123.131 131.087 123.47 131.614C124.19 132.734 124.938 134.089 125.689 135.603L125.972 136.179C126.254 136.761 126.536 137.365 126.817 137.985L127.098 138.611C127.145 138.717 127.192 138.822 127.239 138.929L127.518 139.57L127.796 140.221L128.073 140.88L128.348 141.547C128.394 141.659 128.439 141.771 128.485 141.883L128.756 142.559C128.801 142.672 128.846 142.786 128.891 142.899L129.159 143.583L129.424 144.27L129.685 144.961L129.943 145.653L130.198 146.347L130.449 147.041L130.695 147.735C130.736 147.851 130.776 147.966 130.817 148.081L131.056 148.773L131.291 149.461L131.52 150.146C131.558 150.259 131.596 150.373 131.633 150.486L131.855 151.164L132.07 151.836C132.106 151.947 132.141 152.058 132.176 152.169L132.382 152.831L132.582 153.484L132.775 154.128L132.961 154.763L133.14 155.386C133.17 155.489 133.198 155.592 133.227 155.694L133.395 156.3C133.422 156.4 133.449 156.499 133.475 156.598L133.631 157.184L133.778 157.756L133.917 158.313C134.066 158.922 133.693 159.537 133.084 159.686C132.475 159.836 131.86 159.463 131.711 158.853C131.667 158.676 131.622 158.495 131.576 158.312L131.433 157.756L131.281 157.185L131.121 156.601C131.094 156.502 131.067 156.403 131.039 156.304L130.868 155.701C130.838 155.6 130.809 155.498 130.779 155.396L130.598 154.777L130.409 154.148L130.213 153.51L130.012 152.864L129.804 152.211L129.59 151.551L129.371 150.886L129.147 150.217L128.918 149.544C128.879 149.431 128.84 149.319 128.801 149.206L128.565 148.529L128.324 147.851L128.079 147.172L127.831 146.494L127.579 145.817L127.323 145.142L127.065 144.47C127.022 144.358 126.978 144.247 126.935 144.135L126.673 143.47L126.408 142.81L126.142 142.155L125.873 141.508C125.828 141.401 125.784 141.294 125.739 141.188L125.468 140.553C125.423 140.448 125.378 140.343 125.332 140.239L125.06 139.618C124.97 139.413 124.879 139.21 124.788 139.009L124.515 138.41L124.241 137.824L123.968 137.251C123.832 136.969 123.695 136.691 123.559 136.419L123.288 135.884C122.7 134.741 122.12 133.714 121.56 132.843C121.22 132.316 121.373 131.613 121.9 131.274Z" fill="#1B3C87"/>
<path d="M118.949 145.513C119.401 145.078 120.12 145.091 120.555 145.542C121.028 146.033 121.555 146.773 122.103 147.674L122.31 148.02C122.414 148.197 122.518 148.378 122.623 148.565L122.832 148.944C122.867 149.008 122.902 149.073 122.937 149.138L123.148 149.535L123.358 149.941L123.568 150.357C123.603 150.427 123.638 150.497 123.673 150.568L123.882 150.996C123.917 151.068 123.951 151.14 123.986 151.212L124.193 151.649L124.398 152.092C124.431 152.166 124.465 152.24 124.499 152.315L124.7 152.763L124.899 153.214L125.094 153.666L125.285 154.119L125.472 154.572L125.655 155.023L125.833 155.472L126.006 155.918L126.173 156.359C126.2 156.432 126.227 156.505 126.254 156.577L126.412 157.01L126.564 157.435L126.708 157.853C126.732 157.922 126.755 157.99 126.778 158.059L126.911 158.462C126.954 158.595 126.996 158.726 127.036 158.856L127.153 159.237C127.172 159.3 127.19 159.362 127.209 159.424L127.312 159.786C127.362 159.964 127.408 160.137 127.45 160.304L127.53 160.63C127.655 161.159 127.736 161.62 127.767 161.991C127.819 162.616 127.354 163.165 126.729 163.217C126.127 163.267 125.596 162.838 125.511 162.248L125.503 162.179C125.474 161.824 125.383 161.356 125.241 160.804L125.159 160.494C125.144 160.442 125.13 160.388 125.114 160.334L125.018 160.001L124.913 159.655L124.799 159.296L124.677 158.924C124.656 158.862 124.635 158.798 124.613 158.735L124.48 158.348C124.457 158.282 124.434 158.217 124.411 158.151L124.267 157.75C124.243 157.683 124.218 157.615 124.193 157.547L124.04 157.136L123.881 156.719L123.716 156.297L123.547 155.871L123.373 155.442L123.195 155.011L123.013 154.581L122.828 154.15L122.64 153.721L122.45 153.295L122.258 152.872L122.064 152.454L121.868 152.042L121.672 151.637C121.64 151.57 121.607 151.504 121.574 151.437L121.378 151.045L121.181 150.662C121.149 150.599 121.116 150.536 121.083 150.474L120.888 150.107L120.695 149.753C120.63 149.637 120.566 149.523 120.502 149.412L120.313 149.085L120.125 148.774C119.691 148.066 119.281 147.494 118.919 147.119C118.484 146.667 118.497 145.948 118.949 145.513Z" fill="#1B3C87"/>
<path d="M114.902 154.505C115.336 154.052 116.055 154.037 116.507 154.471C117.453 155.379 118.563 157.002 119.601 158.833L119.838 159.259L120.073 159.691L120.304 160.128C120.342 160.201 120.38 160.274 120.418 160.347L120.642 160.788L120.86 161.23L121.072 161.672L121.278 162.112C121.547 162.697 121.796 163.274 122.018 163.828L122.18 164.239C122.572 165.254 122.863 166.176 123.009 166.907C123.132 167.522 122.733 168.12 122.118 168.243C121.503 168.366 120.905 167.967 120.782 167.352C120.653 166.71 120.382 165.869 120.014 164.932L119.862 164.553C119.784 164.361 119.702 164.165 119.617 163.967L119.443 163.568L119.26 163.164C119.23 163.096 119.198 163.029 119.167 162.961L118.974 162.551L118.776 162.14L118.571 161.729C118.537 161.661 118.502 161.592 118.468 161.524L118.257 161.115L118.042 160.71L117.824 160.31C117.423 159.581 117.01 158.884 116.604 158.259L116.383 157.926C115.87 157.165 115.375 156.533 114.935 156.111C114.482 155.676 114.467 154.957 114.902 154.505Z" fill="#1B3C87"/>
<path d="M287.146 331.196C287.745 331.07 288.332 331.454 288.458 332.053C288.652 332.979 288.969 334.19 289.382 335.618L289.596 336.349C289.67 336.599 289.747 336.854 289.826 337.115L290.07 337.913C290.112 338.048 290.155 338.185 290.198 338.323L290.462 339.166L290.74 340.036L291.029 340.931L291.33 341.851L291.641 342.791L291.962 343.752L292.293 344.73L292.803 346.227L293.153 347.241L293.69 348.783L294.054 349.822L294.61 351.391L294.984 352.441L295.362 353.493L295.742 354.545L296.314 356.117L296.696 357.159L297.268 358.708L297.837 360.235L298.399 361.732L298.77 362.71L299.317 364.145L299.851 365.532L300.199 366.428L300.707 367.724L301.036 368.553L301.355 369.351L301.664 370.118L301.962 370.85L302.249 371.546L302.524 372.204L302.786 372.822L303.034 373.399L303.268 373.932C303.306 374.017 303.343 374.1 303.379 374.181L303.59 374.645C303.847 375.2 303.604 375.859 303.048 376.116C302.492 376.372 301.834 376.13 301.577 375.574C301.508 375.425 301.436 375.267 301.362 375.102L301.132 374.584C301.053 374.403 300.971 374.215 300.887 374.02L300.628 373.414C300.584 373.31 300.539 373.204 300.494 373.096L300.215 372.429L299.925 371.725L299.623 370.984L299.15 369.81L298.823 368.987L298.487 368.136L298.142 367.256L297.791 366.352L297.251 364.951L296.699 363.504L296.325 362.517L295.567 360.496L294.992 358.948L294.607 357.904L294.029 356.325L293.645 355.267L292.881 353.145L292.503 352.085L292.129 351.028L291.575 349.453L291.213 348.414L290.857 347.384L290.336 345.862L289.834 344.373L289.51 343.403L289.195 342.452L288.892 341.522L288.6 340.617L288.319 339.736L288.052 338.883L287.798 338.059C287.675 337.655 287.556 337.262 287.444 336.882L287.227 336.14C286.809 334.691 286.487 333.457 286.288 332.509C286.163 331.909 286.546 331.322 287.146 331.196Z" fill="#1B3C87"/>
<path d="M222.596 367.227C223.091 366.866 223.784 366.976 224.144 367.471L224.594 368.087L225.053 368.713L225.757 369.669L226.48 370.643L226.971 371.301L227.719 372.298L228.479 373.307L229.508 374.663L230.55 376.027L231.6 377.391L232.652 378.75L233.703 380.097L234.746 381.425L235.521 382.405L236.033 383.049L236.791 384L237.783 385.233L238.747 386.422L239.449 387.281L240.13 388.107L240.789 388.9L241.215 389.408L241.832 390.137L242.228 390.601L242.797 391.259L243.159 391.673L243.505 392.065L243.837 392.435L244.153 392.782L244.452 393.105C244.5 393.157 244.548 393.208 244.595 393.258L244.868 393.544L245.122 393.804C245.45 394.134 245.727 394.392 245.947 394.571C246.422 394.957 246.494 395.655 246.108 396.13C245.722 396.606 245.024 396.678 244.549 396.292C244.311 396.099 244.017 395.827 243.675 395.485L243.409 395.215L243.125 394.92L242.824 394.6C242.773 394.545 242.721 394.489 242.668 394.431L242.342 394.076L242.001 393.698L241.645 393.298L241.274 392.877L240.89 392.435L240.289 391.737L239.66 390.997L239.227 390.482L238.557 389.679L238.097 389.125L237.392 388.267L236.911 387.678L236.175 386.772L235.676 386.154L234.917 385.208L233.886 383.914L232.839 382.59L231.782 381.243L230.718 379.878L229.653 378.501L228.592 377.12L227.278 375.396L226.501 374.368L225.48 373.011L224.73 372.006L223.995 371.016L223.278 370.042L222.58 369.088C222.503 368.984 222.427 368.879 222.351 368.775C221.991 368.28 222.101 367.587 222.596 367.227Z" fill="#1B3C87"/>
<path d="M183.366 352.827C183.97 352.728 184.54 353.138 184.639 353.743C184.88 355.223 185.413 357.619 186.148 360.622L186.433 361.776L186.736 362.983L187.055 364.239L187.39 365.541L187.74 366.886L188.104 368.269L188.48 369.688L188.868 371.137L189.468 373.363L190.089 375.638L190.512 377.176L190.941 378.728L191.595 381.073L192.035 382.641L192.7 384.994L193.145 386.557L193.811 388.884L194.474 391.179L195.129 393.43L195.56 394.9L196.194 397.05L196.812 399.123L197.213 400.457L197.604 401.747L198.169 403.593L198.529 404.759L198.876 405.87L199.208 406.92C199.316 407.26 199.421 407.589 199.524 407.907L199.823 408.828C199.871 408.975 199.919 409.12 199.966 409.262L200.237 410.075C200.717 411.497 201.097 412.536 201.35 413.091C201.603 413.648 201.356 414.305 200.799 414.558C200.242 414.812 199.584 414.565 199.331 414.008L199.255 413.835C199.242 413.805 199.228 413.773 199.215 413.74L199.084 413.417L198.989 413.173L198.835 412.763L198.668 412.303L198.425 411.614L198.23 411.043L198.022 410.427L197.729 409.539L197.416 408.578L196.916 407.009L196.471 405.592L196.004 404.084L195.517 402.492L194.805 400.137L194.063 397.654L193.187 394.685L192.403 391.996L191.494 388.846L190.352 384.84L189.489 381.774L188.665 378.817L187.763 375.536L186.895 372.338L186.161 369.592L185.638 367.608L185.062 365.389L184.676 363.876L184.312 362.429L184.039 361.324L183.66 359.761L183.375 358.55L183.218 357.866L183.073 357.217L182.938 356.602L182.816 356.024L182.705 355.483L182.607 354.981L182.549 354.669L182.497 354.375L182.45 354.099C182.352 353.495 182.762 352.925 183.366 352.827Z" fill="#1B3C87"/>
<path d="M143.31 171.442C143.435 170.827 144.035 170.43 144.649 170.556L144.815 170.592C144.843 170.598 144.872 170.605 144.901 170.612L145.08 170.658L145.27 170.711L145.47 170.77L145.68 170.836L145.9 170.909L146.132 170.988L146.373 171.074L146.626 171.168L146.89 171.268L147.307 171.431L147.904 171.673L148.219 171.804L148.716 172.014L149.24 172.241L149.983 172.567L150.984 173.016L152.049 173.502L156.416 175.526L157.38 175.965L157.687 176.102C158.261 176.355 158.52 177.026 158.266 177.6C158.012 178.173 157.342 178.433 156.768 178.179L156.114 177.885L154.709 177.24L151.519 175.759L150.898 175.474L150.067 175.095L149.285 174.744L148.38 174.344L147.711 174.056L147.242 173.859L146.945 173.736L146.523 173.564L146.128 173.409L145.761 173.27L145.531 173.185L145.21 173.073L145.011 173.006L144.735 172.92L144.566 172.871L144.409 172.83L144.264 172.796C144.241 172.791 144.218 172.786 144.196 172.781C143.581 172.656 143.184 172.056 143.31 171.442Z" fill="#1B3C87"/>
<path d="M71.617 182.959L98.7371 205.168L95.0014 170.313" fill="#2C353F"/>
<path d="M94.4043 80.3773C95.8258 79.5825 97.6353 79.6038 99.5593 80.195C101.028 80.6462 102.483 81.4315 103.106 82.0904C103.537 82.5464 103.516 83.2652 103.06 83.696C102.623 84.1088 101.945 84.1073 101.51 83.7052L101.455 83.6504C100.454 82.5915 96.998 81.5296 95.5128 82.36C94.5938 82.8738 94.0959 84.1184 94.2483 86.4203C94.2927 87.0912 94.3936 87.8302 94.5525 88.6383L94.63 89.0162C94.7661 89.6542 94.9368 90.3332 95.1428 91.0536L95.2707 91.4908L95.4071 91.9381C95.4306 92.0134 95.4544 92.0892 95.4785 92.1654L95.6278 92.6276L95.7857 93.0999L95.9523 93.5822L96.1276 94.0745L96.3116 94.577L96.5044 95.0895L96.706 95.6122L96.9165 96.1451L97.1359 96.6881C97.1732 96.7795 97.2109 96.8713 97.249 96.9635L97.4818 97.5218C97.5213 97.6157 97.5612 97.7101 97.6015 97.8048L97.8479 98.3785C97.9315 98.5715 98.0166 98.7661 98.1032 98.9625L98.3677 99.5568C98.6245 100.129 98.3688 100.801 97.7966 101.058C97.2243 101.315 96.5522 101.059 96.2953 100.487L96.1409 100.141L95.8405 99.4587L95.5516 98.7886L95.274 98.1308C91.0598 88.0282 90.9337 82.3178 94.4043 80.3773Z" fill="#1B3C87"/>
<path d="M83.8939 83.9249C85.3144 83.1298 87.1228 83.1512 89.0484 83.7423C90.5142 84.1923 91.9707 84.9756 92.6 85.6316C93.0342 86.0843 93.0192 86.8032 92.5666 87.2374C92.1327 87.6536 91.4544 87.6572 91.0164 87.2583L90.9607 87.204C89.9364 86.1362 86.4863 85.0771 85.0034 85.9071C84.0861 86.4205 83.5895 87.6649 83.743 89.9672L83.7677 90.2816C83.8154 90.8138 83.8967 91.3864 84.0123 91.9999L84.0858 92.3728C84.1246 92.5618 84.1665 92.7544 84.2115 92.9507L84.3057 93.3483C84.3877 93.6838 84.4785 94.0295 84.578 94.3856L84.7017 94.8179L84.8339 95.2601L84.9746 95.7124C84.9988 95.7886 85.0233 95.8652 85.0482 95.9422L85.2018 96.4095C85.2281 96.4882 85.2548 96.5673 85.2819 96.6469L85.4485 97.1292L85.6238 97.6216L85.8078 98.1241C85.8706 98.2932 85.9349 98.4641 86.0006 98.6366L86.2022 99.1594L86.4127 99.6923L86.6321 100.235L86.8603 100.789L87.0976 101.352L87.3439 101.926L87.5992 102.51C87.6858 102.706 87.7739 102.904 87.8636 103.104C88.1204 103.677 87.8646 104.349 87.2922 104.605C86.7199 104.862 86.0479 104.606 85.7911 104.034L85.6367 103.688L85.3364 103.006L85.0475 102.336L84.77 101.678L84.5038 101.032C84.3736 100.712 84.2475 100.397 84.1257 100.086L83.8878 99.4707L83.661 98.8673C80.5651 90.5045 80.7629 85.6775 83.8939 83.9249Z" fill="#1B3C87"/>
<path d="M72.7783 91.096C73.8243 90.0014 75.3679 89.7299 77.0787 90.0481C78.3468 90.2841 79.6639 90.8612 80.2918 91.4381C80.7537 91.8625 80.7841 92.581 80.3597 93.0429C79.953 93.4855 79.2762 93.5319 78.8139 93.1614L78.7549 93.1107C78.656 93.0198 78.3821 92.8572 78.0333 92.7044C77.6096 92.5187 77.1303 92.3682 76.6632 92.2813C75.6303 92.0892 74.8379 92.2286 74.4204 92.6654C73.8399 93.2728 73.6828 94.6292 74.2442 96.915C74.3886 97.5031 74.5779 98.1373 74.8131 98.8183L74.9459 99.1944C75.0604 99.5117 75.1845 99.8387 75.3181 100.175L75.4832 100.584C75.5397 100.722 75.5979 100.861 75.6575 101.002L75.8412 101.43C75.8726 101.502 75.9044 101.574 75.9365 101.647L76.1343 102.089L76.3414 102.54C76.3767 102.616 76.4124 102.692 76.4485 102.769L76.6699 103.234L76.9008 103.709L77.1413 104.193C77.1822 104.274 77.2235 104.356 77.2651 104.439L77.52 104.937L77.7846 105.445L78.0589 105.963C78.1054 106.05 78.1523 106.138 78.1997 106.226L78.4886 106.758L78.7873 107.3L79.0959 107.851C79.1481 107.944 79.2008 108.037 79.2539 108.131L79.5773 108.697L79.9106 109.272C80.2265 109.814 80.0431 110.51 79.5012 110.825C78.9592 111.141 78.2639 110.958 77.948 110.416L77.7646 110.1L77.406 109.476C77.2883 109.27 77.1725 109.066 77.0585 108.863L76.7221 108.26C76.667 108.161 76.6123 108.061 76.5581 107.963L76.2383 107.376C76.186 107.279 76.134 107.182 76.0826 107.086L75.7793 106.515C75.7297 106.421 75.6805 106.327 75.6318 106.233L75.345 105.677C75.2981 105.586 75.2517 105.494 75.2057 105.403L74.9353 104.863C74.8028 104.595 74.6743 104.332 74.55 104.072L74.3067 103.557C74.1481 103.217 73.9967 102.884 73.8525 102.558L73.6415 102.073C71.2425 96.4788 71.0293 92.9259 72.7783 91.096Z" fill="#1B3C87"/>
<path opacity="0.15" d="M383.467 276.464L415.427 263.466L323.981 231.184L354.289 323.299L367.972 291.628" fill="white"/>
<path opacity="0.15" d="M383.467 276.464L419.075 312.845L403.58 328.01L367.972 291.628" fill="white"/>
<path d="M203.695 228.192C204.294 228.065 204.883 228.447 205.01 229.046C205.201 229.949 205.863 231.071 206.936 232.368L207.173 232.648C207.375 232.884 207.59 233.126 207.817 233.372L208.097 233.671C208.192 233.771 208.289 233.872 208.388 233.974L208.691 234.282C208.743 234.334 208.795 234.386 208.847 234.438L209.168 234.753C209.222 234.806 209.277 234.859 209.333 234.912L209.671 235.234C209.728 235.288 209.786 235.343 209.844 235.397L210.199 235.725L210.565 236.058L210.943 236.395L211.331 236.736L211.73 237.081L212.139 237.429L212.559 237.782L212.99 238.138L213.431 238.498L213.882 238.861L214.343 239.227L214.814 239.597C214.893 239.659 214.973 239.721 215.053 239.783L215.538 240.157L216.033 240.534L216.538 240.915L217.051 241.298L217.574 241.684L218.106 242.072L218.647 242.463L219.197 242.856L219.755 243.252L220.322 243.649C220.417 243.716 220.513 243.782 220.609 243.849L221.188 244.25L221.776 244.653L222.371 245.058C222.878 245.401 223.012 246.09 222.668 246.597C222.325 247.104 221.636 247.237 221.129 246.894L220.5 246.467L219.879 246.041L219.268 245.618L218.666 245.198L218.073 244.78L217.49 244.365L216.916 243.952L216.352 243.542L215.797 243.135L215.253 242.731L214.718 242.329C214.63 242.262 214.542 242.196 214.455 242.129L213.936 241.732L213.427 241.338C213.343 241.273 213.259 241.207 213.176 241.142L212.682 240.753L212.2 240.366C212.12 240.302 212.041 240.238 211.962 240.174L211.495 239.793C211.418 239.729 211.342 239.666 211.266 239.603L210.815 239.227L210.375 238.853L209.947 238.483L209.53 238.117C209.461 238.056 209.393 237.996 209.325 237.935L208.925 237.574L208.536 237.217C208.408 237.098 208.282 236.98 208.159 236.863L207.793 236.513L207.439 236.167C207.091 235.823 206.761 235.484 206.45 235.152L206.145 234.822C204.299 232.797 203.159 231.005 202.841 229.506C202.714 228.908 203.096 228.319 203.695 228.192Z" fill="#1B3C87"/>
<path d="M264.801 224.058C264.968 223.469 265.581 223.127 266.17 223.295C266.759 223.462 267.101 224.075 266.933 224.664C265.249 230.599 262.357 237.033 258.97 243.054L258.545 243.804C258.473 243.929 258.402 244.054 258.33 244.178L257.897 244.921L257.46 245.659C256.508 247.252 255.527 248.804 254.532 250.299L254.072 250.984C251.766 254.39 249.395 257.472 247.133 260.005C246.934 260.227 246.653 260.361 246.355 260.374C246.194 260.381 246.001 260.366 245.78 260.329L245.608 260.297C245.578 260.291 245.548 260.285 245.518 260.279L245.329 260.235C245.297 260.227 245.264 260.219 245.231 260.211L245.027 260.156C244.992 260.146 244.957 260.136 244.921 260.125L244.702 260.059L244.472 259.985C244.433 259.972 244.394 259.958 244.354 259.945L244.109 259.86C244.068 259.845 244.026 259.83 243.983 259.814L243.724 259.718L243.456 259.615L243.179 259.505L242.892 259.388L242.596 259.264L242.137 259.065L241.658 258.851L241.329 258.701L240.992 258.544L240.646 258.381L240.293 258.211L239.75 257.946L239.378 257.761L238.808 257.473L238.419 257.274L237.824 256.965L237.214 256.643L236.59 256.31L235.953 255.964L235.084 255.486L234.418 255.114L233.741 254.732L232.822 254.206L232.121 253.8L231.172 253.244L230.45 252.816L229.475 252.231C229.393 252.181 229.311 252.132 229.229 252.082C228.705 251.765 228.538 251.084 228.855 250.56C229.172 250.036 229.853 249.869 230.377 250.186L231.272 250.724L232.158 251.25L233.034 251.763L234.111 252.385L234.746 252.748L235.786 253.332L236.597 253.781L236.996 254L237.778 254.423L238.538 254.828L239.453 255.307L239.984 255.579L240.667 255.924L241.16 256.169L241.637 256.401L242.095 256.621L242.536 256.827L243.093 257.081L243.614 257.31L243.98 257.465L244.325 257.606L244.647 257.731L244.946 257.841L245.131 257.906L245.306 257.964L245.47 258.014C245.497 258.022 245.522 258.029 245.548 258.036L245.695 258.076L245.847 258.111L246.138 257.778L246.574 257.268C246.939 256.837 247.305 256.393 247.674 255.937L248.116 255.383C249.372 253.797 250.641 252.071 251.894 250.243L252.335 249.593C252.703 249.048 253.068 248.495 253.431 247.935L253.866 247.258C253.938 247.145 254.01 247.032 254.082 246.918L254.513 246.231C254.656 246.001 254.798 245.771 254.94 245.539L255.364 244.84C259.306 238.295 262.77 231.032 264.697 224.419L264.801 224.058Z" fill="#1B3C87"/>
<path d="M235.197 194.073C244.373 188.919 252.977 188.782 260.538 194.772C261.191 195.287 261.815 195.839 262.405 196.424C262.84 196.855 262.844 197.557 262.413 197.992C261.982 198.427 261.28 198.43 260.845 197.999C260.314 197.473 259.753 196.977 259.163 196.512C252.379 191.137 244.734 191.259 236.283 196.006C230.445 199.285 224.509 204.603 218.593 211.422L217.981 212.133C217.165 213.088 216.35 214.07 215.535 215.08C215.151 215.557 214.453 215.631 213.976 215.247C213.5 214.862 213.425 214.164 213.809 213.688C214.836 212.415 215.865 211.184 216.895 209.996L217.513 209.288C218.337 208.352 219.162 207.444 219.988 206.566L220.607 205.913C225.461 200.841 230.335 196.804 235.197 194.073Z" fill="#1B3C87"/>
<path opacity="0.15" d="M334.464 4.59623L294.392 44.902C293.936 45.3613 294.161 46.1434 294.792 46.2894L390.606 68.4608C391.391 68.6425 391.945 67.7072 391.408 67.1058L335.666 4.6287C335.35 4.27373 334.799 4.25887 334.464 4.59623ZM335.017 6.3831L388.443 66.2641L296.611 45.0139L335.017 6.3831Z" fill="white"/>
<path opacity="0.15" d="M60.0921 320.813L53.8184 383.668C53.7731 384.122 54.1044 384.527 54.5584 384.573L126.005 391.704C126.459 391.749 126.864 391.418 126.909 390.964L133.183 328.109C133.228 327.655 132.897 327.25 132.443 327.205L60.9963 320.073C60.5423 320.028 60.1375 320.359 60.0921 320.813ZM61.6541 321.8L131.456 328.767L125.347 389.978L55.5445 383.011L61.6541 321.8Z" fill="white"/>
<path opacity="0.15" d="M49.1445 348.874C29.5122 348.874 13.5972 364.789 13.5972 384.421C13.5972 404.053 29.5122 419.968 49.1445 419.968C68.7767 419.968 84.6918 404.053 84.6918 384.421C84.6918 364.789 68.7767 348.874 49.1445 348.874ZM49.1445 350.526C67.8641 350.526 83.0394 365.701 83.0394 384.421C83.0394 403.141 67.8641 418.316 49.1445 418.316C30.4248 418.316 15.2496 403.141 15.2496 384.421C15.2496 365.701 30.4248 350.526 49.1445 350.526Z" fill="white"/>
<path d="M221.01 66.5159C223.386 66.5159 225.686 68.6206 227.666 71.8828L227.857 72.2021C227.92 72.3097 227.983 72.4185 228.045 72.5284L228.232 72.8616C228.263 72.9177 228.294 72.9741 228.324 73.0307L228.508 73.3738L228.689 73.7232L228.868 74.0789C228.897 74.1386 228.927 74.1987 228.956 74.2589L229.131 74.6235C229.16 74.6847 229.189 74.7462 229.218 74.8079L229.39 75.1809L229.559 75.5593L229.734 75.9613L229.749 75.9219C231.57 71.1938 234.06 68.3759 236.877 67.7105L236.999 67.6829C240.245 66.9903 243.152 69.3421 244.213 73.1804C244.38 73.7849 244.026 74.4106 243.421 74.5778C242.817 74.745 242.191 74.3904 242.024 73.7859C241.253 70.9996 239.393 69.4947 237.473 69.9044C235.796 70.2623 234.106 71.9224 232.673 74.8711L232.505 75.2239C231.923 76.4797 231.387 77.9539 230.914 79.6455C230.614 80.7174 229.111 80.7633 228.747 79.7116L228.678 79.5158L228.539 79.1266L228.397 78.7409L228.251 78.359L228.103 77.981L227.952 77.6072L227.798 77.2379L227.642 76.8732L227.483 76.5135L227.323 76.1589L227.16 75.8096L226.995 75.466C226.967 75.4092 226.939 75.3526 226.912 75.2963L226.744 74.9615L226.575 74.6329L226.404 74.3108C226.375 74.2576 226.346 74.2048 226.318 74.1522L226.145 73.8401C226.116 73.7886 226.087 73.7375 226.058 73.6867L225.883 73.3852L225.707 73.091L225.53 72.8045L225.352 72.5258C225.322 72.48 225.293 72.4346 225.263 72.3895L225.084 72.123C223.682 70.0679 222.234 68.7874 221.01 68.7874C219.088 68.7874 216.259 71.0901 214.12 74.8482C213.809 75.3933 213.116 75.5836 212.571 75.2733C212.026 74.9629 211.835 74.2695 212.146 73.7243C214.647 69.331 218.106 66.5159 221.01 66.5159Z" fill="#1B3C87"/>
<path d="M240.78 155.647C239.01 161.574 233.175 181.211 232.995 194.831C230.167 196.505 211.146 197.22 206.017 193.417C207.431 187.402 209.82 170.33 209.2 164.402C211.857 163.875 240.78 155.647 240.78 155.647Z" fill="white"/>
<path d="M239.751 152.617L239.546 153.303L239.149 154.646L238.766 155.957C238.704 156.173 238.642 156.388 238.58 156.602L238.216 157.874L237.864 159.129C236.936 162.456 236.113 165.66 235.28 169.257L235.068 170.181L234.863 171.096C234.829 171.247 234.796 171.399 234.763 171.55L234.567 172.452C234.535 172.602 234.503 172.751 234.472 172.9L234.286 173.79L234.107 174.67L233.935 175.542C233.878 175.831 233.823 176.118 233.769 176.404L233.611 177.257C233.378 178.53 233.169 179.771 232.984 180.978L232.865 181.777C232.345 185.351 232.05 188.612 232.012 191.499C232.007 191.885 231.801 192.24 231.47 192.438C231.181 192.609 230.774 192.769 230.267 192.915L230.027 192.982C229.986 192.993 229.944 193.004 229.902 193.014L229.641 193.078L229.367 193.14L229.081 193.199L228.783 193.257L228.473 193.313L228.152 193.366L227.82 193.418L227.477 193.467L227.125 193.514L226.763 193.559L226.393 193.602L226.013 193.642L225.626 193.68L225.03 193.733L224.418 193.78L224.002 193.808L223.58 193.834L223.153 193.858L222.72 193.879L222.282 193.898L221.841 193.913L221.171 193.932L220.72 193.942L220.267 193.948L219.811 193.952L219.124 193.953L218.664 193.949L217.973 193.939L217.512 193.929L217.051 193.916L216.591 193.9L216.132 193.881L215.674 193.859L215.219 193.834L214.765 193.805C214.615 193.795 214.465 193.785 214.315 193.774C213.704 193.729 213.246 193.198 213.29 192.587C213.335 191.977 213.866 191.518 214.477 191.563L214.956 191.596C215.036 191.601 215.117 191.606 215.197 191.611L215.682 191.638L216.17 191.662L216.661 191.682C216.743 191.685 216.824 191.688 216.907 191.691L217.399 191.706C217.481 191.708 217.564 191.71 217.646 191.712L218.139 191.721L218.633 191.728L219.125 191.731L219.616 191.731L220.104 191.727L220.59 191.721L221.072 191.712L221.549 191.699L222.256 191.675L222.72 191.656L223.178 191.634L223.628 191.609L224.07 191.582L224.504 191.552L224.928 191.519L225.342 191.485L225.746 191.448L226.139 191.408L226.519 191.367L226.888 191.323L227.242 191.277C227.3 191.27 227.358 191.262 227.415 191.254L227.748 191.205C227.803 191.197 227.856 191.188 227.91 191.18L228.221 191.129L228.516 191.075C228.611 191.057 228.704 191.039 228.794 191.02L229.056 190.964C229.308 190.906 229.534 190.846 229.73 190.784L229.809 190.758L229.818 190.464C229.949 186.306 230.558 181.489 231.56 176.154L231.731 175.261C231.847 174.661 231.968 174.056 232.093 173.445L232.285 172.523C232.35 172.214 232.417 171.904 232.484 171.592L232.69 170.653L232.903 169.705L233.12 168.757C234.271 163.785 235.403 159.565 236.808 154.753L237.053 153.917L230.522 155.766L226.05 157.026L218.221 159.217L214.562 160.231L211.104 161.175L209.327 161.648L208.391 161.89L208.283 161.917L208.294 162.149L208.306 162.5L208.313 162.867L208.317 163.248L208.317 163.643L208.313 164.053C208.312 164.123 208.31 164.193 208.309 164.264L208.299 164.695L208.286 165.14L208.268 165.598L208.247 166.07L208.209 166.801L208.179 167.304L208.127 168.082L208.088 168.616L208.046 169.161L208 169.717L207.925 170.572L207.842 171.451L207.783 172.05L207.688 172.967L207.586 173.906L207.516 174.53C207.446 175.139 206.897 175.575 206.288 175.506C205.68 175.436 205.243 174.886 205.313 174.278L205.413 173.386L205.507 172.513L205.594 171.66L205.674 170.828L205.771 169.751L205.836 168.97L205.894 168.213L205.945 167.48L205.976 167.005L206.003 166.543L206.026 166.091L206.047 165.653L206.071 165.017L206.084 164.61L206.093 164.215L206.098 163.834C206.099 163.772 206.099 163.71 206.1 163.649L206.1 163.288L206.097 162.941L206.091 162.609L206.081 162.291L206.068 161.988C206.065 161.939 206.063 161.89 206.06 161.842L206.041 161.562L206.019 161.297C206.015 161.254 206.011 161.212 206.006 161.17C205.947 160.601 206.331 160.08 206.893 159.968L207.088 159.926L207.613 159.8L208.649 159.535L210.459 159.053L213.342 158.267L218.295 156.895L222.844 155.624L229.017 153.887L236.074 151.89L238.385 151.234C239.227 150.994 240.001 151.779 239.751 152.617Z" fill="#1B3C87"/>
<path d="M248.734 140.23C252.74 121.593 244.168 103.945 229.587 100.811C215.007 97.6771 199.94 110.245 195.934 128.882C191.929 147.519 200.501 165.168 215.081 168.302C229.662 171.436 244.729 158.868 248.734 140.23Z" fill="white"/>
<path d="M195.38 150.139C195.947 149.871 196.624 150.114 196.891 150.682C200.294 157.892 205.967 162.811 212.806 164.279C215.529 164.862 218.342 164.885 221.075 164.346C221.69 164.225 222.287 164.626 222.409 165.241C222.53 165.856 222.129 166.454 221.514 166.575C218.479 167.173 215.355 167.147 212.33 166.5C204.759 164.875 198.528 159.472 194.837 151.651C194.569 151.084 194.812 150.407 195.38 150.139Z" fill="#1B3C87"/>
<path d="M192.328 125.74C196.46 106.531 212.065 93.5065 227.33 96.7776C242.592 100.048 251.475 118.347 247.346 137.548C246.491 141.567 245.08 145.448 243.156 149.079C242.862 149.634 242.174 149.845 241.62 149.551C241.066 149.257 240.855 148.57 241.149 148.016C242.975 144.571 244.313 140.888 245.125 137.072C249.012 118.994 240.752 101.977 226.854 98.9987C212.951 96.0195 198.439 108.132 194.547 126.222C193.494 131.036 193.309 136 194.002 140.879C194.09 141.5 193.658 142.075 193.037 142.163C192.416 142.251 191.841 141.819 191.753 141.198C191.022 136.051 191.217 130.815 192.328 125.74Z" fill="#1B3C87"/>
<path d="M249.397 143.067C249.933 141.264 255.371 130.986 254.836 114.621C254.488 103.854 245.98 82.7071 246.001 79.9001C246.072 70.9856 236.722 66.932 232.317 82.6736C230.644 77.8462 227.151 70.9856 223.507 70.9856C219.864 70.9856 213.936 77.0011 212.409 87.3338C211.903 84.029 208.937 80.2223 207.243 80.2223C205.548 80.2223 201.482 80.4774 201.654 94.5374C200.298 92.8432 197.333 91.8266 195.797 91.8266C192.651 91.8266 188.238 106.932 200.775 116.696C201.478 115.366 203.448 112.555 203.566 112.555C205.871 113.178 228.159 118.738 241.688 120.599C241.349 122.628 236.701 143.854 241.859 150.279C245.271 149.037 248.005 146.421 249.397 143.067Z" fill="#EDCA55"/>
<path d="M208.646 130.837C208.798 130.229 209.414 129.858 210.023 130.01C210.632 130.161 211.002 130.778 210.851 131.386C210.563 132.54 209.654 134.027 208.54 135.388L208.306 135.668C207.008 137.196 205.48 138.52 204.337 138.964C203.752 139.191 203.094 138.902 202.867 138.317C202.648 137.755 202.908 137.125 203.448 136.875L203.514 136.847C204.12 136.611 204.981 135.905 205.828 135.025L206.048 134.792C206.158 134.673 206.267 134.552 206.375 134.429L206.589 134.181C206.73 134.014 206.869 133.845 207.003 133.675L207.201 133.419C207.913 132.478 208.473 131.532 208.646 130.837Z" fill="#1B3C87"/>
<path d="M226.131 130.265C226.684 128.762 226.41 127.278 225.519 126.95C224.628 126.623 223.457 127.575 222.904 129.077C222.351 130.58 222.626 132.064 223.517 132.392C224.408 132.72 225.578 131.767 226.131 130.265Z" fill="#1B3C87"/>
<path d="M218.507 148.087C218.766 147.516 219.439 147.263 220.011 147.522C220.582 147.781 220.835 148.454 220.576 149.025C220.223 149.802 219.344 150.803 218.261 151.758L217.997 151.986C217.417 152.477 216.789 152.95 216.158 153.367L215.866 153.555C214.749 154.26 213.644 154.77 212.8 154.875C212.177 154.952 211.61 154.51 211.533 153.887C211.459 153.289 211.864 152.741 212.449 152.631L212.52 152.62C213.007 152.56 213.711 152.228 214.467 151.759L214.721 151.598C214.764 151.571 214.806 151.543 214.849 151.514L215.107 151.34L215.365 151.158L215.622 150.971L215.877 150.778C215.961 150.713 216.045 150.647 216.128 150.581L216.375 150.381C216.497 150.28 216.617 150.179 216.733 150.078L216.962 149.875L217.182 149.674C217.217 149.641 217.253 149.607 217.287 149.574L217.49 149.376L217.68 149.182C218.046 148.798 218.326 148.443 218.473 148.157L218.507 148.087Z" fill="#1B3C87"/>
<path d="M238.085 117.04C238.21 116.425 238.809 116.028 239.424 116.152C240.039 116.276 240.436 116.875 240.312 117.49C239.395 122.026 238.722 126.608 238.297 131.216C238.239 131.841 237.686 132.3 237.061 132.243C236.437 132.185 235.977 131.632 236.035 131.007C236.468 126.318 237.152 121.656 238.085 117.04Z" fill="#1B3C87"/>
<path d="M204.745 75.7566C206.181 75.7566 207.897 77.2622 209.187 79.2492L209.346 79.5C209.425 79.6266 209.501 79.7549 209.576 79.8846L209.722 80.146C209.89 80.4531 210.046 80.7672 210.189 81.0852L210.309 81.3587C210.444 81.6786 210.565 82.0016 210.67 82.3243L210.755 82.6008C210.878 83.0153 210.972 83.4279 211.034 83.8319C211.129 84.452 210.704 85.0316 210.084 85.1266C209.464 85.2215 208.884 84.7959 208.789 84.1759C208.58 82.8117 207.846 81.2075 206.863 79.8873C206.005 78.7347 205.098 78.0281 204.745 78.0281C203.604 78.0281 202.935 78.2922 202.198 79.4048C201.811 79.9885 201.475 80.7499 201.197 81.7027L201.115 81.9942L201.037 82.2974C200.999 82.4519 200.962 82.6107 200.927 82.7739L200.858 83.1063C200.824 83.2755 200.792 83.4491 200.761 83.6272L200.701 83.9893C200.692 84.0507 200.682 84.1126 200.673 84.1749L200.619 84.5552C200.61 84.6196 200.602 84.6845 200.593 84.7499L200.545 85.1484C200.537 85.2159 200.53 85.2838 200.523 85.3523L200.48 85.7693C200.474 85.8399 200.467 85.9109 200.461 85.9825L200.425 86.4181L200.393 86.8663C200.388 86.9421 200.383 87.0184 200.378 87.0952L200.352 87.5623C200.348 87.6412 200.345 87.7207 200.341 87.8007L200.321 88.287C200.316 88.4512 200.311 88.6176 200.306 88.7861L200.295 89.2982C200.294 89.3846 200.293 89.4716 200.292 89.5591L200.287 90.0908L200.287 90.6356C200.288 90.8194 200.29 91.0054 200.292 91.1936C200.305 92.2741 198.945 92.7608 198.27 91.917C197.312 90.7195 194.915 89.6867 193.416 89.6346L193.303 89.6331L193.254 89.66C193.165 89.7098 193.055 89.8006 192.932 89.9335C192.628 90.2646 192.314 90.7863 192.034 91.4501C191.387 92.9881 191.012 95.0526 191.043 97.254C191.116 102.423 193.274 107.456 197.746 111.446L197.974 111.646L198.027 111.562C198.225 111.248 198.443 110.915 198.672 110.574L198.956 110.155L199.154 109.867L199.346 109.594L199.527 109.34L199.771 109.006L199.905 108.829L200.021 108.682L200.072 108.62C200.126 108.555 200.175 108.501 200.225 108.451C200.501 108.176 200.618 108.089 201.068 108.089C201.169 108.089 201.269 108.102 201.366 108.129L202.276 108.371L203.329 108.643L204.723 108.994L206.509 109.432L208.731 109.966L210.59 110.403L212.541 110.856L214.86 111.384L216.945 111.851L219.062 112.318L220.583 112.648L221.585 112.863L222.745 113.109L223.899 113.351L225.044 113.589L226.175 113.82L227.292 114.045L228.389 114.263L229.464 114.472L230.514 114.673L231.536 114.864C232.153 114.978 232.561 115.57 232.447 116.187C232.333 116.804 231.741 117.212 231.124 117.098L230.13 116.912L229.11 116.718L228.066 116.514L227.002 116.304L225.919 116.086L224.822 115.862L223.711 115.633L222.592 115.398L221.466 115.16L219.728 114.787L217.391 114.276L214.755 113.689L212.508 113.179L210.043 112.608L208.004 112.128L206.102 111.671L204.599 111.303L203.232 110.962L202.015 110.651L201.483 110.511L201.367 110.672L201.109 111.036L200.83 111.438L200.625 111.74L200.426 112.038L200.234 112.33L200.051 112.613L199.878 112.884L199.719 113.142C199.693 113.184 199.668 113.225 199.644 113.265L199.506 113.497L199.385 113.708C199.348 113.775 199.313 113.838 199.282 113.897C198.952 114.522 198.138 114.697 197.58 114.262C191.711 109.692 188.861 103.577 188.772 97.2861C188.766 96.8274 188.775 96.3727 188.799 95.9247L188.82 95.59C188.824 95.5345 188.829 95.4791 188.833 95.4237L188.862 95.0934C188.883 94.8742 188.908 94.6572 188.937 94.4427L188.982 94.1228L189.032 93.8069L189.087 93.4953L189.147 93.1883C189.22 92.8329 189.303 92.4873 189.395 92.1535L189.476 91.8703C189.587 91.4966 189.71 91.139 189.844 90.8003L189.946 90.5499C190.764 88.6167 191.947 87.361 193.3 87.361C194.667 87.361 196.449 87.9048 197.934 88.7669L198.033 88.8255L198.046 88.3667L198.067 87.8262C198.082 87.4703 198.1 87.1232 198.122 86.7849L198.158 86.2839C198.177 86.0366 198.198 85.7942 198.22 85.5567L198.268 85.0879C198.604 82.0056 199.269 79.7725 200.233 78.2601L200.304 78.1501C201.528 76.3041 202.914 75.7566 204.745 75.7566Z" fill="#1B3C87"/>
<path d="M246.676 87.4357C247.274 87.2449 247.913 87.5748 248.103 88.1723L248.451 89.2666L248.896 90.6886L249.322 92.069L249.628 93.0774L249.825 93.737L250.017 94.3867L250.296 95.3427L250.476 95.9679L250.651 96.5834L250.903 97.4888L251.143 98.3731L251.297 98.9511L251.446 99.5198L251.59 100.08L251.728 100.63L251.861 101.172L251.99 101.705L252.112 102.23L252.23 102.746L252.343 103.253L252.45 103.752C252.467 103.835 252.484 103.917 252.501 103.999L252.601 104.485L252.695 104.964L252.784 105.434L252.868 105.897L252.946 106.352L253.019 106.799C253.031 106.873 253.042 106.946 253.054 107.019L253.119 107.455L253.179 107.883C253.188 107.954 253.198 108.024 253.207 108.094L253.259 108.511L253.305 108.921L253.347 109.323C253.353 109.39 253.359 109.456 253.365 109.522L253.399 109.914L253.427 110.299C253.431 110.363 253.435 110.426 253.439 110.489L253.459 110.864C253.462 110.926 253.464 110.987 253.467 111.049L253.473 111.232C253.783 119.452 252.527 127.656 249.773 135.407C249.563 135.999 248.914 136.307 248.323 136.097C247.732 135.887 247.423 135.238 247.633 134.647C250.239 127.311 251.455 119.554 251.219 111.77L251.203 111.312C251.199 111.197 251.195 111.08 251.189 110.963L251.17 110.607L251.146 110.244L251.116 109.873C251.11 109.811 251.105 109.748 251.099 109.685L251.061 109.303L251.018 108.914L250.97 108.517C250.962 108.451 250.953 108.383 250.944 108.316L250.888 107.908L250.827 107.491C250.816 107.421 250.805 107.351 250.794 107.28L250.725 106.852L250.651 106.416C250.638 106.343 250.625 106.269 250.612 106.195L250.53 105.747L250.397 105.059L250.302 104.59L250.202 104.112L250.097 103.627L249.987 103.132L249.812 102.375L249.625 101.597L249.494 101.068L249.289 100.257L249.145 99.7052L248.997 99.1442L248.764 98.2854L248.521 97.4057L248.266 96.5047L248.09 95.8921L247.816 94.9551L247.531 93.9962L247.134 92.683L246.823 91.6718L246.391 90.288L245.939 88.863C245.749 88.2654 246.078 87.6264 246.676 87.4357Z" fill="#1B3C87"/>
<path d="M243.365 153.752C247.177 153.752 250.268 150.661 250.268 146.849C250.268 143.037 247.177 139.947 243.365 139.947C239.553 139.947 236.463 143.037 236.463 146.849C236.463 150.661 239.553 153.752 243.365 153.752Z" fill="white"/>
<path d="M239.702 137.179C243.092 136.051 246.821 137.296 248.852 140.236C250.884 143.175 250.731 147.103 248.477 149.876C246.224 152.649 242.41 153.601 239.117 152.213C238.539 151.969 238.268 151.303 238.512 150.725C238.756 150.147 239.422 149.876 240 150.12C242.362 151.116 245.098 150.433 246.715 148.443C248.332 146.454 248.441 143.636 246.984 141.527C245.526 139.419 242.851 138.525 240.419 139.334C239.824 139.533 239.181 139.211 238.983 138.615C238.785 138.02 239.107 137.377 239.702 137.179Z" fill="#1B3C87"/>
</g>
<defs>
<clipPath id="clip0">
<rect width="420" height="420" fill="white"/>
</clipPath>
</defs>
</svg>
