<svg width="576" height="68" viewBox="0 0 576 68" fill="none" xmlns="http://www.w3.org/2000/svg">
<path d="M36.252 32.5454C35.8748 32.9172 35.586 33.3659 35.4061 33.8595C35.2261 34.3531 35.1595 34.8795 35.211 35.4012L35.1931 35.3837C35.246 35.9978 35.1615 36.6158 34.9454 37.1946C34.7293 37.7734 34.387 38.2991 33.9421 38.7348C33.4973 39.1706 32.9608 39.5061 32.3699 39.7177C31.7791 39.9294 31.1483 40.0122 30.5214 39.9604L30.5393 39.9779C29.7895 39.9095 29.0364 40.0694 28.3827 40.4357C27.729 40.802 27.2065 41.3569 26.8865 42.0247C26.5665 42.6926 26.4646 43.4409 26.5946 44.1676C26.7246 44.8943 27.0802 45.564 27.6129 46.0854C28.1457 46.6069 28.8296 46.9547 29.5715 47.0814C30.3134 47.2081 31.0771 47.1075 31.7585 46.7934C32.4399 46.4793 33.0059 45.967 33.3792 45.3262C33.7525 44.6855 33.915 43.9475 33.8445 43.213L33.8634 43.2305C33.8105 42.6164 33.895 41.9984 34.1111 41.4196C34.3272 40.8408 34.6696 40.3152 35.1144 39.8794C35.5592 39.4436 36.0958 39.1082 36.6866 38.8965C37.2774 38.6848 37.9082 38.602 38.5351 38.6539L38.5162 38.6363C39.1287 38.6903 39.7452 38.5919 40.3086 38.3503C40.872 38.1087 41.364 37.7316 41.739 37.2541C42.114 36.7766 42.36 36.2141 42.454 35.6187C42.548 35.0233 42.4871 34.4143 42.2769 33.8481C42.0667 33.2819 41.714 32.7768 41.2515 32.3797C40.789 31.9826 40.2317 31.7063 39.6312 31.5764C39.0306 31.4465 38.4064 31.4672 37.8162 31.6366C37.226 31.806 36.689 32.1186 36.255 32.5454H36.252Z" fill="#66788A"/>
<path d="M28.9101 37.6791L28.8912 37.6615C29.424 37.7141 29.962 37.6501 30.4664 37.474C30.9709 37.2979 31.429 37.0142 31.8078 36.6434C32.1866 36.2726 32.4765 35.8239 32.6566 35.3299C32.8368 34.8359 32.9026 34.3088 32.8493 33.7868L32.8682 33.8044C32.8153 33.1903 32.8998 32.5723 33.1158 31.9935C33.3319 31.4147 33.6743 30.889 34.1191 30.4532C34.564 30.0174 35.1005 29.682 35.6913 29.4703C36.2821 29.2587 36.913 29.1759 37.5398 29.2277L37.5209 29.2102C38.2708 29.2791 39.0242 29.1198 39.6783 28.754C40.3323 28.3881 40.8553 27.8334 41.1758 27.1657C41.4962 26.4979 41.5987 25.7496 41.4691 25.0227C41.3394 24.2958 40.9841 23.6258 40.4515 23.1041C39.9189 22.5823 39.235 22.2342 38.4931 22.1072C37.7511 21.9802 36.9872 22.0806 36.3056 22.3945C35.624 22.7085 35.0579 23.2208 34.6844 23.8616C34.3109 24.5024 34.1483 25.2404 34.2187 25.9751L34.2008 25.9566C34.2539 26.5707 34.1695 27.1888 33.9535 27.7677C33.7375 28.3466 33.3951 28.8723 32.9502 29.3081C32.5054 29.7439 31.9688 30.0794 31.3779 30.291C30.787 30.5026 30.156 30.5853 29.5292 30.5332L29.5471 30.5518C29.0143 30.4992 28.4762 30.5632 27.9718 30.7393C27.4674 30.9154 27.0092 31.1991 26.6305 31.5699C26.2517 31.9407 25.9618 32.3893 25.7816 32.8834C25.6015 33.3774 25.5357 33.9045 25.589 34.4264L25.5711 34.4089C25.6238 35.023 25.5392 35.6409 25.3231 36.2196C25.1069 36.7984 24.7645 37.3239 24.3198 37.7597C23.875 38.1954 23.3385 38.5309 22.7478 38.7426C22.157 38.9543 21.5263 39.0373 20.8994 38.9856L20.9174 39.0031C20.1675 38.9341 19.4141 39.0935 18.76 39.4593C18.1059 39.8252 17.583 40.3799 17.2625 41.0476C16.942 41.7154 16.8396 42.4637 16.9692 43.1906C17.0988 43.9175 17.4542 44.5875 17.9867 45.1092C18.5193 45.631 19.2032 45.9791 19.9452 46.1061C20.6872 46.2331 21.451 46.1327 22.1326 45.8187C22.8143 45.5048 23.3804 44.9925 23.7539 44.3517C24.1274 43.7109 24.29 42.9729 24.2196 42.2382L24.2385 42.2558C24.1856 41.6416 24.2701 41.0236 24.4861 40.4448C24.7022 39.866 25.0446 39.3404 25.4894 38.9046C25.9342 38.4688 26.4708 38.1334 27.0616 37.9217C27.6524 37.71 28.2833 37.6272 28.9101 37.6791V37.6791Z" fill="#66788A"/>
<path d="M22.24 35.7218C22.6173 35.3501 22.9061 34.9015 23.0858 34.4078C23.2656 33.9141 23.3319 33.3877 23.2801 32.866L23.299 32.8836C23.246 32.2693 23.3306 31.6511 23.5468 31.0721C23.7629 30.4932 24.1055 29.9674 24.5506 29.5316C24.9956 29.0958 25.5324 28.7604 26.1235 28.5489C26.7145 28.3373 27.3456 28.2548 27.9726 28.3069L27.9537 28.2893C28.7033 28.3581 29.4564 28.1987 30.1102 27.8329C30.7639 27.467 31.2866 26.9125 31.6069 26.245C31.9272 25.5774 32.0295 24.8294 31.8999 24.1027C31.7703 23.3761 31.4151 22.7064 30.8827 22.1848C30.3503 21.6633 29.6667 21.3153 28.925 21.1883C28.1833 21.0613 27.4197 21.1616 26.7383 21.4753C26.0569 21.7891 25.4909 22.3012 25.1174 22.9416C24.744 23.5821 24.5813 24.3199 24.6515 25.0543L24.6336 25.0367C24.6865 25.6508 24.602 26.2689 24.3859 26.8477C24.1699 27.4265 23.8275 27.9521 23.3826 28.3879C22.9378 28.8237 22.4013 29.1591 21.8105 29.3708C21.2196 29.5824 20.5888 29.6652 19.9619 29.6134L19.9799 29.631C19.3674 29.5771 18.7509 29.6757 18.1876 29.9174C17.6243 30.1591 17.1324 30.5362 16.7575 31.0138C16.3826 31.4913 16.1368 32.0538 16.0429 32.6492C15.9489 33.2446 16.0099 33.8536 16.2202 34.4197C16.4305 34.9859 16.7832 35.4909 17.2457 35.8879C17.7082 36.2849 18.2656 36.5612 18.8661 36.691C19.4666 36.8209 20.0908 36.8001 20.681 36.6307C21.2711 36.4613 21.808 36.1487 22.242 35.7218H22.24Z" fill="#66788A"/>
<path d="M53.0695 25.9971H56.0254V40.0889H53.0695V25.9971Z" fill="#66788A"/>
<path d="M57.6994 35.2633C57.6952 34.2506 57.998 33.2595 58.5692 32.4155C59.1405 31.5715 59.9546 30.9126 60.9085 30.5223C61.8623 30.1319 62.9129 30.0277 63.9273 30.2228C64.9416 30.4179 65.874 30.9035 66.6064 31.6181C67.3389 32.3328 67.8383 33.2443 68.0415 34.2372C68.2447 35.2301 68.1425 36.2598 67.7479 37.1958C67.3532 38.1318 66.6839 38.932 65.8247 39.4951C64.9655 40.0581 63.9551 40.3587 62.9214 40.3587C62.2352 40.3663 61.5544 40.2399 60.9186 39.9868C60.2829 39.7337 59.705 39.359 59.2188 38.8846C58.7326 38.4102 58.3478 37.8456 58.0869 37.2238C57.8261 36.602 57.6943 35.9355 57.6994 35.2633V35.2633ZM65.1875 35.2633C65.1752 34.8268 65.0318 34.4035 64.7753 34.0464C64.5187 33.6893 64.1604 33.4142 63.7452 33.2555C63.3299 33.0968 62.8761 33.0616 62.4405 33.1542C62.0049 33.2467 61.6069 33.4631 61.2961 33.7761C60.9853 34.0891 60.7756 34.485 60.6932 34.9141C60.6108 35.3433 60.6593 35.7867 60.8328 36.1889C61.0062 36.5912 61.2968 36.9345 61.6683 37.1758C62.0398 37.4171 62.4756 37.5458 62.9214 37.5458C63.2266 37.5538 63.5303 37.4997 63.8131 37.387C64.096 37.2743 64.352 37.1054 64.5649 36.8909C64.7778 36.6765 64.9431 36.4211 65.0502 36.141C65.1574 35.8609 65.2041 35.562 65.1875 35.2633V35.2633Z" fill="#66788A"/>
<path d="M79.9241 30.4371V39.6022C79.9241 42.845 77.3424 44.2159 74.7219 44.2159C73.7993 44.2835 72.8755 44.101 72.0518 43.6882C71.228 43.2754 70.5363 42.6484 70.0523 41.8759L72.5742 40.4475C72.7776 40.8502 73.1018 41.1824 73.5032 41.3997C73.9046 41.617 74.3642 41.709 74.8205 41.6633C75.1121 41.7029 75.409 41.6778 75.6894 41.5897C75.9697 41.5017 76.2262 41.353 76.44 41.1548C76.6538 40.9565 76.8193 40.7136 76.9244 40.4442C77.0294 40.1748 77.0712 39.8857 77.0468 39.5983V38.7159C76.7007 39.1308 76.2601 39.4604 75.7605 39.6783C75.2608 39.8963 74.7159 39.9964 74.1696 39.9707C72.8696 39.9306 71.6366 39.3964 70.7315 38.4813C69.8265 37.5663 69.3204 36.3421 69.3204 35.0679C69.3204 33.7937 69.8265 32.5695 70.7315 31.6545C71.6366 30.7394 72.8696 30.2052 74.1696 30.1651C74.7159 30.1394 75.2608 30.2395 75.7605 30.4574C76.2601 30.6754 76.7007 31.005 77.0468 31.4199V30.4352L79.9241 30.4371ZM77.0478 35.0694C77.0677 34.6027 76.9445 34.1409 76.6942 33.7433C76.4439 33.3458 76.0779 33.0307 75.6433 32.8387C75.2086 32.6467 74.7253 32.5865 74.2554 32.6659C73.7856 32.7452 73.3507 32.9606 73.0069 33.2841C72.663 33.6076 72.4258 34.0246 72.3258 34.4813C72.2259 34.938 72.2677 35.4135 72.446 35.8467C72.6242 36.28 72.9308 36.651 73.3261 36.9121C73.7214 37.1732 74.1874 37.3124 74.6642 37.3119C74.9748 37.3331 75.2865 37.2904 75.5791 37.1865C75.8718 37.0825 76.1391 36.9197 76.3636 36.7084C76.5882 36.4972 76.765 36.2422 76.8829 35.9599C77.0007 35.6776 77.0569 35.3742 77.0478 35.0694V35.0694Z" fill="#66788A"/>
<path d="M81.598 35.2633C81.5939 34.2506 81.8966 33.2595 82.4679 32.4155C83.0392 31.5715 83.8533 30.9126 84.8072 30.5223C85.761 30.1319 86.8116 30.0277 87.826 30.2228C88.8403 30.4179 89.7727 30.9035 90.5051 31.6181C91.2375 32.3328 91.737 33.2443 91.9402 34.2372C92.1433 35.2301 92.0412 36.2598 91.6465 37.1958C91.2519 38.1318 90.5826 38.932 89.7234 39.4951C88.8642 40.0581 87.8538 40.3587 86.8201 40.3587C86.1339 40.3663 85.453 40.2399 84.8173 39.9868C84.1816 39.7337 83.6037 39.359 83.1175 38.8846C82.6313 38.4102 82.2465 37.8456 81.9856 37.2238C81.7247 36.602 81.593 35.9355 81.598 35.2633V35.2633ZM89.0862 35.2633C89.0739 34.8268 88.9305 34.4035 88.674 34.0464C88.4174 33.6893 88.0591 33.4142 87.6439 33.2555C87.2286 33.0968 86.7748 33.0616 86.3392 33.1542C85.9036 33.2467 85.5055 33.4631 85.1947 33.7761C84.884 34.0891 84.6743 34.485 84.5919 34.9141C84.5094 35.3433 84.558 35.7867 84.7314 36.1889C84.9049 36.5912 85.1955 36.9345 85.567 37.1758C85.9385 37.4171 86.3743 37.5458 86.8201 37.5458C87.1253 37.5538 87.429 37.4997 87.7118 37.387C87.9947 37.2743 88.2507 37.1054 88.4636 36.8909C88.6765 36.6765 88.8417 36.4211 88.9489 36.141C89.0561 35.8609 89.1028 35.562 89.0862 35.2633Z" fill="#66788A"/>
<path d="M93.4205 27.8507C93.4205 27.5071 93.5245 27.1712 93.7194 26.8855C93.9143 26.5997 94.1913 26.377 94.5154 26.2455C94.8394 26.114 95.196 26.0796 95.54 26.1467C95.8841 26.2137 96.2001 26.3792 96.4481 26.6222C96.6961 26.8652 96.8651 27.1747 96.9335 27.5118C97.0019 27.8488 96.9668 28.1982 96.8326 28.5156C96.6983 28.8331 96.471 29.1045 96.1794 29.2954C95.8877 29.4863 95.5448 29.5882 95.194 29.5882C94.7251 29.5836 94.2767 29.3991 93.9451 29.0743C93.6135 28.7494 93.4252 28.3101 93.4205 27.8507V27.8507ZM93.7191 30.4374H96.676V40.09H93.7151L93.7191 30.4374Z" fill="#66788A"/>
<path d="M109.439 35.2639C109.473 35.9018 109.378 36.54 109.16 37.1419C108.941 37.7438 108.603 38.2974 108.166 38.7709C107.728 39.2445 107.199 39.6286 106.609 39.9011C106.02 40.1737 105.381 40.3294 104.729 40.3592C104.182 40.3885 103.634 40.298 103.126 40.0943C102.619 39.8906 102.164 39.5788 101.794 39.1814V43.9502H98.8386V30.4376H101.794V31.3443C102.164 30.9473 102.619 30.6357 103.127 30.4322C103.634 30.2286 104.182 30.1382 104.729 30.1675C105.381 30.1972 106.02 30.3528 106.61 30.6254C107.2 30.898 107.729 31.2822 108.166 31.7559C108.604 32.2295 108.942 32.7833 109.16 33.3854C109.379 33.9874 109.473 34.6258 109.439 35.2639V35.2639ZM106.483 35.2639C106.471 34.8121 106.324 34.3737 106.06 34.0036C105.795 33.6335 105.425 33.348 104.995 33.183C104.566 33.0179 104.096 32.9806 103.645 33.0757C103.195 33.1708 102.782 33.3941 102.46 33.7176C102.138 34.0412 101.921 34.4505 101.835 34.8946C101.749 35.3386 101.799 35.7975 101.978 36.2139C102.158 36.6303 102.458 36.9856 102.843 37.2355C103.227 37.4853 103.678 37.6185 104.139 37.6185C104.456 37.6323 104.772 37.5804 105.067 37.4661C105.361 37.3519 105.628 37.1779 105.85 36.9556C106.071 36.7332 106.242 36.4676 106.351 36.176C106.46 35.8845 106.505 35.5736 106.483 35.2639V35.2639Z" fill="#66788A"/>
<path d="M118.56 37.1931C118.56 39.4131 116.591 40.3589 114.463 40.3589C113.603 40.4352 112.74 40.2571 111.984 39.8476C111.229 39.438 110.617 38.816 110.226 38.0618L112.787 36.6334C112.89 36.982 113.113 37.2853 113.417 37.4925C113.722 37.6998 114.089 37.7985 114.459 37.7722C115.167 37.7722 115.523 37.5597 115.523 37.1745C115.523 36.1118 110.675 36.6724 110.675 33.333C110.675 31.228 112.488 30.1672 114.537 30.1672C115.308 30.1433 116.071 30.3223 116.746 30.6855C117.422 31.0487 117.986 31.5828 118.379 32.2322L115.857 33.5641C115.747 33.3112 115.562 33.0959 115.328 32.9449C115.093 32.7939 114.818 32.7139 114.537 32.7148C114.025 32.7148 113.709 32.9098 113.709 33.255C113.713 34.3558 118.56 33.6216 118.56 37.1931Z" fill="#66788A"/>
<path d="M129.358 30.4375V40.0901H126.402V39.1823C126.061 39.5829 125.628 39.8985 125.138 40.1032C124.648 40.308 124.116 40.396 123.585 40.3602C121.595 40.3602 119.903 38.9708 119.903 36.3626V30.4375H122.859V35.9385C122.834 36.1684 122.861 36.4008 122.937 36.6195C123.013 36.8383 123.137 37.0382 123.3 37.2052C123.463 37.3722 123.662 37.5024 123.881 37.5868C124.101 37.6711 124.337 37.7075 124.572 37.6935C125.656 37.6935 126.405 37.0763 126.405 35.7055V30.4404L129.358 30.4375Z" fill="#66788A"/>
<path d="M146.306 34.1624V40.0885H143.351V34.413C143.351 33.4477 142.878 32.8305 141.932 32.8305C140.947 32.8305 140.395 33.5062 140.395 34.645V40.0885H137.44V34.413C137.44 33.4477 136.967 32.8305 136.021 32.8305C135.035 32.8305 134.484 33.5062 134.484 34.645V40.0885H131.528V30.4359H134.484V31.3232C134.79 30.9296 135.193 30.6174 135.654 30.4152C136.115 30.2131 136.621 30.1273 137.124 30.1658C137.63 30.1416 138.134 30.2462 138.586 30.4693C139.038 30.6925 139.424 31.0266 139.705 31.4392C140.033 31.0076 140.466 30.6644 140.966 30.4417C141.466 30.219 142.015 30.1241 142.562 30.1658C144.825 30.1668 146.306 31.7493 146.306 34.1624Z" fill="#66788A"/>
<path d="M148.806 30.3779C150.018 30.3779 151 29.4158 151 28.229C151 27.0422 150.018 26.0801 148.806 26.0801C147.595 26.0801 146.613 27.0422 146.613 28.229C146.613 29.4158 147.595 30.3779 148.806 30.3779Z" fill="#66788A"/>
<path opacity="0.4" d="M202.031 42.9806L184.064 30.5183C182.244 29.2554 182.862 26.626 185.133 26.0077L204.228 20.7962C204.633 20.6494 205.066 20.6018 205.493 20.6572C205.919 20.7126 206.326 20.8696 206.68 21.1149C207.034 21.3603 207.325 21.6871 207.529 22.0681C207.732 22.4491 207.842 22.8734 207.849 23.3058L206.718 40.9785C206.584 43.0762 203.852 44.2434 202.031 42.9806Z" fill="#66788A"/>
<path opacity="0.4" d="M196.332 46.0577L185.748 25.2429C185.506 24.7667 185.399 24.2326 185.44 23.6994C185.481 23.1662 185.667 22.6547 185.979 22.2213C186.29 21.7879 186.715 21.4494 187.205 21.2432C187.696 21.0369 188.234 20.971 188.759 21.0525L208.375 24.0968C208.827 24.1669 209.255 24.3438 209.626 24.613C209.996 24.8821 210.298 25.2358 210.506 25.645C210.714 26.0542 210.822 26.5071 210.822 26.9666C210.822 27.4262 210.713 27.8791 210.505 28.2882L201.469 46.0587C201.226 46.5335 200.858 46.9318 200.405 47.2099C199.952 47.488 199.431 47.6351 198.9 47.635C198.37 47.6349 197.849 47.4876 197.396 47.2093C196.943 46.9311 196.575 46.5326 196.332 46.0577V46.0577Z" fill="#66788A"/>
<path opacity="0.4" d="M207.801 24.0069L198.023 22.4893L186.017 25.7672L190.809 35.1943L202.031 42.9808C202.278 43.1506 202.551 43.2808 202.838 43.3665L207.1 34.9848L207.801 24.0069Z" fill="#66788A"/>
<path d="M257.332 26.4397C257.332 26.0743 257.44 25.717 257.641 25.4131C257.843 25.1092 258.13 24.8723 258.466 24.7325C258.802 24.5926 259.171 24.556 259.528 24.6273C259.884 24.6986 260.212 24.8746 260.469 25.133C260.726 25.3915 260.901 25.7208 260.972 26.0792C261.043 26.4377 261.006 26.8093 260.867 27.1469C260.728 27.4846 260.493 27.7732 260.19 27.9762C259.888 28.1793 259.533 28.2877 259.169 28.2877C258.684 28.2827 258.219 28.0864 257.875 27.7409C257.532 27.3954 257.337 26.9283 257.332 26.4397V26.4397ZM257.638 29.191H260.702V39.4569H257.638V29.191Z" fill="#66788A"/>
<path d="M273.931 34.3241C273.967 35.0027 273.869 35.6816 273.642 36.3219C273.416 36.9622 273.066 37.5512 272.613 38.055C272.159 38.5588 271.611 38.9674 271 39.2575C270.389 39.5476 269.727 39.7133 269.052 39.7451C268.484 39.7762 267.917 39.6799 267.391 39.4632C266.864 39.2466 266.393 38.9149 266.01 38.4923V43.5639H262.947V29.1912H266.01V30.156C266.393 29.7335 266.864 29.4021 267.391 29.1856C267.917 28.9691 268.484 28.873 269.052 28.9042C269.727 28.9359 270.389 29.1015 271 29.3915C271.611 29.6814 272.159 30.09 272.613 30.5937C273.066 31.0974 273.416 31.6863 273.642 32.3265C273.869 32.9668 273.967 33.6456 273.931 34.3241ZM270.869 34.3241C270.857 33.8435 270.704 33.3771 270.43 32.9833C270.155 32.5895 269.772 32.2858 269.327 32.1103C268.881 31.9347 268.395 31.895 267.927 31.9962C267.46 32.0974 267.032 32.335 266.699 32.6793C266.365 33.0235 266.139 33.4591 266.051 33.9315C265.962 34.4039 266.014 34.8922 266.199 35.3352C266.385 35.7783 266.697 36.1563 267.095 36.4222C267.493 36.688 267.961 36.8297 268.439 36.8297C268.767 36.8446 269.095 36.7895 269.401 36.6679C269.707 36.5464 269.983 36.3613 270.213 36.1247C270.442 35.888 270.619 35.6053 270.732 35.295C270.845 34.9847 270.892 34.6538 270.869 34.3241V34.3241Z" fill="#66788A"/>
<path d="M283.384 36.3751C283.384 38.7366 281.342 39.7426 279.137 39.7426C278.246 39.8237 277.352 39.6341 276.569 39.1984C275.786 38.7627 275.152 38.1008 274.747 37.2985L277.401 35.7799C277.509 36.1507 277.741 36.4731 278.056 36.6931C278.372 36.913 278.754 37.0173 279.137 36.9884C279.872 36.9884 280.239 36.7618 280.239 36.3519C280.239 35.222 275.216 35.8182 275.216 32.2653C275.216 30.0276 277.094 28.8987 279.222 28.8987C280.02 28.8735 280.811 29.064 281.511 29.4503C282.211 29.8366 282.795 30.4045 283.203 31.0951L280.59 32.512C280.476 32.2425 280.285 32.0129 280.042 31.8517C279.799 31.6905 279.513 31.6049 279.222 31.6057C278.691 31.6057 278.365 31.8071 278.365 32.1807C278.362 33.3589 283.384 32.5785 283.384 36.3751Z" fill="#66788A"/>
<path d="M294.578 29.1914V39.4573H291.515V38.4905C291.162 38.9164 290.712 39.252 290.205 39.4697C289.697 39.6875 289.146 39.7812 288.595 39.7433C286.533 39.7433 284.777 38.265 284.777 35.4925V29.1914H287.84V35.0434C287.814 35.2881 287.842 35.5355 287.921 35.7683C288 36.0012 288.128 36.214 288.297 36.3918C288.466 36.5696 288.672 36.7082 288.9 36.798C289.128 36.8877 289.372 36.9265 289.617 36.9115C290.739 36.9115 291.519 36.2549 291.519 34.7967V29.1914H294.578Z" fill="#66788A"/>
<path d="M312.132 33.1527V39.4568H309.069V33.4206C309.069 32.3944 308.579 31.7368 307.599 31.7368C306.578 31.7368 306.007 32.4558 306.007 33.6673V39.4568H302.943V33.4206C302.943 32.3944 302.454 31.7368 301.473 31.7368C300.453 31.7368 299.881 32.4558 299.881 33.6673V39.4568H296.818V29.1909H299.886V30.1315C300.203 29.7127 300.62 29.3805 301.098 29.1654C301.576 28.9502 302.1 28.859 302.622 28.8999C303.146 28.8741 303.668 28.9853 304.137 29.2227C304.606 29.4601 305.005 29.8155 305.297 30.2544C305.636 29.7952 306.086 29.4301 306.604 29.1932C307.122 28.9563 307.691 28.8554 308.258 28.8999C310.602 28.9039 312.132 30.5867 312.132 33.1527Z" fill="#66788A"/>
<path d="M314.727 29.1277C315.982 29.1277 317 28.1042 317 26.8417C317 25.5791 315.982 24.5557 314.727 24.5557C313.471 24.5557 312.453 25.5791 312.453 26.8417C312.453 28.1042 313.471 29.1277 314.727 29.1277Z" fill="#66788A"/>
<path d="M215.518 24.4697H218.581V39.4577H215.518V24.4697ZM220.316 34.3248C220.313 33.2485 220.627 32.1954 221.219 31.2989C221.811 30.4023 222.655 29.7026 223.643 29.2884C224.63 28.8742 225.718 28.7641 226.768 28.972C227.819 29.1799 228.784 29.6964 229.542 30.4563C230.3 31.2161 230.817 32.1851 231.027 33.2404C231.237 34.2958 231.131 35.3901 230.722 36.3847C230.313 37.3794 229.62 38.2297 228.73 38.828C227.841 39.4263 226.794 39.7457 225.724 39.7457C225.013 39.7534 224.308 39.6185 223.649 39.349C222.991 39.0795 222.392 38.6807 221.889 38.1761C221.386 37.6714 220.987 37.0709 220.717 36.4096C220.447 35.7483 220.311 35.0396 220.316 34.3248V34.3248ZM228.075 34.3248C228.063 33.8605 227.916 33.4101 227.65 33.0299C227.385 32.6497 227.014 32.3566 226.584 32.1873C226.154 32.0179 225.684 31.9798 225.232 32.0778C224.781 32.1757 224.368 32.4053 224.046 32.7379C223.724 33.0705 223.506 33.4913 223.42 33.9476C223.334 34.4039 223.384 34.8756 223.564 35.3035C223.743 35.7315 224.044 36.0967 224.429 36.3536C224.814 36.6105 225.265 36.7476 225.727 36.7477C226.043 36.7568 226.358 36.6999 226.651 36.5805C226.944 36.4612 227.21 36.2821 227.431 36.0545C227.652 35.8268 227.824 35.5556 227.935 35.2579C228.047 34.9602 228.096 34.6425 228.079 34.3248H228.075ZM243.347 29.1888V38.9421C243.347 42.3913 240.672 43.8485 237.957 43.8485C237.001 43.921 236.044 43.7276 235.191 43.2893C234.337 42.8511 233.62 42.185 233.118 41.3641L235.731 39.8444C235.942 40.2729 236.278 40.6264 236.694 40.8576C237.11 41.0889 237.586 41.1869 238.059 41.1385C238.361 41.1799 238.668 41.1527 238.958 41.0588C239.248 40.9649 239.514 40.8067 239.735 40.5958C239.956 40.385 240.127 40.127 240.236 39.8408C240.344 39.5545 240.388 39.2474 240.363 38.9421V37.9975C240.004 38.4386 239.547 38.7891 239.03 39.0208C238.512 39.2526 237.947 39.3591 237.381 39.3318C236.034 39.2897 234.755 38.7218 233.817 37.7484C232.878 36.775 232.354 35.4725 232.354 34.1168C232.354 32.7611 232.878 31.4586 233.817 30.4852C234.755 29.5118 236.034 28.9439 237.381 28.9018C237.947 28.8745 238.512 28.981 239.03 29.2128C239.547 29.4445 240.004 29.795 240.363 30.2361V29.1888H243.347ZM240.367 34.1163C240.387 33.6205 240.259 33.1299 240 32.7077C239.74 32.2854 239.361 31.9508 238.912 31.7469C238.462 31.543 237.961 31.479 237.475 31.5633C236.989 31.6475 236.538 31.8762 236.182 32.2197C235.826 32.5633 235.581 33.0061 235.477 33.4913C235.373 33.9764 235.416 34.4817 235.6 34.9422C235.784 35.4026 236.101 35.7972 236.509 36.0752C236.918 36.3531 237.4 36.5018 237.894 36.502C238.216 36.5248 238.539 36.4795 238.842 36.3692C239.145 36.2589 239.422 36.086 239.655 35.8616C239.888 35.6372 240.072 35.3662 240.194 35.0662C240.317 34.7661 240.375 34.4436 240.367 34.1193V34.1163ZM245.082 34.3177C245.078 33.2414 245.393 32.1884 245.985 31.2918C246.577 30.3953 247.42 29.6956 248.408 29.2814C249.396 28.8672 250.484 28.757 251.534 28.9649C252.584 29.1728 253.55 29.6894 254.308 30.4492C255.066 31.2091 255.582 32.178 255.792 33.2334C256.002 34.2887 255.896 35.383 255.488 36.3777C255.079 37.3724 254.386 38.2227 253.496 38.821C252.606 39.4193 251.56 39.7387 250.49 39.7387C249.779 39.7463 249.075 39.6117 248.417 39.3426C247.759 39.0735 247.161 38.6754 246.657 38.1715C246.154 37.6675 245.755 37.0679 245.485 36.4074C245.214 35.747 245.077 35.039 245.082 34.3248V34.3177ZM252.841 34.3177C252.829 33.8532 252.681 33.4024 252.416 33.0219C252.151 32.6414 251.78 32.348 251.35 32.1785C250.919 32.0089 250.449 31.9707 249.997 32.0687C249.545 32.1666 249.132 32.3964 248.81 32.7291C248.487 33.0619 248.269 33.483 248.184 33.9396C248.098 34.3962 248.148 34.8682 248.328 35.2963C248.507 35.7245 248.808 36.0899 249.193 36.3468C249.579 36.6037 250.03 36.7407 250.493 36.7407C250.808 36.7491 251.122 36.692 251.414 36.5728C251.706 36.4537 251.971 36.2751 252.191 36.0483C252.412 35.8215 252.583 35.5513 252.695 35.2547C252.807 34.9581 252.857 34.6415 252.841 34.3248V34.3177Z" fill="#66788A"/>
<path d="M366.537 16.6348C364.234 16.6348 361.954 17.0875 359.826 17.9669C357.698 18.8464 355.765 20.1354 354.136 21.7604C352.508 23.3855 351.216 25.3146 350.335 27.4378C349.454 29.561 349 31.8367 349 34.1348C349 36.4329 349.454 38.7086 350.335 40.8318C351.216 42.955 352.508 44.8841 354.136 46.5092C355.765 48.1342 357.698 49.4232 359.826 50.3027C361.954 51.1821 364.234 51.6348 366.537 51.6348V42.8848C365.386 42.8848 364.245 42.6585 363.181 42.2187C362.118 41.779 361.151 41.1345 360.337 40.322C359.523 39.5095 358.877 38.5449 358.436 37.4833C357.995 36.4217 357.769 35.2839 357.769 34.1348C357.769 32.9857 357.995 31.8479 358.436 30.7863C358.877 29.7247 359.523 28.7601 360.337 27.9476C361.151 27.1351 362.118 26.4906 363.181 26.0509C364.245 25.6111 365.386 25.3848 366.537 25.3848V16.6348Z" fill="#66788A"/>
<path d="M366.537 39.9684C369.766 39.9684 372.383 37.3567 372.383 34.1351C372.383 30.9134 369.766 28.3018 366.537 28.3018C363.309 28.3018 360.691 30.9134 360.691 34.1351C360.691 37.3567 363.309 39.9684 366.537 39.9684Z" fill="#66788A"/>
<path d="M349 34.1348C349 36.4329 349.454 38.7086 350.335 40.8318C351.216 42.955 352.508 44.8841 354.136 46.5092C355.765 48.1342 357.698 49.4232 359.826 50.3027C361.954 51.1821 364.234 51.6348 366.537 51.6348C368.84 51.6348 371.121 51.1821 373.248 50.3027C375.376 49.4232 377.309 48.1342 378.938 46.5092C380.566 44.8841 381.858 42.955 382.739 40.8318C383.62 38.7086 384.074 36.4329 384.074 34.1348H375.306C375.306 35.2839 375.079 36.4217 374.638 37.4833C374.197 38.5449 373.552 39.5095 372.737 40.322C371.923 41.1345 370.957 41.779 369.893 42.2187C368.829 42.6585 367.689 42.8848 366.537 42.8848C365.386 42.8848 364.245 42.6585 363.181 42.2187C362.118 41.779 361.151 41.1345 360.337 40.322C359.523 39.5095 358.877 38.5449 358.436 37.4833C357.995 36.4217 357.769 35.2839 357.769 34.1348H349Z" fill="#66788A"/>
<path d="M372.383 34.1352C372.383 32.5881 371.767 31.1044 370.671 30.0104C369.574 28.9164 368.088 28.3018 366.537 28.3018C364.987 28.3018 363.5 28.9164 362.404 30.0104C361.307 31.1044 360.691 32.5881 360.691 34.1352H366.537H372.383Z" fill="#66788A"/>
<path d="M393.233 27.5596H391.055V39.6346H393.233V27.5596Z" fill="#66788A"/>
<path d="M394.655 35.3564C394.655 38.1509 396.591 39.8759 399.15 39.8759C401.708 39.8759 403.644 38.1509 403.644 35.3564C403.644 32.5619 401.708 30.8369 399.15 30.8369C396.591 30.8369 394.655 32.5619 394.655 35.3564ZM396.833 35.3564C396.833 33.7004 397.802 32.7344 399.15 32.7344C400.498 32.7344 401.466 33.7004 401.466 35.3564C401.466 37.0124 400.498 37.9784 399.15 37.9784C397.802 37.9784 396.833 37.0124 396.833 35.3564Z" fill="#66788A"/>
<path d="M411.428 31.0784V32.2341H411.255C410.736 31.4924 409.907 30.8369 408.42 30.8369C406.38 30.8369 404.548 32.5619 404.548 35.2184C404.548 37.8749 406.38 39.5999 408.42 39.5999C409.907 39.5999 410.736 38.9271 411.221 38.2544H411.393V39.0824C411.393 40.7384 410.425 41.4974 409.008 41.4974C407.59 41.4974 406.864 40.7384 406.57 39.7551L404.617 40.6004C405.067 41.8941 406.38 43.3259 409.042 43.3259C411.774 43.3259 413.571 41.8941 413.571 39.1341V31.0784H411.428ZM409.077 37.7369C407.729 37.7369 406.726 36.7709 406.726 35.2184C406.726 33.6659 407.729 32.6999 409.077 32.6999C410.425 32.6999 411.428 33.6659 411.428 35.2184C411.428 36.7709 410.425 37.7369 409.077 37.7369Z" fill="#66788A"/>
<path d="M414.981 35.3564C414.981 38.1509 416.917 39.8759 419.475 39.8759C422.033 39.8759 423.969 38.1509 423.969 35.3564C423.969 32.5619 422.033 30.8369 419.475 30.8369C416.917 30.8369 414.981 32.5619 414.981 35.3564ZM417.159 35.3564C417.159 33.7004 418.127 32.7344 419.475 32.7344C420.823 32.7344 421.791 33.7004 421.791 35.3564C421.791 37.0124 420.823 37.9784 419.475 37.9784C418.127 37.9784 417.159 37.0124 417.159 35.3564Z" fill="#66788A"/>
<path d="M425.679 28.5948C425.679 29.4746 426.354 30.0783 427.218 30.0783C428.082 30.0783 428.757 29.4746 428.757 28.5948C428.757 27.7151 428.082 27.1113 427.218 27.1113C426.354 27.1113 425.679 27.7151 425.679 28.5948ZM428.307 31.0788H426.129V39.6348H428.307V31.0788Z" fill="#66788A"/>
<path d="M430.248 43.0844H432.426V38.5304H432.599C433.083 39.2204 433.912 39.8759 435.4 39.8759C437.439 39.8759 439.272 38.1509 439.272 35.3564C439.272 32.5619 437.439 30.8369 435.4 30.8369C433.912 30.8369 433.083 31.4924 432.565 32.2342H432.391V31.0784H430.248V43.0844ZM434.742 38.0129C433.394 38.0129 432.391 37.0469 432.391 35.3564C432.391 33.6659 433.394 32.6999 434.742 32.6999C436.091 32.6999 437.093 33.6659 437.093 35.3564C437.093 37.0469 436.091 38.0129 434.742 38.0129Z" fill="#66788A"/>
<path d="M440.542 33.4762C440.542 35.1667 441.959 35.7877 443.757 36.1327L444.207 36.2189C445.278 36.4259 445.763 36.6847 445.763 37.2367C445.763 37.7887 445.278 38.2199 444.276 38.2199C443.273 38.2199 442.462 37.8059 442.236 36.5639L440.231 37.0814C440.525 38.8754 442.029 39.8759 444.276 39.8759C446.454 39.8759 447.872 38.8582 447.872 37.0642C447.872 35.2701 446.42 34.7872 444.484 34.4077L444.034 34.3214C443.135 34.1489 442.651 33.9074 442.651 33.3382C442.651 32.8207 443.101 32.4929 443.931 32.4929C444.76 32.4929 445.348 32.8379 445.555 33.7694L447.526 33.1657C447.111 31.7857 445.85 30.8369 443.931 30.8369C441.89 30.8369 440.542 31.7857 440.542 33.4762Z" fill="#66788A"/>
<path d="M457.656 39.6351V31.0791H455.478V35.4951C455.478 37.0821 454.7 38.0136 453.369 38.0136C452.193 38.0136 451.537 37.3754 451.537 36.0816V31.0791H449.358V36.1851C449.358 38.3069 450.69 39.7731 452.695 39.7731C454.268 39.7731 454.994 39.0831 455.34 38.3586H455.512V39.6351H457.656Z" fill="#66788A"/>
<path d="M459.588 31.0784V39.6344H461.766V34.5284C461.766 33.3554 462.32 32.6999 463.322 32.6999C464.186 32.6999 464.705 33.1829 464.705 34.1144V39.6344H466.883V34.5284C466.883 33.3554 467.436 32.6999 468.438 32.6999C469.303 32.6999 469.821 33.1829 469.821 34.1144V39.6344H472V34.0109C472 31.9409 470.72 30.9404 469.13 30.9404C467.73 30.9404 467.091 31.5614 466.676 32.2859H466.502C466.105 31.4752 465.396 30.9404 464.151 30.9404C462.907 30.9404 462.232 31.4924 461.905 32.1479H461.731V31.0784H459.588Z" fill="#66788A"/>
</svg>
