<svg width="472" height="421" viewBox="0 0 472 421" fill="none" xmlns="http://www.w3.org/2000/svg">
<path opacity="0.1" d="M342.683 54.511C373.392 88.7196 389.399 131.91 393.892 174.527C398.301 217.145 391.196 259.273 373.959 301.81C356.807 344.264 329.53 387.127 289.429 407.293C249.247 427.459 196.16 424.846 156.467 402.884C116.867 380.922 90.5634 339.529 63.5308 296.666C36.4981 253.803 8.64766 209.47 18.1217 174.446C27.5957 139.422 74.3112 113.788 114.412 81.2092C154.512 48.7148 187.916 9.2805 227.28 2.1774C266.647 -4.84366 311.975 20.3024 342.683 54.511Z" fill="white"/>
<path opacity="0.15" d="M1.08558 195.971L27.7469 269.658L54.4073 343.344C54.8589 344.592 56.4931 344.883 57.3488 343.868L107.854 283.944L158.36 224.019C159.216 223.004 158.651 221.443 157.344 221.21L80.1768 207.449L3.01081 193.687C1.70347 193.453 0.633897 194.722 1.08558 195.971ZM5.34639 197.607L79.5708 210.845L153.796 224.081L105.216 281.722L56.6355 339.362L30.9914 268.485L5.34639 197.607Z" fill="white"/>
<path fill-rule="evenodd" clip-rule="evenodd" d="M30.5045 64.0288H280.098V304.251H30.5045V64.0288Z" fill="#2C353F"/>
<path opacity="0.15" fill-rule="evenodd" clip-rule="evenodd" d="M102.894 103.497H241.985V113.094H102.894V103.497Z" fill="white"/>
<path opacity="0.15" fill-rule="evenodd" clip-rule="evenodd" d="M102.894 146.283H241.985V155.879H102.894V146.283Z" fill="white"/>
<path opacity="0.15" fill-rule="evenodd" clip-rule="evenodd" d="M102.894 189.067H241.985V198.665H102.894V189.067Z" fill="white"/>
<path opacity="0.15" d="M79.7765 97.8434C80.469 97.1893 81.5608 97.2202 82.2152 97.9124C82.8612 98.5959 82.8393 99.6685 82.1721 100.325L82.1461 100.35L66.0151 115.588C65.3594 116.207 64.3393 116.216 63.6734 115.614L63.6459 115.588L55.9267 108.302C55.234 107.648 55.2028 106.556 55.8569 105.864C56.5027 105.18 57.5753 105.141 58.269 105.769L58.2955 105.794L64.83 111.962L79.7765 97.8434Z" fill="white"/>
<path opacity="0.15" d="M79.7765 142.655C80.469 142.001 81.5608 142.032 82.2152 142.724C82.8612 143.407 82.8393 144.48 82.1721 145.137L82.1461 145.162L66.0151 160.399C65.3594 161.019 64.3393 161.027 63.6734 160.425L63.6459 160.4L55.9267 153.113C55.234 152.459 55.2028 151.368 55.8569 150.675C56.5027 149.992 57.5753 149.952 58.269 150.581L58.2955 150.605L64.83 156.774L79.7765 142.655Z" fill="white"/>
<path opacity="0.15" d="M79.7765 187.466C80.469 186.812 81.5608 186.843 82.2152 187.535C82.8612 188.219 82.8393 189.291 82.1721 189.948L82.1461 189.973L66.0151 205.211C65.3594 205.83 64.3393 205.839 63.6734 205.237L63.6459 205.211L55.9267 197.924C55.234 197.27 55.2028 196.179 55.8569 195.487C56.5027 194.803 57.5753 194.764 58.269 195.392L58.2955 195.417L64.83 201.585L79.7765 187.466Z" fill="white"/>
<path opacity="0.15" fill-rule="evenodd" clip-rule="evenodd" d="M102.894 231.854H241.985V241.451H102.894V231.854Z" fill="white"/>
<path opacity="0.15" fill-rule="evenodd" clip-rule="evenodd" d="M102.894 274.64H241.985V284.237H102.894V274.64Z" fill="white"/>
<path opacity="0.15" d="M410.097 195.914C376.131 195.914 348.596 223.439 348.596 257.393C348.596 291.347 376.131 318.872 410.097 318.872C444.062 318.872 471.596 291.347 471.596 257.393C471.596 223.439 444.063 195.914 410.097 195.914ZM410.097 199.363C442.157 199.363 468.146 225.343 468.146 257.393C468.146 289.442 442.156 315.423 410.097 315.423C378.037 315.423 352.046 289.442 352.046 257.393C352.046 225.344 378.036 199.363 410.097 199.363Z" fill="white"/>
<path fill-rule="evenodd" clip-rule="evenodd" d="M262.132 169.658C246.775 166.594 227.691 185.661 229.025 213.8L247.551 217.646C247.551 217.646 263.469 169.925 262.132 169.658Z" fill="#46DBC9"/>
<path d="M225.939 200.604C226.015 200.039 226.534 199.642 227.099 199.718C227.664 199.793 228.06 200.313 227.985 200.878C227.539 204.214 227.398 207.584 227.564 210.946C227.592 211.515 227.153 212 226.584 212.028C226.015 212.056 225.531 211.617 225.503 211.048C225.331 207.561 225.477 204.065 225.939 200.604Z" fill="#1B3C87"/>
<path d="M231.198 183.856C237.921 171.099 249.529 163.784 259.84 165.841C260.399 165.952 260.762 166.496 260.65 167.055C260.541 167.604 260.013 167.964 259.464 167.87L259.436 167.865C250.133 166.009 239.359 172.799 233.024 184.818C232.759 185.322 232.134 185.516 231.63 185.25C231.125 184.984 230.932 184.36 231.198 183.856Z" fill="#1B3C87"/>
<path fill-rule="evenodd" clip-rule="evenodd" d="M297.751 158.148C355.725 158.148 366.94 225.154 359.238 318.498C334.103 329.035 272.346 334.439 245.049 317.823C232.211 281.888 224.754 158.148 297.751 158.148Z" fill="#46DBC9"/>
<path fill-rule="evenodd" clip-rule="evenodd" d="M255.977 98.0243C255.977 73.435 270.829 53.501 289.151 53.501C307.472 53.501 322.323 73.435 322.323 98.0243C322.323 122.614 307.471 142.549 289.151 142.549C270.83 142.549 255.977 122.615 255.977 98.0243Z" fill="white"/>
<path fill-rule="evenodd" clip-rule="evenodd" d="M282.951 98.0555C282.951 95.9066 283.843 94.1689 284.941 94.1689C286.039 94.1689 286.932 95.9086 286.932 98.0555C286.932 100.202 286.041 101.94 284.941 101.94C283.841 101.94 282.951 100.201 282.951 98.0555Z" fill="#1B3C87"/>
<path d="M273.818 104.259C274.388 104.274 274.837 104.748 274.822 105.318C274.779 106.959 274.504 108.861 273.958 110.695C273.226 113.152 272.069 115.296 270.417 116.951C270.014 117.354 269.361 117.355 268.957 116.952C268.554 116.549 268.553 115.896 268.956 115.493C270.342 114.105 271.338 112.258 271.98 110.106C272.471 108.457 272.72 106.733 272.758 105.263C272.773 104.703 273.232 104.259 273.79 104.259L273.818 104.259Z" fill="#1B3C87"/>
<path d="M288.984 120.574C289.303 120.101 289.945 119.976 290.417 120.295C290.89 120.613 291.015 121.255 290.696 121.727C289.559 123.414 288.06 124.666 286.269 125.538C284.818 126.244 283.235 126.677 281.51 126.911C280.945 126.988 280.425 126.593 280.348 126.028C280.271 125.463 280.667 124.943 281.232 124.866C284.626 124.405 287.268 123.119 288.984 120.574Z" fill="#1B3C87"/>
<path d="M305.782 226.794C306.039 226.285 306.659 226.081 307.168 226.338L310.3 227.922L313.928 229.762L318.613 232.146L324.745 235.272L329.813 237.861L335.508 240.773L341.687 243.936L348.072 247.208L347.756 246.135L347.488 245.224L347.129 244.012L346.861 243.108L346.593 242.21L346.326 241.32L346.061 240.439L345.886 239.857L345.625 238.996L345.413 238.297L345.225 237.68L344.821 236.366L344.525 235.41L344.27 234.593L344.025 233.817L343.767 233.006L343.571 232.395L343.361 231.751L343.184 231.217L343.079 230.902L342.998 230.661L342.899 230.373L342.787 230.047L342.751 229.944C342.562 229.406 342.846 228.817 343.384 228.629C343.922 228.44 344.511 228.723 344.699 229.261L344.774 229.477L344.892 229.82L344.995 230.122L345.123 230.504L345.326 231.117L345.467 231.552L345.615 232.007L345.819 232.645L346.033 233.318L346.284 234.116L346.606 235.148L346.975 236.344L347.263 237.286L347.451 237.903L347.688 238.683L347.95 239.551L348.127 240.137L348.304 240.727L348.66 241.918L348.929 242.821L349.198 243.728L349.558 244.943L349.929 246.205L350.727 248.934C350.976 249.794 350.087 250.537 349.288 250.151L341.52 246.17L335.533 243.105L330.704 240.635L323.139 236.77L317.085 233.684L312.818 231.514L309.368 229.763L307.041 228.586L306.238 228.181C305.729 227.924 305.525 227.303 305.782 226.794Z" fill="#1B3C87"/>
<path d="M271.435 231.928C271.6 231.382 272.177 231.074 272.722 231.24C273.259 231.402 273.566 231.962 273.418 232.5L273.41 232.527L269.916 244.044C269.751 244.589 269.174 244.897 268.629 244.732C268.092 244.569 267.785 244.009 267.933 243.472L267.941 243.445L271.435 231.928Z" fill="#1B3C87"/>
<path d="M282.519 195.407C282.684 194.862 283.261 194.554 283.807 194.719C284.343 194.882 284.65 195.442 284.503 195.979L284.495 196.006L279.845 211.33C279.679 211.875 279.103 212.183 278.557 212.018C278.021 211.855 277.714 211.295 277.861 210.758L277.869 210.731L282.519 195.407Z" fill="#1B3C87"/>
<path d="M251.565 174.626C251.908 174.171 252.555 174.08 253.01 174.423C253.466 174.766 253.556 175.413 253.213 175.869C246.709 184.489 241.845 195.679 238.575 208.955C235.628 220.918 234.028 234.384 233.704 248.604C233.413 261.355 234.163 274.403 235.779 286.471C237.238 297.372 239.35 306.995 241.721 313.776L241.744 313.842L241.865 313.914C248.935 318.1 258.609 321.009 270.24 322.623L270.6 322.673C281.589 324.167 294.066 324.471 306.822 323.657C307.391 323.621 307.882 324.052 307.918 324.621C307.955 325.19 307.523 325.68 306.954 325.717C294.067 326.539 281.455 326.232 270.322 324.718C258.031 323.046 247.812 319.954 240.357 315.417C240.155 315.294 240.002 315.105 239.922 314.882C237.438 307.93 235.239 298.001 233.732 286.745C232.102 274.572 231.346 261.416 231.64 248.557C231.967 234.195 233.585 220.581 236.57 208.461C239.903 194.933 244.876 183.491 251.565 174.626Z" fill="#1B3C87"/>
<path d="M293.596 153.828C321.886 153.828 340.293 169.513 349.951 199.717C358.55 226.607 360.273 264.865 356.112 315.295C356.08 315.679 355.837 316.013 355.482 316.162C355.307 316.235 355.13 316.308 354.951 316.381L354.682 316.49L354.41 316.599L354.136 316.708C354.044 316.744 353.952 316.78 353.859 316.816L353.579 316.923C353.392 316.995 353.203 317.066 353.013 317.138L352.726 317.244L352.436 317.35C352.387 317.368 352.339 317.386 352.29 317.403L351.997 317.509C351.947 317.526 351.898 317.544 351.849 317.562L351.552 317.666L351.252 317.771C351.202 317.788 351.152 317.806 351.102 317.823L350.798 317.927C350.697 317.962 350.595 317.996 350.493 318.031L350.185 318.134L349.874 318.236L349.561 318.339L349.246 318.441C349.193 318.457 349.141 318.474 349.088 318.491L348.769 318.592L348.448 318.693L348.125 318.793L347.799 318.893L347.472 318.993L347.141 319.091L346.809 319.19L346.475 319.288C346.419 319.304 346.363 319.32 346.307 319.337L345.969 319.434L345.629 319.531L345.286 319.627C345.229 319.643 345.172 319.659 345.115 319.675L344.769 319.77L344.422 319.865L344.072 319.96L343.72 320.054L343.366 320.147C343.307 320.163 343.248 320.178 343.189 320.194L342.832 320.287C342.772 320.302 342.712 320.317 342.652 320.333L342.292 320.425L341.93 320.516C341.809 320.547 341.688 320.577 341.566 320.607C341.013 320.744 340.453 320.407 340.315 319.854C340.178 319.301 340.515 318.741 341.069 318.604L341.435 318.512L341.799 318.421L342.161 318.328L342.521 318.235C342.581 318.219 342.641 318.204 342.7 318.188L343.057 318.094L343.411 318L343.763 317.905C343.822 317.889 343.88 317.874 343.939 317.858L344.288 317.762L344.634 317.666L344.979 317.569L345.321 317.472L345.66 317.375L345.998 317.277L346.333 317.178L346.666 317.079C346.721 317.063 346.776 317.046 346.831 317.03L347.16 316.93L347.487 316.83L347.811 316.73L348.133 316.629C348.24 316.595 348.347 316.561 348.453 316.527L348.77 316.426L349.085 316.323L349.397 316.221C349.5 316.186 349.603 316.152 349.706 316.118L350.013 316.014C350.064 315.997 350.115 315.979 350.166 315.962L350.469 315.858C350.519 315.841 350.57 315.823 350.62 315.806L350.919 315.701L351.216 315.596C351.265 315.579 351.314 315.561 351.363 315.543L351.656 315.438C351.705 315.42 351.753 315.402 351.801 315.385L352.09 315.279C352.474 315.137 352.85 314.994 353.219 314.85L353.494 314.742C353.631 314.688 353.767 314.634 353.902 314.579L354.105 314.497L354.176 313.623C358.12 264.683 356.432 227.414 348.237 201.146L347.985 200.345C338.583 170.944 320.919 155.892 293.596 155.892C284.515 155.892 276.491 157.836 269.484 161.602C268.981 161.872 268.356 161.684 268.086 161.182C267.816 160.68 268.004 160.054 268.506 159.784C275.82 155.853 284.18 153.828 293.596 153.828Z" fill="#1B3C87"/>
<path d="M353.89 312.935C354.46 312.935 354.922 313.397 354.922 313.967L354.922 314.247L354.919 314.899L354.912 315.981L354.898 317.921L354.877 320.417L354.836 325.166L354.749 334.452L354.643 345.463L354.397 370.184L353.956 413.463C353.95 414.033 353.483 414.49 352.913 414.484C352.352 414.478 351.9 414.026 351.891 413.469L352.345 368.978L352.521 351.343L352.65 338.091L352.736 328.976L352.783 323.863L352.816 320.07L352.831 318.199L352.843 316.639L352.852 315.221L352.856 314.609L352.857 314.246L352.857 313.967C352.857 313.397 353.32 312.935 353.89 312.935Z" fill="#1B3C87"/>
<path fill-rule="evenodd" clip-rule="evenodd" d="M282.533 215.331C279.038 215.331 263.926 217.255 272.481 231.224C277.383 239.229 279.407 236.927 281.463 234.395C283.063 235.228 285.532 237.194 287.123 238.513C287.111 238.539 287.103 238.566 287.091 238.592C291.414 241.962 348.46 291.748 360.192 294.733C371.924 297.718 385.118 286.119 390.189 277.394C395.788 267.773 385.173 228.739 383.299 224.435C381.425 220.13 347.085 233.971 347.085 233.971C347.085 233.971 352.646 250.599 354.112 257.473C350.877 255.653 299.858 230.725 293.212 223.061C293.203 223.084 293.189 223.123 293.177 223.144C290.745 220.658 285.223 215.331 282.533 215.331Z" fill="white"/>
<path d="M240.108 312.026C240.669 312.026 241.125 312.474 241.139 313.031L241.139 313.059L241.069 403.215C241.068 403.785 240.606 404.246 240.036 404.246C239.476 404.246 239.02 403.798 239.005 403.241L239.005 403.214L239.075 313.057C239.076 312.487 239.538 312.026 240.108 312.026Z" fill="#1B3C87"/>
<path d="M283.087 369.274C283.642 369.144 284.197 369.489 284.327 370.043L285.491 375.024L286.792 380.605L288.141 386.407L289.335 391.554L290.564 396.86L292.363 404.643L294.341 413.22C294.469 413.776 294.123 414.33 293.567 414.458C293.012 414.586 292.458 414.239 292.33 413.684L291.003 407.928L289.285 400.492L287.628 393.332L285.837 385.613L284.311 379.055L282.849 372.788L282.317 370.514C282.187 369.959 282.532 369.404 283.087 369.274Z" fill="#1B3C87"/>
<path fill-rule="evenodd" clip-rule="evenodd" d="M317.571 116.461C317.383 118.726 312.473 156.926 314.235 170.519C310.018 174.105 280.836 174.633 281.437 169.26C282.445 160.26 284.585 146.291 282.758 139.176" fill="white"/>
<path d="M280.235 137.523C280.801 137.452 281.317 137.854 281.387 138.42C281.696 140.909 281.792 143.523 281.695 146.553L281.682 146.919C281.637 148.144 281.561 149.439 281.455 150.82L281.423 151.237L281.389 151.66C281.383 151.731 281.377 151.802 281.371 151.873L281.334 152.304L281.295 152.74L281.255 153.182L281.213 153.63C281.205 153.705 281.198 153.781 281.191 153.856L281.146 154.313L281.1 154.776C281.092 154.854 281.084 154.932 281.076 155.01L281.027 155.483C281.018 155.562 281.01 155.641 281.002 155.721L280.95 156.203C280.941 156.284 280.932 156.366 280.924 156.447L280.869 156.939L280.742 158.067L280.507 160.092L280.029 164.145L279.886 165.411C279.822 165.978 279.311 166.386 278.745 166.322C278.178 166.259 277.77 165.748 277.834 165.182L278.056 163.244L278.621 158.446L278.74 157.401L278.79 156.958L278.844 156.472L278.896 155.992L278.947 155.519L278.996 155.052L279.043 154.592C279.051 154.516 279.058 154.44 279.066 154.364L279.111 153.913C279.118 153.838 279.125 153.764 279.133 153.689L279.175 153.247C279.182 153.174 279.189 153.101 279.195 153.028L279.235 152.595C279.242 152.523 279.248 152.452 279.254 152.381L279.291 151.956C279.304 151.815 279.315 151.675 279.327 151.537L279.361 151.123C279.766 146.054 279.777 142.208 279.338 138.674C279.268 138.108 279.669 137.593 280.235 137.523Z" fill="#1B3C87"/>
<path d="M315.542 118.834L315.058 122.847L314.966 123.626L314.874 124.397C314.859 124.525 314.844 124.652 314.829 124.78L314.741 125.541L314.653 126.297C314.639 126.422 314.624 126.548 314.61 126.673L314.525 127.424L314.44 128.172C314.413 128.421 314.385 128.67 314.357 128.919L314.275 129.667L314.194 130.416L314.114 131.167C314.1 131.292 314.087 131.418 314.074 131.544L313.994 132.301C313.981 132.427 313.968 132.554 313.955 132.681L313.885 133.353L313.818 134.022C313.806 134.133 313.795 134.245 313.784 134.355L313.718 135.02L313.653 135.681L313.59 136.338L313.528 136.993L313.467 137.644C313.457 137.752 313.447 137.861 313.437 137.969L313.378 138.615C313.358 138.83 313.339 139.044 313.32 139.258L313.264 139.897L313.209 140.533L313.155 141.166C313.147 141.271 313.138 141.376 313.129 141.481L313.078 142.108L313.028 142.732L312.979 143.352L312.932 143.969C312.916 144.174 312.901 144.378 312.886 144.582L312.842 145.191L312.822 145.469L312.784 146.02L312.747 146.566C312.74 146.657 312.734 146.747 312.729 146.837L312.693 147.376C312.688 147.466 312.682 147.555 312.676 147.644L312.643 148.176C312.633 148.353 312.622 148.528 312.612 148.703L312.582 149.225L312.553 149.742C312.548 149.828 312.544 149.914 312.539 149.999L312.512 150.509L312.487 151.013L312.463 151.513L312.441 152.008L312.42 152.497L312.4 152.981L312.382 153.46L312.366 153.934L312.35 154.403L312.337 154.866C312.335 154.943 312.332 155.019 312.33 155.095L312.319 155.551C312.315 155.702 312.312 155.851 312.309 156.001L312.301 156.445L312.294 156.884C312.239 160.738 312.361 163.952 312.681 166.422C312.726 166.768 312.593 167.114 312.327 167.34C310.507 168.891 305.142 169.909 298.424 170.223C297.854 170.249 297.371 169.809 297.344 169.24C297.318 168.671 297.758 168.188 298.327 168.161C299.007 168.129 299.674 168.09 300.324 168.042L300.647 168.018C302.472 167.877 304.157 167.678 305.624 167.435L305.88 167.392C307.999 167.027 309.635 166.571 310.539 166.071L310.558 166.06L310.545 165.943C310.316 163.836 310.21 161.294 310.216 158.359L310.218 157.956C310.22 157.551 310.224 157.138 310.231 156.719L310.238 156.297L310.246 155.87C310.248 155.798 310.249 155.726 310.251 155.655L310.261 155.221C310.265 155.075 310.269 154.929 310.273 154.782L310.286 154.339C310.289 154.265 310.291 154.19 310.293 154.116L310.309 153.665C310.311 153.59 310.314 153.514 310.317 153.438L310.334 152.981L310.352 152.52L310.372 152.053C310.375 151.975 310.379 151.897 310.382 151.818L310.404 151.345L310.427 150.868C310.431 150.788 310.435 150.708 310.439 150.627L310.464 150.143L310.49 149.654L310.517 149.161L310.546 148.664L310.576 148.162L310.607 147.656L310.639 147.145L310.673 146.631C310.684 146.458 310.696 146.285 310.708 146.111L310.744 145.588C310.75 145.501 310.756 145.413 310.763 145.325L310.783 145.044L310.805 144.738L310.85 144.123C310.865 143.918 310.881 143.711 310.897 143.505L310.945 142.883C310.953 142.779 310.961 142.675 310.969 142.57L311.02 141.943L311.071 141.312L311.125 140.678C311.133 140.572 311.143 140.466 311.152 140.36L311.207 139.72L311.263 139.077L311.321 138.431C311.331 138.323 311.341 138.215 311.351 138.107L311.411 137.456L311.472 136.801C311.482 136.692 311.493 136.582 311.503 136.473L311.566 135.813L311.631 135.151L311.696 134.485C311.707 134.374 311.718 134.262 311.73 134.151L311.797 133.48L311.866 132.807L311.934 132.147L311.987 131.647L312.081 130.773L312.202 129.667L312.351 128.325L312.483 127.148L312.618 125.968L312.796 124.419L313.03 122.408L313.255 120.491L313.407 119.215L313.558 117.966L313.57 117.869C313.571 117.867 313.571 117.866 313.571 117.866L313.571 117.869L313.573 117.842C313.633 117.297 314.11 116.894 314.658 116.925L314.685 116.927C315.244 116.974 315.662 117.457 315.63 118.014L315.627 118.054L315.616 118.17L315.586 118.457L315.542 118.834Z" fill="#1B3C87"/>
<path d="M258.438 118.149C258.95 117.897 259.569 118.107 259.821 118.618C265.767 130.657 275.732 138 286.567 138C291.475 138 296.223 136.512 300.546 133.676C301.023 133.363 301.663 133.496 301.975 133.973C302.288 134.449 302.155 135.089 301.679 135.402C297.027 138.453 291.887 140.064 286.567 140.064C274.876 140.064 264.239 132.227 257.97 119.531C257.717 119.02 257.927 118.402 258.438 118.149Z" fill="#1B3C87"/>
<path d="M286.567 48.9575C305.536 48.9575 320.772 69.4073 320.772 94.5128C320.772 105.366 317.917 115.639 312.79 123.784C312.486 124.267 311.849 124.412 311.366 124.108C310.884 123.805 310.739 123.168 311.042 122.685C315.959 114.875 318.708 104.983 318.708 94.5128C318.708 70.4374 304.242 51.0214 286.567 51.0214C268.892 51.0214 254.426 70.4376 254.426 94.5137C254.422 98.0908 254.749 101.661 255.401 105.178C255.505 105.738 255.135 106.277 254.574 106.38C254.014 106.484 253.475 106.114 253.371 105.554C252.696 101.912 252.358 98.2157 252.361 94.5128C252.361 69.4076 267.598 48.9575 286.567 48.9575Z" fill="#1B3C87"/>
<path fill-rule="evenodd" clip-rule="evenodd" d="M319.477 122.547C323.198 123.221 329.486 103.126 330.769 91.0053C333.054 69.4127 310.401 41.9409 293.477 40.2423C290.155 39.9093 286.403 43.327 288.44 49.046C284.336 44.7423 273.577 39.0507 264.285 37.8561C250.168 36.0432 243.347 45.4212 243.347 49.5989C243.347 53.7765 245.881 66.8526 250.948 70.8925C246.854 70.8417 243.211 71.2178 242.756 74.532C241.351 84.752 247.146 93.9854 256.951 93.0419C257.635 87.2847 258.868 81.7113 260.886 77.9605C262.524 92.7156 300.049 87.7702 299.977 90.2336C299.693 99.723 310.959 99.724 311.349 99.9584C320.05 105.174 313.544 121.47 319.477 122.547Z" fill="#EDCA55"/>
<path d="M240.079 48.2471C240.642 48.1593 241.17 48.5446 241.258 49.1077C241.742 52.2148 242.593 55.6271 243.67 58.5364C243.734 58.7084 243.798 58.8782 243.863 59.0458L243.942 59.2458L244.02 59.4436C244.297 60.1321 244.584 60.7804 244.88 61.3849L244.965 61.5564C245.022 61.67 245.079 61.7819 245.136 61.8923L245.223 62.0566L245.309 62.2184C246.18 63.8244 247.121 65.0603 248.106 65.8467C248.874 66.4596 248.432 67.6974 247.45 67.6852C242.626 67.6253 240.584 68.3182 240.293 70.4331C239.123 78.9534 243.151 86.299 249.822 87.6214C250.381 87.7323 250.744 88.2753 250.633 88.8344C250.522 89.3934 249.979 89.7568 249.42 89.6459C241.56 88.0876 236.941 79.6653 238.248 70.1524C238.519 68.18 239.725 66.8939 241.671 66.2339C242.51 65.9493 243.453 65.7783 244.6 65.6909L244.783 65.6778C244.845 65.6736 244.907 65.6697 244.97 65.666L245.075 65.66L245.047 65.6247C243.817 64.0333 242.728 61.9109 241.776 59.3658L241.734 59.2532C240.606 56.2073 239.723 52.6626 239.218 49.4258C239.13 48.8626 239.515 48.3349 240.079 48.2471Z" fill="#1B3C87"/>
<path d="M245.987 35.3456C250.015 32.8897 255.083 31.8457 260.932 32.5932C265.437 33.1717 270.5 34.807 275.276 37.1159C275.514 37.2312 275.751 37.3478 275.986 37.4654L276.267 37.6071C278.927 38.9583 281.332 40.4483 283.234 41.9122L283.351 42.0028L283.35 41.9995C283.293 40.3262 283.72 38.8211 284.584 37.5915L284.627 37.5322C285.915 35.7413 288.026 34.7686 290.097 34.9762C299.061 35.8762 309.774 43.7221 317.79 54.813C318.124 55.275 318.02 55.92 317.558 56.2538C317.096 56.5876 316.45 56.4837 316.116 56.0218C308.413 45.3639 298.169 37.8609 289.891 37.0298C288.56 36.8964 287.164 37.5399 286.303 38.7374C285.299 40.132 285.091 42.1127 285.927 44.4595C286.301 45.5093 284.976 46.3243 284.207 45.5172C283.715 45 283.118 44.46 282.434 43.9092L282.268 43.7768C282.129 43.6662 281.986 43.5553 281.839 43.4441L281.662 43.3105C281.067 42.8648 280.419 42.4147 279.728 41.9664L279.519 41.832C279.414 41.7648 279.309 41.6977 279.202 41.6306L278.987 41.4966C278.915 41.452 278.842 41.4074 278.77 41.3628L278.55 41.2293C277.887 40.8292 277.194 40.4332 276.475 40.0456L276.234 39.9168C275.953 39.7668 275.667 39.6182 275.379 39.4712L275.13 39.3456C274.881 39.2205 274.63 39.0965 274.377 38.974C269.789 36.756 264.935 35.1881 260.67 34.6404C255.281 33.9518 250.686 34.8985 247.062 37.1077C246.575 37.4045 245.94 37.2506 245.643 36.764C245.346 36.2774 245.5 35.6424 245.987 35.3456Z" fill="#1B3C87"/>
<path d="M326.302 74.783C326.858 74.6584 327.411 75.0082 327.535 75.5643C328.417 79.4969 328.69 83.2988 328.311 86.8735C327.68 92.8389 325.834 100.848 323.598 107.466L323.489 107.786L323.407 108.024L323.326 108.259L323.244 108.493L323.162 108.725L323.079 108.955L322.997 109.183L322.915 109.409L322.833 109.633L322.75 109.855L322.668 110.075L322.585 110.293L322.502 110.508L322.42 110.722L322.337 110.933L322.254 111.142L322.172 111.349L322.089 111.554L322.006 111.756L321.924 111.956L321.841 112.154L321.758 112.35L321.676 112.543L321.593 112.734C321.579 112.765 321.566 112.797 321.552 112.828L321.469 113.015L321.387 113.2C321.373 113.231 321.359 113.261 321.346 113.292L321.263 113.473C321.25 113.503 321.236 113.533 321.222 113.562L321.14 113.74L321.058 113.915C321.044 113.944 321.03 113.973 321.017 114.001L320.935 114.172L320.853 114.341L320.771 114.507L320.69 114.67C320.662 114.724 320.635 114.778 320.608 114.831L320.527 114.989L320.445 115.144L320.364 115.297L320.284 115.447L320.203 115.594C320.189 115.618 320.176 115.642 320.163 115.666L320.082 115.809C320.069 115.833 320.055 115.856 320.042 115.88C319.418 116.969 318.81 117.809 318.208 118.387C317.45 119.113 316.649 119.474 315.808 119.321C314.434 119.072 313.477 118.203 312.901 116.836C312.655 116.253 312.476 115.588 312.345 114.794L312.322 114.653C312.299 114.51 312.279 114.363 312.259 114.212L312.24 114.059L312.222 113.903C312.219 113.877 312.216 113.851 312.213 113.824L312.196 113.664L312.18 113.501L312.164 113.334L312.149 113.164L312.135 112.991L312.122 112.815C312.118 112.756 312.114 112.696 312.11 112.635C312.071 112.066 312.501 111.574 313.07 111.536C313.639 111.497 314.131 111.927 314.169 112.496L314.176 112.592L314.19 112.781L314.205 112.966C314.207 112.996 314.21 113.026 314.213 113.056L314.229 113.234C314.254 113.498 314.281 113.747 314.313 113.981L314.334 114.136C314.627 116.192 315.188 117.111 316.177 117.291C316.18 117.291 316.184 117.291 316.189 117.291L316.201 117.289L316.218 117.285L316.238 117.278C316.242 117.277 316.246 117.275 316.25 117.274L316.278 117.263C316.283 117.26 316.288 117.258 316.294 117.256C316.425 117.197 316.59 117.078 316.779 116.897C316.901 116.78 317.028 116.642 317.159 116.483L317.225 116.402C317.247 116.374 317.269 116.346 317.292 116.317L317.359 116.23C317.37 116.215 317.382 116.2 317.393 116.184L317.461 116.092L317.53 115.995C317.542 115.979 317.553 115.963 317.565 115.946L317.635 115.845C317.646 115.828 317.658 115.811 317.67 115.793L317.74 115.687C317.752 115.669 317.764 115.651 317.776 115.633L317.848 115.522C317.883 115.466 317.92 115.408 317.956 115.349L318.029 115.23L318.102 115.108C318.114 115.088 318.127 115.067 318.139 115.046L318.213 114.919C318.225 114.898 318.238 114.876 318.25 114.854L318.324 114.724C318.337 114.702 318.349 114.68 318.361 114.657L318.436 114.522C318.448 114.5 318.461 114.477 318.473 114.454L318.548 114.315L318.624 114.173L318.699 114.029L318.775 113.882L318.851 113.732L318.927 113.58C318.939 113.554 318.952 113.528 318.965 113.502L319.041 113.346L319.118 113.187L319.194 113.026L319.271 112.862L319.349 112.696L319.426 112.527L319.503 112.355L319.581 112.182L319.658 112.005L319.736 111.827L319.814 111.646L319.892 111.463L319.97 111.277L320.048 111.089L320.126 110.899L320.205 110.707L320.283 110.512L320.401 110.216L320.479 110.016L320.557 109.814C320.57 109.78 320.584 109.746 320.597 109.712L320.675 109.507L320.754 109.299L320.832 109.09L320.91 108.878L321.028 108.557L321.106 108.341L321.185 108.122L321.263 107.902L321.341 107.68L321.419 107.455L321.497 107.229L321.575 107.001C322.973 102.895 324.222 98.2159 325.11 93.8486L325.193 93.4337C325.674 91.0189 326.04 88.7091 326.258 86.6562C326.612 83.3155 326.355 79.7376 325.521 76.0156C325.396 75.4595 325.746 74.9076 326.302 74.783Z" fill="#1B3C87"/>
<path d="M256.488 73.2411C256.961 72.3394 258.316 72.5945 258.428 73.6064C258.758 76.5744 260.77 78.812 264.38 80.4608C266.936 81.6284 270.199 82.4591 274.139 83.021L274.432 83.0622C274.481 83.069 274.53 83.0757 274.58 83.0824L274.876 83.1221C274.976 83.1351 275.075 83.148 275.176 83.1608L275.477 83.1985C275.528 83.2047 275.578 83.2109 275.629 83.217L275.935 83.2533L276.243 83.2887L276.553 83.3231C276.605 83.3288 276.657 83.3344 276.709 83.34L277.023 83.373L277.454 83.4169L277.77 83.4481L278.08 83.478L278.487 83.5159L278.789 83.5429L279.089 83.5688L279.388 83.5936L279.686 83.6174L279.986 83.6402L280.186 83.655L280.489 83.6763L280.795 83.6969L281.105 83.7167L281.315 83.7295L281.634 83.7482L282.07 83.7723L282.521 83.7955L282.87 83.8123L283.108 83.8234L283.725 83.8504L284.112 83.8662L284.511 83.882L285.21 83.9079L286.108 83.9391L286.909 83.9654L287.59 83.9869L290.42 84.072L291.302 84.1012L292.073 84.1304L292.549 84.1512L292.984 84.1727L293.382 84.1953L293.59 84.2084L293.749 84.2193L293.903 84.2306L294.053 84.2422L294.373 84.2698L294.577 84.2896L294.71 84.3034C294.756 84.3083 294.801 84.3133 294.846 84.3185L294.978 84.3341L295.106 84.3504C295.127 84.3532 295.148 84.356 295.168 84.3588L295.29 84.3761C295.31 84.379 295.329 84.382 295.349 84.385L295.464 84.4033L295.575 84.4223L295.682 84.4421C295.928 84.4892 296.141 84.5429 296.327 84.605C296.6 84.6964 296.83 84.81 297.024 84.9707C297.336 85.229 297.532 85.5955 297.519 86.0243C297.479 87.3333 297.675 88.4611 298.084 89.4279C298.305 89.953 298.059 90.5583 297.534 90.78C297.009 91.0016 296.403 90.7557 296.182 90.2306C295.717 89.1317 295.47 87.8984 295.45 86.5287L295.45 86.5018L295.397 86.4899L295.322 86.4746C295.296 86.4696 295.269 86.4645 295.242 86.4595L295.157 86.4447L295.067 86.43C295.037 86.4252 295.005 86.4204 294.972 86.4157L294.873 86.4016L294.768 86.3879C294.75 86.3856 294.732 86.3834 294.714 86.3811L294.601 86.3679L294.49 86.3555L294.271 86.3333L294.008 86.3095L293.728 86.2873L293.505 86.2714L293.309 86.2587L293.146 86.2489L292.798 86.2298L292.322 86.207L291.904 86.1893L291.267 86.1653L290.552 86.1412L289.673 86.1143L288.05 86.066L286.826 86.0277L285.861 85.9959L285.258 85.9749L284.683 85.954L284.002 85.9275L283.484 85.906L283.11 85.8896L282.629 85.8673L282.279 85.85L281.938 85.8323L281.496 85.8079L281.066 85.7824L280.646 85.7557L280.336 85.7348L280.029 85.7131L279.622 85.6828L279.319 85.6589L279.016 85.634L278.711 85.608L278.302 85.5716L277.992 85.5429L277.571 85.5025L277.25 85.4707L276.811 85.426C276.702 85.4147 276.593 85.4033 276.485 85.3917L276.161 85.3564C276.053 85.3444 275.946 85.3323 275.839 85.3201L275.521 85.2828C275.415 85.2702 275.309 85.2574 275.204 85.2445L274.89 85.2051L274.579 85.1648L274.27 85.1234C274.218 85.1164 274.167 85.1093 274.116 85.1023L273.811 85.0593C269.706 84.4721 266.275 83.5957 263.522 82.3381C260.489 80.9528 258.337 79.1162 257.213 76.7835L257.18 76.7126L257.134 76.8318C257.002 77.1819 256.877 77.5351 256.762 77.8913L256.713 78.0442C256.54 78.5874 255.96 78.8879 255.416 78.7155C254.873 78.543 254.572 77.9629 254.745 77.4196C255.202 75.9785 255.786 74.5802 256.488 73.2411Z" fill="#1B3C87"/>
<path fill-rule="evenodd" clip-rule="evenodd" d="M303.508 95.5482C306.482 93.4843 310.443 93.5557 313.34 95.7256C316.237 97.8954 317.418 101.676 316.272 105.108C315.125 108.541 311.909 110.853 308.289 110.848C307.78 110.849 307.271 110.803 306.77 110.712" fill="white"/>
<path d="M302.155 92.9483C305.494 90.6309 309.942 90.7111 313.195 93.1475C316.447 95.5839 317.774 99.8288 316.487 103.683C315.2 107.537 311.588 110.134 307.526 110.128C306.955 110.129 306.385 110.078 305.823 109.976C305.262 109.874 304.89 109.337 304.992 108.776C305.094 108.215 305.631 107.843 306.192 107.945C306.631 108.025 307.077 108.065 307.527 108.064C310.702 108.069 313.523 106.04 314.528 103.029C315.534 100.019 314.498 96.7025 311.957 94.7992C309.416 92.8959 305.941 92.8332 303.333 94.6436C302.865 94.9687 302.221 94.8527 301.896 94.3845C301.571 93.9164 301.687 93.2734 302.155 92.9483Z" fill="#1B3C87"/>
<path fill-rule="evenodd" clip-rule="evenodd" d="M203.747 213L264.74 222.737L249.992 315.053L189 305.317L203.747 213Z" fill="#4C535C"/>
<path d="M199.917 206.714C200.005 206.161 200.519 205.781 201.072 205.854L201.099 205.858L262.092 215.596C262.646 215.685 263.026 216.198 262.953 216.75L262.949 216.778L258.199 246.532C258.109 247.094 257.58 247.478 257.017 247.388C256.463 247.3 256.083 246.786 256.156 246.234L256.16 246.206L260.747 217.472L201.793 208.059L187.208 299.357C187.12 299.91 186.606 300.29 186.054 300.217L186.026 300.213C185.472 300.125 185.092 299.611 185.166 299.059L185.17 299.031L199.917 206.714Z" fill="#1B3C87"/>
<path d="M250.726 280.206C250.816 279.643 251.345 279.26 251.908 279.349C252.462 279.438 252.842 279.951 252.768 280.504L252.764 280.531L248.2 309.094C248.112 309.648 247.598 310.028 247.046 309.954L247.018 309.95L205.422 303.308C204.859 303.218 204.475 302.689 204.565 302.127C204.654 301.573 205.167 301.193 205.72 301.266L205.747 301.27L246.324 307.75L250.726 280.206Z" fill="#1B3C87"/>
<path fill-rule="evenodd" clip-rule="evenodd" d="M186.25 287.464C183.474 266.482 185.61 252.753 197.562 248.841C202.386 247.263 197.634 277.932 195.712 282.982C193.79 288.032 188.525 282.271 186.25 287.464Z" fill="white"/>
<path d="M198.351 244.897C198.888 244.707 199.478 244.988 199.669 245.525C199.859 246.062 199.578 246.652 199.041 246.843C192.47 249.171 188.343 252.412 186.315 256.215C184.788 259.076 184.559 262.131 185.304 264.578C185.47 265.123 185.163 265.7 184.618 265.866C184.072 266.032 183.495 265.725 183.329 265.18C182.428 262.224 182.7 258.603 184.493 255.244C186.781 250.954 191.321 247.388 198.351 244.897Z" fill="#1B3C87"/>
<path d="M197.405 257.76C197.943 257.57 198.533 257.851 198.723 258.388C198.913 258.925 198.632 259.515 198.095 259.706C191.524 262.033 187.398 265.274 185.369 269.077C183.843 271.938 183.613 274.994 184.358 277.441C184.524 277.986 184.216 278.562 183.67 278.728C183.125 278.894 182.548 278.587 182.382 278.041C181.483 275.086 181.755 271.465 183.547 268.106C185.836 263.816 190.376 260.25 197.405 257.76Z" fill="#1B3C87"/>
<path d="M198.256 268.824C198.794 268.634 199.384 268.915 199.574 269.452C199.765 269.989 199.483 270.579 198.946 270.77C192.375 273.098 188.249 276.339 186.22 280.142C184.694 283.003 184.464 286.059 185.21 288.506C185.376 289.052 185.068 289.628 184.523 289.794C183.977 289.96 183.401 289.653 183.234 289.107C182.334 286.151 182.606 282.531 184.398 279.171C186.687 274.881 191.227 271.315 198.256 268.824Z" fill="#1B3C87"/>
<path d="M302.158 92.9481C302.627 92.6232 303.27 92.7394 303.595 93.2076C303.92 93.6759 303.804 94.3189 303.336 94.6438C302.181 95.4449 301.278 96.5584 300.733 97.8539C300.512 98.3793 299.907 98.6262 299.381 98.4053C298.856 98.1844 298.609 97.5795 298.83 97.0541C299.527 95.3971 300.681 93.9729 302.158 92.9481Z" fill="#1B3C87"/>
<path d="M283.681 232.501C283.909 231.979 284.518 231.741 285.041 231.969C285.349 232.105 285.792 232.371 286.389 232.784L286.542 232.89L286.7 233.002C286.728 233.021 286.755 233.041 286.782 233.061L286.951 233.182L287.127 233.31L287.309 233.444L287.498 233.584C287.53 233.608 287.562 233.632 287.595 233.657L287.794 233.807L288.001 233.963L288.214 234.126L288.435 234.296L288.662 234.472L288.897 234.655C288.937 234.686 288.977 234.717 289.017 234.748L289.263 234.941L289.517 235.141L289.777 235.347L290.046 235.561L290.322 235.781L290.75 236.124L291.196 236.483L291.504 236.732L291.819 236.987L292.307 237.384L292.813 237.797L293.161 238.082L293.882 238.673L294.445 239.137L295.225 239.781L296.04 240.456L296.675 240.982L297.403 241.588L307.181 249.769L311.29 253.204L314.395 255.796L316.454 257.512L318.046 258.837L319.213 259.806L319.972 260.434L320.985 261.269L321.981 262.09L322.718 262.696L323.746 263.54L324.507 264.163L325.259 264.777L326.249 265.584L326.982 266.18L327.946 266.962L328.659 267.539L329.597 268.296L330.291 268.855L330.978 269.406L331.656 269.948L332.326 270.483L332.988 271.01L333.425 271.357L333.858 271.701L334.289 272.041L334.715 272.378L335.349 272.877L335.974 273.367L336.592 273.851L337 274.169L337.606 274.639L338.005 274.949L338.401 275.255L338.989 275.708L339.377 276.006L339.762 276.3L340.143 276.591L340.521 276.879L340.896 277.164L341.268 277.445L341.819 277.861L342.183 278.134L342.543 278.403L342.901 278.67L343.255 278.933L343.606 279.193L343.954 279.45L344.328 279.725L344.727 280.017C344.991 280.21 345.252 280.4 345.51 280.586L345.895 280.863C345.958 280.909 346.022 280.955 346.085 281L346.462 281.27L346.835 281.535C347.02 281.666 347.203 281.796 347.384 281.923L347.744 282.176L348.099 282.423C348.217 282.505 348.334 282.586 348.449 282.666L348.795 282.903L349.135 283.136C349.36 283.289 349.582 283.439 349.8 283.586L350.126 283.803C353.729 286.202 356.386 287.65 357.983 288.057C363.079 289.354 368.886 287.78 374.646 283.921C379.626 280.584 384.201 275.722 386.833 271.198C387.388 270.244 387.793 268.878 388.037 267.13C388.116 266.566 388.638 266.172 389.203 266.251C389.767 266.33 390.161 266.851 390.082 267.416C389.804 269.407 389.327 271.018 388.617 272.236C385.828 277.031 381.035 282.125 375.795 285.635C369.592 289.792 363.219 291.52 357.473 290.057C355.388 289.526 352.078 287.666 347.553 284.557L347.194 284.309C346.831 284.058 346.462 283.8 346.084 283.533L345.704 283.265C345.577 283.174 345.448 283.083 345.319 282.991L344.929 282.712C344.798 282.618 344.667 282.523 344.534 282.428L344.134 282.138C344.067 282.09 344 282.041 343.932 281.992L343.525 281.695L343.112 281.393L342.73 281.112L342.38 280.854L342.026 280.592L341.67 280.327L341.13 279.924L340.766 279.651L340.398 279.375L340.028 279.095L339.654 278.813L339.278 278.527L338.706 278.091L338.322 277.797L337.933 277.5L337.542 277.199L337.147 276.895L336.749 276.587L336.146 276.12L335.536 275.644L335.124 275.323L334.71 274.999L334.292 274.671L333.658 274.173L333.017 273.667L332.368 273.154L331.931 272.807L331.269 272.281L330.599 271.747L329.921 271.204L329.235 270.655L328.542 270.097L327.84 269.531L327.129 268.957L326.411 268.375L325.684 267.786L325.195 267.388L324.454 266.785L323.705 266.174L322.948 265.554L321.925 264.716L320.916 263.887L320.172 263.274L319.419 262.654L318.657 262.024L317.897 261.396L317.14 260.768L315.846 259.692L314.641 258.689L312.252 256.697L308.502 253.564L302.766 248.767L296.009 243.113L295.384 242.594L294.578 241.926L293.995 241.443L293.244 240.823L292.523 240.23L292.003 239.803L291.5 239.392L291.015 238.996L290.546 238.615L290.094 238.248L289.517 237.784L289.24 237.561L288.838 237.24L288.579 237.034L288.328 236.834L288.084 236.641L287.731 236.364L287.395 236.102L287.075 235.854L286.87 235.696L286.673 235.545L286.483 235.401L286.299 235.263L286.123 235.131L285.954 235.006L285.792 234.887L285.637 234.774L285.489 234.667C285.465 234.65 285.441 234.633 285.417 234.617L285.28 234.52C285.145 234.426 285.021 234.341 284.907 234.266L284.797 234.194C284.565 234.044 284.381 233.938 284.244 233.874L284.213 233.86C283.69 233.632 283.452 233.023 283.681 232.501Z" fill="#1B3C87"/>
<path d="M380.422 217.812C380.945 217.585 381.553 217.824 381.78 218.347L381.814 218.425L381.849 218.51L381.885 218.599L381.922 218.694L381.961 218.795L382.001 218.901L382.042 219.012L382.084 219.128L382.15 219.312L382.218 219.507L382.265 219.643L382.312 219.783L382.386 220.003L382.462 220.233L382.566 220.556L382.647 220.809L382.757 221.161L382.871 221.53L382.958 221.816L383.077 222.211L383.199 222.62L383.323 223.043L383.449 223.479L383.546 223.815L383.643 224.157L383.775 224.623L383.908 225.101L384.008 225.465L384.178 226.086L384.349 226.72L384.487 227.237L384.591 227.63C385.975 232.888 387.283 238.636 388.289 244.082C388.392 244.642 388.022 245.18 387.461 245.284C386.9 245.387 386.362 245.017 386.258 244.456C385.283 239.177 384.02 233.603 382.68 228.482L382.56 228.027L382.425 227.518L382.291 227.017L382.158 226.524L382.025 226.04L381.894 225.566L381.765 225.102L381.637 224.65L381.511 224.209L381.418 223.886L381.326 223.571L381.206 223.162L381.088 222.767L380.974 222.386L380.918 222.202L380.808 221.845L380.754 221.672L380.701 221.504L380.599 221.18L380.524 220.949L380.452 220.728L380.382 220.517L380.337 220.382L380.292 220.253L380.249 220.128L380.187 219.95L380.147 219.838L380.108 219.731L380.052 219.581L379.999 219.443L379.965 219.358L379.933 219.279C379.927 219.266 379.922 219.253 379.917 219.241L379.887 219.17C379.659 218.648 379.899 218.04 380.422 217.812Z" fill="#1B3C87"/>
<path d="M280.803 210.544C285.415 210.195 288.939 212.953 291.049 218.875C291.241 219.412 290.96 220.002 290.423 220.194C289.886 220.385 289.296 220.105 289.104 219.568C287.285 214.462 284.561 212.329 280.96 212.602C277.636 212.854 273.527 215.143 268.944 219.138C268.515 219.512 267.863 219.468 267.488 219.038C267.113 218.609 267.158 217.957 267.587 217.582C272.475 213.321 276.934 210.838 280.803 210.544Z" fill="#1B3C87"/>
<path d="M268.525 224.423C271.4 221.957 277.708 219.487 280.528 219.693C281.096 219.735 281.524 220.23 281.482 220.798C281.441 221.357 280.962 221.779 280.405 221.754L280.377 221.752C278.147 221.589 272.357 223.856 269.869 225.989C269.437 226.36 268.785 226.311 268.414 225.878C268.042 225.445 268.092 224.794 268.525 224.423Z" fill="#1B3C87"/>
<path d="M275.559 228.834L275.738 228.756L275.915 228.679L276.091 228.604L276.265 228.53L276.437 228.458C276.465 228.446 276.494 228.434 276.522 228.423L276.691 228.353L276.859 228.285L277.025 228.218L277.189 228.154C277.243 228.132 277.297 228.111 277.351 228.091L277.512 228.029C277.538 228.019 277.565 228.009 277.591 227.999L277.749 227.94L277.906 227.883L278.06 227.827C278.086 227.818 278.111 227.809 278.137 227.8L278.289 227.746C278.314 227.738 278.339 227.729 278.364 227.72L278.514 227.67L278.662 227.621L278.809 227.574C278.833 227.566 278.857 227.558 278.881 227.551L279.025 227.506C279.049 227.499 279.073 227.491 279.096 227.484L279.238 227.442L279.378 227.401C279.424 227.388 279.471 227.375 279.516 227.363L279.653 227.326C279.699 227.314 279.744 227.302 279.789 227.29L279.923 227.257C280.277 227.17 280.616 227.101 280.939 227.052L281.06 227.034C281.479 226.975 281.872 226.949 282.242 226.957C282.812 226.97 283.264 227.442 283.251 228.012C283.239 228.581 282.766 229.033 282.196 229.021C282.129 229.019 282.059 229.019 281.987 229.021L281.9 229.025C281.885 229.025 281.871 229.026 281.856 229.027L281.766 229.033C281.585 229.046 281.393 229.069 281.191 229.102L281.089 229.119C281.037 229.128 280.985 229.138 280.932 229.148L280.825 229.17C280.808 229.173 280.789 229.177 280.771 229.181L280.662 229.205C280.644 229.209 280.625 229.213 280.607 229.217L280.495 229.243C280.476 229.248 280.457 229.253 280.438 229.257L280.323 229.286C280.285 229.296 280.246 229.306 280.207 229.316L280.089 229.348L279.969 229.381L279.847 229.416C279.826 229.422 279.806 229.428 279.785 229.434L279.661 229.472L279.534 229.511L279.406 229.551C279.385 229.558 279.363 229.565 279.342 229.572L279.211 229.615L279.078 229.66L278.944 229.706C278.922 229.714 278.899 229.721 278.876 229.729L278.739 229.778C278.716 229.786 278.693 229.794 278.67 229.803L278.531 229.853L278.389 229.905L278.246 229.959L278.101 230.015L277.955 230.071L277.806 230.13L277.58 230.22L277.427 230.282L277.273 230.346L277.037 230.445L276.878 230.512L276.718 230.581L276.555 230.651L276.292 230.767L276.092 230.856L275.89 230.947L275.685 231.04L275.476 231.135L275.264 231.233L274.938 231.386L274.715 231.491L274.487 231.599L274.049 231.809L273.269 232.187L272.433 232.596C271.921 232.847 271.303 232.635 271.052 232.123C270.801 231.612 271.013 230.993 271.525 230.743L272.873 230.085L273.274 229.891L273.48 229.793L273.717 229.68L274.062 229.517C274.1 229.499 274.137 229.481 274.175 229.464L274.397 229.36L274.616 229.259L274.83 229.161L275.042 229.065L275.25 228.971C275.285 228.956 275.319 228.94 275.354 228.925L275.559 228.834Z" fill="#1B3C87"/>
<path fill-rule="evenodd" clip-rule="evenodd" d="M338.127 165.428C365.362 156.174 391.549 214.986 390.267 221.151C388.985 227.317 346.116 239.751 341.175 235.858C336.233 231.964 322.353 170.789 338.127 165.428Z" fill="#46DBC9"/>
<path d="M329.146 202.244C329.708 202.151 330.239 202.532 330.332 203.094L330.401 203.506L330.47 203.917C330.482 203.986 330.493 204.054 330.505 204.123L330.576 204.534C330.588 204.603 330.6 204.671 330.612 204.74L330.684 205.15L330.757 205.561L330.831 205.97L330.906 206.38L330.982 206.788L331.058 207.196C331.071 207.264 331.084 207.332 331.097 207.4L331.175 207.806L331.254 208.212C331.267 208.28 331.28 208.347 331.293 208.415L331.373 208.819C331.387 208.886 331.4 208.954 331.413 209.021L331.494 209.424C331.508 209.491 331.522 209.558 331.535 209.625L331.617 210.026C331.631 210.093 331.645 210.159 331.659 210.226L331.742 210.625L331.826 211.023C331.84 211.09 331.854 211.156 331.868 211.222L331.953 211.618L332.038 212.012L332.124 212.405L332.211 212.796L332.298 213.186C332.313 213.251 332.328 213.315 332.342 213.38L332.43 213.767L332.519 214.152C332.534 214.216 332.549 214.28 332.564 214.344L332.653 214.726L332.744 215.107L332.834 215.485L332.925 215.861L333.017 216.235L333.109 216.606L333.201 216.976L333.294 217.343C333.31 217.404 333.325 217.464 333.341 217.525L333.434 217.888L333.528 218.249L333.622 218.607L333.717 218.963C333.732 219.022 333.748 219.08 333.764 219.139L333.859 219.491L333.954 219.839L334.05 220.184L334.146 220.527C334.162 220.584 334.178 220.641 334.194 220.697L334.29 221.035C334.322 221.147 334.354 221.259 334.387 221.37L334.483 221.702C334.516 221.812 334.548 221.921 334.58 222.03L334.67 222.331C334.7 222.43 334.73 222.529 334.76 222.627L334.849 222.92L334.939 223.209C334.954 223.257 334.969 223.305 334.983 223.352L335.073 223.635C335.087 223.682 335.102 223.728 335.117 223.775L335.206 224.051L335.294 224.324C335.309 224.369 335.324 224.414 335.339 224.458L335.427 224.724C335.441 224.768 335.456 224.812 335.471 224.855L335.558 225.115C335.573 225.158 335.587 225.2 335.602 225.243L335.689 225.496L335.775 225.744C335.79 225.785 335.804 225.825 335.818 225.866L335.904 226.107L335.99 226.344L336.074 226.576L336.159 226.803L336.242 227.025C336.256 227.061 336.27 227.098 336.284 227.134L336.366 227.349L336.448 227.558C336.489 227.662 336.53 227.764 336.57 227.864L336.65 228.06C336.703 228.19 336.756 228.316 336.808 228.439L336.886 228.62L336.963 228.796C336.976 228.824 336.988 228.853 337.001 228.881L337.076 229.049L337.151 229.211L337.225 229.367C337.675 230.315 338.069 230.939 338.373 231.179C338.451 231.241 338.555 231.298 338.684 231.35L338.737 231.371L338.792 231.391C338.802 231.394 338.811 231.397 338.821 231.401L338.88 231.42L338.942 231.439C338.953 231.442 338.964 231.445 338.974 231.448L339.04 231.466C339.063 231.472 339.086 231.478 339.109 231.483L339.18 231.5L339.254 231.516C339.266 231.519 339.279 231.521 339.292 231.524L339.369 231.539C339.395 231.544 339.422 231.549 339.449 231.554L339.531 231.568C339.559 231.572 339.587 231.577 339.616 231.581L339.704 231.594L339.793 231.606C339.809 231.608 339.824 231.609 339.839 231.611L339.933 231.622L340.028 231.633L340.127 231.642L340.227 231.651L340.33 231.659L340.436 231.666C340.453 231.668 340.471 231.669 340.489 231.67L340.598 231.676L340.709 231.681L340.822 231.686L340.938 231.69L341.056 231.693L341.176 231.695L341.299 231.697L341.486 231.698C341.508 231.698 341.529 231.698 341.55 231.697L341.614 231.697C341.722 231.696 341.832 231.694 341.943 231.692L342.113 231.687C342.141 231.687 342.169 231.686 342.198 231.685L342.372 231.678L342.548 231.671L342.727 231.662L342.909 231.651L343.094 231.64L343.281 231.627C343.313 231.625 343.345 231.623 343.376 231.62L343.568 231.606C343.6 231.603 343.633 231.601 343.665 231.598L343.861 231.582C343.894 231.579 343.927 231.576 343.96 231.573L344.16 231.554L344.363 231.535C344.397 231.532 344.431 231.528 344.465 231.525L344.672 231.503C344.706 231.5 344.741 231.496 344.776 231.492L344.987 231.469L345.2 231.444C345.236 231.44 345.271 231.436 345.307 231.432L345.524 231.405C345.561 231.401 345.597 231.396 345.634 231.392L345.855 231.363C345.892 231.359 345.929 231.354 345.966 231.349L346.191 231.319L346.418 231.288C346.456 231.283 346.494 231.277 346.532 231.272L346.763 231.239L346.996 231.205L347.232 231.169L347.47 231.133L347.71 231.095L347.953 231.056L348.198 231.016C348.239 231.009 348.28 231.002 348.321 230.995C348.884 230.901 349.416 231.281 349.509 231.843C349.603 232.405 349.224 232.937 348.661 233.031C342.675 234.031 338.698 234.063 337.095 232.8C336.283 232.159 335.381 230.524 334.422 228.056L334.329 227.815C334.127 227.286 333.923 226.721 333.716 226.121L333.621 225.842L333.525 225.557C333.509 225.51 333.493 225.462 333.477 225.413L333.381 225.122C333.365 225.073 333.349 225.024 333.333 224.974L333.236 224.675C333.204 224.575 333.171 224.474 333.139 224.372L333.042 224.063C333.025 224.011 333.009 223.959 332.993 223.907L332.895 223.592L332.797 223.271L332.699 222.947C332.683 222.892 332.667 222.837 332.65 222.782L332.601 222.617C332.568 222.506 332.535 222.395 332.503 222.284L332.404 221.947L332.306 221.607L332.209 221.264C332.192 221.206 332.176 221.149 332.16 221.091L332.063 220.743C332.046 220.685 332.03 220.627 332.014 220.568L331.917 220.216C331.901 220.157 331.885 220.098 331.869 220.039L331.772 219.683C331.756 219.623 331.74 219.563 331.724 219.504L331.628 219.143C331.612 219.083 331.596 219.022 331.58 218.962L331.485 218.597C331.469 218.536 331.453 218.475 331.438 218.414L331.343 218.046L331.248 217.675L331.154 217.302L331.061 216.926L330.968 216.548L330.875 216.168L330.783 215.786L330.692 215.401C330.676 215.337 330.661 215.273 330.646 215.208L330.555 214.821C330.54 214.756 330.525 214.692 330.51 214.627L330.42 214.236L330.331 213.844L330.242 213.451L330.154 213.055L330.066 212.658L329.979 212.259L329.893 211.859L329.807 211.457L329.722 211.054L329.638 210.65L329.554 210.244L329.472 209.837C329.458 209.77 329.444 209.702 329.431 209.634L329.349 209.225L329.268 208.816L329.188 208.405C329.175 208.337 329.161 208.268 329.148 208.2L329.069 207.788L328.991 207.376L328.914 206.962L328.838 206.548C328.825 206.479 328.813 206.41 328.8 206.341L328.725 205.927L328.651 205.511L328.578 205.096C328.566 205.026 328.554 204.957 328.542 204.888L328.47 204.471L328.399 204.055L328.33 203.638C328.318 203.569 328.307 203.499 328.295 203.43C328.202 202.867 328.583 202.336 329.146 202.244Z" fill="#1B3C87"/>
<path d="M342.277 160.623C342.358 160.059 342.882 159.668 343.446 159.749C349.316 160.593 355.222 163.991 361.046 169.527C366.051 174.286 370.892 180.534 375.325 187.706C382.756 199.731 388.573 213.959 387.838 217.493C387.406 219.57 384.136 221.757 378.523 224.214C378.377 224.278 378.23 224.342 378.081 224.406L377.783 224.534L377.48 224.661C377.43 224.683 377.379 224.704 377.328 224.725L377.021 224.853C376.918 224.896 376.814 224.939 376.71 224.981L376.396 225.109L376.079 225.237C376.025 225.259 375.972 225.28 375.919 225.301L375.597 225.429C375.543 225.451 375.489 225.472 375.435 225.493L375.108 225.621C375.053 225.642 374.999 225.664 374.944 225.685L374.613 225.813L374.279 225.94L373.943 226.067C373.886 226.089 373.83 226.11 373.773 226.131L373.433 226.258C373.376 226.279 373.319 226.3 373.262 226.321L372.917 226.448C372.687 226.532 372.455 226.617 372.221 226.701L371.87 226.826C371.811 226.847 371.752 226.868 371.693 226.889L371.338 227.015C371.22 227.056 371.101 227.098 370.981 227.14L370.622 227.264L370.261 227.388C370.14 227.43 370.019 227.471 369.898 227.512L369.533 227.635L369.166 227.758C369.105 227.778 369.043 227.799 368.982 227.819L368.612 227.941C368.551 227.962 368.489 227.982 368.427 228.002L368.055 228.123L367.682 228.244L367.307 228.364C367.244 228.384 367.182 228.404 367.119 228.424L366.742 228.543C366.679 228.563 366.616 228.583 366.553 228.602L366.175 228.721C366.111 228.74 366.048 228.76 365.985 228.779L365.604 228.896L365.223 229.013L364.84 229.129L364.457 229.243L364.073 229.358L363.687 229.471L363.302 229.583L362.915 229.695L362.528 229.806L362.141 229.916L361.753 230.024L361.364 230.132C361.3 230.15 361.235 230.168 361.17 230.186L360.781 230.293C360.231 230.442 359.664 230.118 359.514 229.568C359.364 229.019 359.688 228.451 360.238 228.301L360.43 228.249L360.813 228.143L361.196 228.037L361.578 227.93C361.642 227.912 361.706 227.894 361.769 227.876L362.151 227.767L362.532 227.657L362.913 227.547C362.976 227.528 363.04 227.51 363.103 227.491L363.482 227.38C363.546 227.361 363.609 227.342 363.672 227.324L364.05 227.211C364.113 227.192 364.176 227.173 364.239 227.154L364.616 227.04L364.992 226.925L365.367 226.81L365.741 226.694C365.803 226.675 365.865 226.655 365.927 226.636L366.299 226.519L366.67 226.401C366.731 226.381 366.793 226.362 366.854 226.342L367.223 226.223L367.59 226.104L367.955 225.985C368.016 225.965 368.077 225.945 368.137 225.925L368.5 225.804L368.861 225.683L369.221 225.562L369.578 225.44L369.934 225.318C370.052 225.277 370.17 225.236 370.287 225.196L370.639 225.073L370.988 224.949L371.335 224.826L371.679 224.702L372.022 224.578L372.361 224.453C372.474 224.412 372.587 224.37 372.699 224.329L373.033 224.204L373.366 224.079C373.421 224.058 373.476 224.037 373.53 224.017L373.858 223.891C373.967 223.85 374.076 223.808 374.183 223.766L374.506 223.641C374.559 223.62 374.612 223.599 374.666 223.578L374.983 223.452C375.036 223.431 375.088 223.41 375.141 223.39L375.454 223.264L375.764 223.138C375.815 223.117 375.866 223.097 375.917 223.076L376.222 222.95L376.524 222.825C376.624 222.783 376.723 222.741 376.822 222.699L377.116 222.574C377.263 222.511 377.408 222.449 377.551 222.386L377.694 222.324C377.77 222.291 377.845 222.258 377.919 222.225L378.141 222.126L378.36 222.028L378.576 221.93L378.79 221.833L379.001 221.735L379.21 221.638L379.415 221.541L379.618 221.445L379.818 221.348C379.851 221.332 379.884 221.316 379.917 221.3L380.113 221.205L380.306 221.109C380.338 221.093 380.37 221.078 380.401 221.062L380.59 220.967C380.621 220.951 380.653 220.935 380.684 220.919L380.868 220.825L381.05 220.731L381.228 220.637C381.258 220.622 381.287 220.606 381.316 220.591L381.491 220.498L381.662 220.405C381.69 220.39 381.718 220.374 381.746 220.359L381.913 220.267C381.941 220.251 381.968 220.236 381.995 220.221L382.158 220.129C382.184 220.114 382.211 220.099 382.238 220.084L382.395 219.993C382.421 219.978 382.447 219.963 382.473 219.948L382.626 219.858L382.776 219.768L382.923 219.679C383.044 219.605 383.161 219.531 383.276 219.458L383.412 219.371C383.434 219.356 383.456 219.341 383.478 219.327L383.609 219.24L383.713 219.17L383.814 219.101L383.913 219.032L384.009 218.964L384.103 218.896L384.194 218.829L384.283 218.763L384.369 218.697L384.453 218.632L384.535 218.568L384.614 218.504C384.627 218.493 384.64 218.483 384.653 218.472L384.728 218.409C384.74 218.399 384.753 218.389 384.765 218.378L384.837 218.317L384.906 218.256L384.973 218.196L385.037 218.136L385.099 218.078C385.109 218.068 385.119 218.059 385.129 218.049L385.187 217.992L385.242 217.936L385.295 217.88C385.304 217.871 385.312 217.862 385.321 217.853L385.37 217.799L385.417 217.745C385.432 217.728 385.447 217.71 385.461 217.693L385.503 217.642C385.679 217.422 385.784 217.23 385.816 217.072C385.909 216.629 385.79 215.729 385.482 214.489L385.435 214.3C385.378 214.077 385.315 213.844 385.247 213.601L385.187 213.391C385.136 213.214 385.082 213.032 385.025 212.845L384.956 212.619C384.92 212.504 384.884 212.389 384.847 212.271L384.771 212.034C384.758 211.994 384.745 211.954 384.732 211.914L384.652 211.671C384.638 211.63 384.625 211.589 384.611 211.548L384.527 211.299C384.513 211.257 384.499 211.215 384.484 211.173L384.397 210.919L384.306 210.66C384.291 210.617 384.276 210.573 384.26 210.53L384.166 210.266C384.135 210.177 384.103 210.088 384.07 209.998L383.971 209.728L383.87 209.454L383.766 209.176L383.66 208.896C383.642 208.849 383.624 208.802 383.606 208.754L383.496 208.469C383.477 208.422 383.459 208.374 383.44 208.326L383.327 208.036L383.211 207.744L383.093 207.449C383.033 207.301 382.973 207.152 382.911 207.002C382.242 205.366 381.497 203.669 380.686 201.939L380.497 201.54C378.508 197.337 376.142 192.956 373.568 188.791C369.222 181.759 364.486 175.646 359.623 171.023C354.083 165.757 348.538 162.567 343.152 161.792C342.588 161.711 342.196 161.187 342.277 160.623Z" fill="#1B3C87"/>
</svg>
